<svg width="169" height="40" viewBox="0 0 169 40" fill="none" xmlns="http://www.w3.org/2000/svg">
<g clip-path="url(#clip0)">
<path d="M22.9567 40.0021C22.9567 40.0021 10.6119 36.1167 5.64665 29.8173C4.63535 28.5325 -0.258217 24.1898 0.0114635 12.3976C0.281144 0.605292 11.4167 -4.62668 29.3982 5.02651C29.3982 5.02651 51.9319 -3.88466 49.516 13.0007C48.4584 22.1377 43.3653 27.2883 43.3653 27.2883C43.3653 27.2883 46.9667 21.7113 47.1001 12.4649C47.2336 3.21847 29.3883 9.91903 29.3883 9.91903C29.3883 9.91903 20.9285 6.1739 13.2848 6.4348C5.48794 6.71533 3.89233 15.5522 6.17337 24.5293C8.45442 33.5064 22.9567 40.0021 22.9567 40.0021Z" fill="white"/>
<path d="M22.9567 40.0021C22.9567 40.0021 10.6119 36.1167 5.64665 29.8173C4.63535 28.5325 -0.258217 24.1898 0.0114635 12.3976C0.281144 0.605292 11.4167 -4.62668 29.3982 5.02651C29.3982 5.02651 51.9319 -3.88466 49.516 13.0007C48.4584 22.1377 43.3653 27.2883 43.3653 27.2883C43.3653 27.2883 46.9667 21.7113 47.1001 12.4649C47.2336 3.21847 29.3883 9.91903 29.3883 9.91903C29.3883 9.91903 20.9285 6.1739 13.2848 6.4348C5.48794 6.71533 3.89233 15.5522 6.17337 24.5293C8.45442 33.5064 22.9567 40.0021 22.9567 40.0021Z" fill="url(#paint0_linear)"/>
<path d="M25.5915 23.809C25.5273 24.1933 25.4218 24.5695 25.2769 24.9312C25.1245 25.3142 24.9269 25.6777 24.6884 26.014C24.446 26.3612 24.1348 26.6548 23.774 26.8767C23.4778 27.0762 23.1509 27.2259 22.8062 27.3199C22.4232 27.4285 22.0345 27.5161 21.6418 27.5822C21.2237 27.6525 20.8014 27.696 20.3777 27.7127C19.9404 27.7295 19.5219 27.7379 19.122 27.7379C18.4937 27.7379 17.7657 27.7248 16.9379 27.6986C16.1101 27.6725 15.199 27.6421 14.2046 27.6075C14.345 27.1558 14.5613 26.5625 14.8577 25.8317C15.1541 25.1009 15.4856 24.3042 15.8522 23.4472C16.2188 22.5901 16.6106 21.684 17.0292 20.7442C17.4478 19.8044 17.8621 18.9025 18.2723 18.0398C18.6824 17.1772 19.0743 16.3819 19.4493 15.6553C19.8243 14.9287 20.1516 14.3326 20.4325 13.8795C21.1952 14.381 21.9049 14.9586 22.5506 15.6034C23.1867 16.236 23.7445 16.9423 24.2122 17.7074C24.6752 18.4683 25.04 19.2846 25.298 20.1368C25.5601 21.0052 25.6922 21.9076 25.6899 22.8145C25.686 23.1517 25.6555 23.4879 25.5986 23.8203L25.5915 23.809ZM27.0958 18.939C26.755 17.9834 26.2869 17.078 25.7039 16.2472C25.1303 15.4306 24.4601 14.686 23.708 14.0296C22.9699 13.3834 22.1875 12.7896 21.3666 12.2524C21.409 12.1536 21.4617 12.0596 21.5239 11.9719C21.6109 11.8414 21.7163 11.6914 21.8385 11.5272C21.9607 11.3631 22.0871 11.1836 22.2177 10.9928C22.3484 10.8021 22.4663 10.6183 22.5703 10.4444C22.8147 10.0788 23.024 9.76081 23.1981 9.49057C23.3425 9.2972 23.4318 9.06843 23.4566 8.8285C23.4626 8.7872 23.4541 8.74509 23.4326 8.70931C23.4111 8.67352 23.3779 8.64625 23.3386 8.63213C23.241 8.60375 23.1396 8.59051 23.038 8.59286C22.8807 8.59286 22.6812 8.7233 22.4368 8.9856C22.1715 9.27256 21.9265 9.57769 21.7037 9.89874C21.4593 10.2485 21.2252 10.6015 21.0014 10.9578L20.4774 11.7853C19.7396 11.3983 18.9584 11.1002 18.1501 10.8974C17.2783 10.6721 16.1546 10.5589 14.7791 10.558C14.4617 10.5646 14.1458 10.6041 13.8366 10.6758C13.4505 10.7595 13.0704 10.8687 12.6989 11.0026C12.3051 11.1426 11.9208 11.308 11.5485 11.4978C11.1953 11.6747 10.8651 11.8943 10.5653 12.1514C9.83305 12.7752 9.33583 13.448 9.07364 14.1699C8.81682 14.8686 8.6842 15.6067 8.68176 16.351C8.68176 16.7176 8.74684 16.9701 8.877 17.1085C8.942 17.1778 9.02118 17.2323 9.10915 17.2684C9.19713 17.3045 9.29184 17.3212 9.38686 17.3175C9.57976 17.3175 9.78061 17.1912 9.98943 16.9388C10.1748 16.7433 10.2856 16.4892 10.3027 16.2206C10.2951 15.9987 10.2298 15.7826 10.113 15.5936C9.98579 15.3816 9.91788 15.1394 9.91639 14.8923C9.91639 14.8404 9.91639 14.7366 9.92903 14.5795C9.94233 14.3973 9.9777 14.2173 10.0344 14.0436C10.1054 13.8183 10.1971 13.5999 10.3083 13.3914C10.4495 13.129 10.6258 12.8869 10.8322 12.6718C11.1949 12.33 11.6341 12.0795 12.1132 11.941C12.6975 11.7606 13.3065 11.6726 13.918 11.6801C14.519 11.6775 15.119 11.7301 15.7103 11.8372C16.2404 11.9311 16.7636 12.0604 17.2764 12.2244C17.7272 12.3701 18.1682 12.5444 18.5967 12.7462C18.9468 12.9104 19.2877 13.0935 19.6178 13.2946C19.4427 13.6088 19.1618 14.153 18.7751 14.9273C18.3884 15.7016 17.9263 16.6549 17.3888 17.7874C16.8485 18.9207 16.2426 20.2093 15.5712 21.6531C14.8999 23.097 14.1901 24.6642 13.4419 26.3549C13.137 27.0581 12.7832 27.7392 12.3828 28.393C12.0598 28.8979 11.8983 29.1939 11.8983 29.2809C11.8983 29.4202 11.9853 29.4987 12.1595 29.5165C12.3337 29.5333 12.5177 29.5418 12.7087 29.5418H12.9447C13.0318 29.5418 13.1497 29.5418 13.2972 29.5291C13.4447 29.5165 13.6385 29.5165 13.8731 29.5165H14.8282C15.5605 29.5165 16.2665 29.5076 16.9463 29.4899C17.6205 29.4731 18.2933 29.4207 18.9619 29.3328C19.6374 29.2433 20.3061 29.1083 20.9634 28.9288C21.6796 28.7281 22.3755 28.4614 23.0422 28.1321C23.6429 27.8385 24.2063 27.4745 24.7207 27.0478C25.2604 26.6044 25.7515 26.1051 26.1857 25.5582C26.6042 25.0349 26.9539 24.4602 27.2265 23.8483C27.4763 23.3073 27.6098 22.7201 27.6183 22.1244C27.6291 21.0405 27.4523 19.9628 27.0958 18.939" fill="white"/>
<path d="M25.5915 23.809C25.5273 24.1933 25.4218 24.5695 25.2769 24.9312C25.1245 25.3142 24.9269 25.6777 24.6884 26.014C24.446 26.3612 24.1348 26.6548 23.774 26.8767C23.4778 27.0762 23.1509 27.2259 22.8062 27.3199C22.4232 27.4285 22.0345 27.5161 21.6418 27.5822C21.2237 27.6525 20.8014 27.696 20.3777 27.7127C19.9404 27.7295 19.5219 27.7379 19.122 27.7379C18.4937 27.7379 17.7657 27.7248 16.9379 27.6986C16.1101 27.6725 15.199 27.6421 14.2046 27.6075C14.345 27.1558 14.5613 26.5625 14.8577 25.8317C15.1541 25.1009 15.4856 24.3042 15.8522 23.4472C16.2188 22.5901 16.6106 21.684 17.0292 20.7442C17.4478 19.8044 17.8621 18.9025 18.2723 18.0398C18.6824 17.1772 19.0743 16.3819 19.4493 15.6553C19.8243 14.9287 20.1516 14.3326 20.4325 13.8795C21.1952 14.381 21.9049 14.9586 22.5506 15.6034C23.1867 16.236 23.7445 16.9423 24.2122 17.7074C24.6752 18.4683 25.04 19.2846 25.298 20.1368C25.5601 21.0052 25.6922 21.9076 25.6899 22.8145C25.686 23.1517 25.6555 23.4879 25.5986 23.8203L25.5915 23.809ZM27.0958 18.939C26.755 17.9834 26.2869 17.078 25.7039 16.2472C25.1303 15.4306 24.4601 14.686 23.708 14.0296C22.9699 13.3834 22.1875 12.7896 21.3666 12.2524C21.409 12.1536 21.4617 12.0596 21.5239 11.9719C21.6109 11.8414 21.7163 11.6914 21.8385 11.5272C21.9607 11.3631 22.0871 11.1836 22.2177 10.9928C22.3484 10.8021 22.4663 10.6183 22.5703 10.4444C22.8147 10.0788 23.024 9.76081 23.1981 9.49057C23.3425 9.2972 23.4318 9.06843 23.4566 8.8285C23.4626 8.7872 23.4541 8.74509 23.4326 8.70931C23.4111 8.67352 23.3779 8.64625 23.3386 8.63213C23.241 8.60375 23.1396 8.59051 23.038 8.59286C22.8807 8.59286 22.6812 8.7233 22.4368 8.9856C22.1715 9.27256 21.9265 9.57769 21.7037 9.89874C21.4593 10.2485 21.2252 10.6015 21.0014 10.9578L20.4774 11.7853C19.7396 11.3983 18.9584 11.1002 18.1501 10.8974C17.2783 10.6721 16.1546 10.5589 14.7791 10.558C14.4617 10.5646 14.1458 10.6041 13.8366 10.6758C13.4505 10.7595 13.0704 10.8687 12.6989 11.0026C12.3051 11.1426 11.9208 11.308 11.5485 11.4978C11.1953 11.6747 10.8651 11.8943 10.5653 12.1514C9.83305 12.7752 9.33583 13.448 9.07364 14.1699C8.81682 14.8686 8.6842 15.6067 8.68176 16.351C8.68176 16.7176 8.74684 16.9701 8.877 17.1085C8.942 17.1778 9.02118 17.2323 9.10915 17.2684C9.19713 17.3045 9.29184 17.3212 9.38686 17.3175C9.57976 17.3175 9.78061 17.1912 9.98943 16.9388C10.1748 16.7433 10.2856 16.4892 10.3027 16.2206C10.2951 15.9987 10.2298 15.7826 10.113 15.5936C9.98579 15.3816 9.91788 15.1394 9.91639 14.8923C9.91639 14.8404 9.91639 14.7366 9.92903 14.5795C9.94233 14.3973 9.9777 14.2173 10.0344 14.0436C10.1054 13.8183 10.1971 13.5999 10.3083 13.3914C10.4495 13.129 10.6258 12.8869 10.8322 12.6718C11.1949 12.33 11.6341 12.0795 12.1132 11.941C12.6975 11.7606 13.3065 11.6726 13.918 11.6801C14.519 11.6775 15.119 11.7301 15.7103 11.8372C16.2404 11.9311 16.7636 12.0604 17.2764 12.2244C17.7272 12.3701 18.1682 12.5444 18.5967 12.7462C18.9468 12.9104 19.2877 13.0935 19.6178 13.2946C19.4427 13.6088 19.1618 14.153 18.7751 14.9273C18.3884 15.7016 17.9263 16.6549 17.3888 17.7874C16.8485 18.9207 16.2426 20.2093 15.5712 21.6531C14.8999 23.097 14.1901 24.6642 13.4419 26.3549C13.137 27.0581 12.7832 27.7392 12.3828 28.393C12.0598 28.8979 11.8983 29.1939 11.8983 29.2809C11.8983 29.4202 11.9853 29.4987 12.1595 29.5165C12.3337 29.5333 12.5177 29.5418 12.7087 29.5418H12.9447C13.0318 29.5418 13.1497 29.5418 13.2972 29.5291C13.4447 29.5165 13.6385 29.5165 13.8731 29.5165H14.8282C15.5605 29.5165 16.2665 29.5076 16.9463 29.4899C17.6205 29.4731 18.2933 29.4207 18.9619 29.3328C19.6374 29.2433 20.3061 29.1083 20.9634 28.9288C21.6796 28.7281 22.3755 28.4614 23.0422 28.1321C23.6429 27.8385 24.2063 27.4745 24.7207 27.0478C25.2604 26.6044 25.7515 26.1051 26.1857 25.5582C26.6042 25.0349 26.9539 24.4602 27.2265 23.8483C27.4763 23.3073 27.6098 22.7201 27.6183 22.1244C27.6291 21.0405 27.4523 19.9628 27.0958 18.939" fill="url(#paint1_linear)"/>
<path d="M44.2767 31.361L44.0154 30.9402C43.58 31.2357 43.131 31.5364 42.6684 31.8422C42.2059 32.1479 41.7611 32.4219 41.3341 32.6641C40.9462 32.8891 40.5447 33.0896 40.1317 33.2645C39.8316 33.4039 39.5073 33.4839 39.1766 33.5001C38.9154 33.5001 38.7412 33.4314 38.6541 33.2911C38.5635 33.1417 38.5181 32.9692 38.5235 32.7946C38.5462 32.3798 38.6116 31.9686 38.7187 31.5672C38.8489 31.0062 39.0235 30.3792 39.2426 29.6862C39.4618 28.9933 39.6959 28.2621 39.9449 27.4925C40.1978 26.7266 40.4464 25.9907 40.6908 25.2847C40.9352 24.5786 41.1576 23.9432 41.358 23.3784C41.5583 22.8174 41.711 22.3966 41.8158 22.116C41.9732 21.8551 42.1515 21.5143 42.3524 21.0977C42.5533 20.6811 42.7443 20.2477 42.9269 19.8044C43.1095 19.3612 43.2668 18.9418 43.3988 18.5504C43.5061 18.2697 43.5719 17.9748 43.594 17.6752C43.5976 17.4691 43.5802 17.2633 43.5421 17.0608C43.5283 16.9837 43.4853 16.9149 43.422 16.8686C43.3587 16.8224 43.2799 16.8023 43.2022 16.8125C42.9342 16.8128 42.6684 16.8603 42.417 16.9528C42.1558 17.0482 41.8945 17.2712 41.6332 17.6191C41.4674 17.8308 41.3225 18.0582 41.2006 18.298C41.0785 18.5444 40.9697 18.7973 40.8748 19.0554C40.7699 19.3359 40.6561 19.6492 40.5335 19.9952C40.4113 20.3444 40.2722 20.7526 40.1121 21.2239C38.9079 23.0867 37.8264 24.6843 36.8675 26.0169C35.9086 27.3494 35.0804 28.4421 34.3828 29.2949C33.8599 29.9557 33.297 30.5838 32.6973 31.1759C32.2703 31.5761 32.0044 31.7762 31.8995 31.7762C31.8293 31.7762 31.7955 31.7159 31.7955 31.5939C31.8352 31.1197 31.9184 30.6502 32.0442 30.1912C32.208 29.4871 32.4215 28.6646 32.6846 27.7239C32.9478 26.7832 33.2427 25.7798 33.5695 24.7138C33.8917 23.6421 34.2096 22.6191 34.5232 21.6447C34.7676 20.8602 35.012 20.1635 35.2564 19.5547C35.4912 18.9917 35.6157 18.3889 35.623 17.779C35.623 17.5868 35.5697 17.469 35.4657 17.4255C35.2963 17.3732 35.1189 17.3513 34.9418 17.361C34.6289 17.351 34.3199 17.4324 34.0527 17.5952C33.815 17.746 33.6175 17.952 33.4768 18.1956C33.3729 18.3877 33.2942 18.5406 33.2423 18.6528C33.1903 18.765 33.1369 18.8927 33.085 19.0315C33.033 19.1704 32.9712 19.35 32.9024 19.5674C32.8335 19.7848 32.7282 20.0765 32.5877 20.4426C32.3265 20.9831 31.9603 21.6578 31.4893 22.4667C31.0183 23.2756 30.5127 24.1172 29.9724 24.9915C29.4321 25.8621 28.8829 26.707 28.3248 27.5261C27.7667 28.3453 27.2676 29.0317 26.8275 29.5853C26.3219 30.2295 25.8776 30.756 25.4946 31.1647C25.18 31.5081 24.8437 31.8309 24.4875 32.1311C24.2605 32.3269 24.0099 32.4936 23.7417 32.6276C23.5792 32.7103 23.4012 32.7581 23.2192 32.7679C23.0845 32.7748 22.9516 32.7359 22.8421 32.6573C22.7326 32.5788 22.6531 32.4655 22.6166 32.3359C22.5171 32.0731 22.4643 31.7949 22.4607 31.5139V31.1871C22.4612 31.1037 22.4696 31.0206 22.486 30.9388L22.3286 30.9122C21.8774 31.1679 21.4925 31.5259 21.205 31.9572C20.8561 32.4444 20.6725 33.0303 20.6811 33.6292C20.6811 33.7344 20.6909 33.8732 20.7078 34.05C20.7246 34.2213 20.7687 34.389 20.8384 34.5465C20.9092 34.7045 21.0166 34.8434 21.1516 34.9519C21.3273 35.0753 21.5398 35.1351 21.7542 35.1216C22.0723 35.1171 22.3869 35.0549 22.6826 34.9379C23.0818 34.7699 23.4524 34.5408 23.781 34.259C24.2765 33.8462 24.7399 33.3965 25.1673 32.9138C25.6814 32.3527 26.2788 31.6257 26.9596 30.7326C27.1684 30.4521 27.4343 30.0823 27.7574 29.6231C28.0804 29.164 28.4203 28.6674 28.7771 28.1335C29.1339 27.6033 29.4958 27.059 29.8628 26.5008C30.2299 25.9425 30.5656 25.4203 30.8699 24.934L31.6537 23.68C31.8719 23.3321 32.0161 23.0984 32.0863 22.9787L32.2169 23.032L31.7955 24.6773C31.5858 25.5133 31.3372 26.4405 31.0497 27.4588C30.7622 28.4771 30.4874 29.4525 30.2252 30.3848C29.964 31.3199 29.7463 32.1381 29.5721 32.8395C29.3979 33.5408 29.3108 33.9981 29.3108 34.2113C29.3018 34.3845 29.3281 34.5577 29.3881 34.7204C29.4415 34.8341 29.5805 34.8902 29.8095 34.8902C29.9877 34.8682 30.1559 34.7957 30.294 34.6812C30.514 34.5256 30.7199 34.351 30.9093 34.1594C31.1171 33.9499 31.3259 33.732 31.5357 33.5057C31.7454 33.2794 31.9201 33.0877 32.0596 32.9306C33.8547 30.8593 35.3061 29.1294 36.4138 27.7407C37.5216 26.3521 38.4069 25.23 39.0699 24.3743L39.1738 24.401C38.6326 26.0206 38.1443 27.5093 37.7088 28.8671C37.5216 29.4422 37.3385 30.0215 37.1596 30.605C36.9808 31.1885 36.8282 31.7281 36.7018 32.2237C36.5707 32.7202 36.462 33.1513 36.3759 33.5169C36.3049 33.7731 36.2607 34.0358 36.2439 34.301C36.2481 34.5333 36.2927 34.763 36.3759 34.9799C36.463 35.224 36.7158 35.346 37.1344 35.346C37.3103 35.3413 37.4853 35.3192 37.6569 35.2801C37.9179 35.2191 38.1721 35.1317 38.4153 35.0192C38.7122 34.8892 39.0699 34.7148 39.4885 34.496C39.907 34.2772 40.3949 33.9859 40.952 33.6221C41.3537 33.3594 41.7114 33.1284 42.0251 32.9292L42.8875 32.3808C43.1502 32.2153 43.3932 32.054 43.6207 31.8969C43.8504 31.7384 44.0686 31.564 44.2739 31.3751" fill="white"/>
<path d="M44.2767 31.361L44.0154 30.9402C43.58 31.2357 43.131 31.5364 42.6684 31.8422C42.2059 32.1479 41.7611 32.4219 41.3341 32.6641C40.9462 32.8891 40.5447 33.0896 40.1317 33.2645C39.8316 33.4039 39.5073 33.4839 39.1766 33.5001C38.9154 33.5001 38.7412 33.4314 38.6541 33.2911C38.5635 33.1417 38.5181 32.9692 38.5235 32.7946C38.5462 32.3798 38.6116 31.9686 38.7187 31.5672C38.8489 31.0062 39.0235 30.3792 39.2426 29.6862C39.4618 28.9933 39.6959 28.2621 39.9449 27.4925C40.1978 26.7266 40.4464 25.9907 40.6908 25.2847C40.9352 24.5786 41.1576 23.9432 41.358 23.3784C41.5583 22.8174 41.711 22.3966 41.8158 22.116C41.9732 21.8551 42.1515 21.5143 42.3524 21.0977C42.5533 20.6811 42.7443 20.2477 42.9269 19.8044C43.1095 19.3612 43.2668 18.9418 43.3988 18.5504C43.5061 18.2697 43.5719 17.9748 43.594 17.6752C43.5976 17.4691 43.5802 17.2633 43.5421 17.0608C43.5283 16.9837 43.4853 16.9149 43.422 16.8686C43.3587 16.8224 43.2799 16.8023 43.2022 16.8125C42.9342 16.8128 42.6684 16.8603 42.417 16.9528C42.1558 17.0482 41.8945 17.2712 41.6332 17.6191C41.4674 17.8308 41.3225 18.0582 41.2006 18.298C41.0785 18.5444 40.9697 18.7973 40.8748 19.0554C40.7699 19.3359 40.6561 19.6492 40.5335 19.9952C40.4113 20.3444 40.2722 20.7526 40.1121 21.2239C38.9079 23.0867 37.8264 24.6843 36.8675 26.0169C35.9086 27.3494 35.0804 28.4421 34.3828 29.2949C33.8599 29.9557 33.297 30.5838 32.6973 31.1759C32.2703 31.5761 32.0044 31.7762 31.8995 31.7762C31.8293 31.7762 31.7955 31.7159 31.7955 31.5939C31.8352 31.1197 31.9184 30.6502 32.0442 30.1912C32.208 29.4871 32.4215 28.6646 32.6846 27.7239C32.9478 26.7832 33.2427 25.7798 33.5695 24.7138C33.8917 23.6421 34.2096 22.6191 34.5232 21.6447C34.7676 20.8602 35.012 20.1635 35.2564 19.5547C35.4912 18.9917 35.6157 18.3889 35.623 17.779C35.623 17.5868 35.5697 17.469 35.4657 17.4255C35.2963 17.3732 35.1189 17.3513 34.9418 17.361C34.6289 17.351 34.3199 17.4324 34.0527 17.5952C33.815 17.746 33.6175 17.952 33.4768 18.1956C33.3729 18.3877 33.2942 18.5406 33.2423 18.6528C33.1903 18.765 33.1369 18.8927 33.085 19.0315C33.033 19.1704 32.9712 19.35 32.9024 19.5674C32.8335 19.7848 32.7282 20.0765 32.5877 20.4426C32.3265 20.9831 31.9603 21.6578 31.4893 22.4667C31.0183 23.2756 30.5127 24.1172 29.9724 24.9915C29.4321 25.8621 28.8829 26.707 28.3248 27.5261C27.7667 28.3453 27.2676 29.0317 26.8275 29.5853C26.3219 30.2295 25.8776 30.756 25.4946 31.1647C25.18 31.5081 24.8437 31.8309 24.4875 32.1311C24.2605 32.3269 24.0099 32.4936 23.7417 32.6276C23.5792 32.7103 23.4012 32.7581 23.2192 32.7679C23.0845 32.7748 22.9516 32.7359 22.8421 32.6573C22.7326 32.5788 22.6531 32.4655 22.6166 32.3359C22.5171 32.0731 22.4643 31.7949 22.4607 31.5139V31.1871C22.4612 31.1037 22.4696 31.0206 22.486 30.9388L22.3286 30.9122C21.8774 31.1679 21.4925 31.5259 21.205 31.9572C20.8561 32.4444 20.6725 33.0303 20.6811 33.6292C20.6811 33.7344 20.6909 33.8732 20.7078 34.05C20.7246 34.2213 20.7687 34.389 20.8384 34.5465C20.9092 34.7045 21.0166 34.8434 21.1516 34.9519C21.3273 35.0753 21.5398 35.1351 21.7542 35.1216C22.0723 35.1171 22.3869 35.0549 22.6826 34.9379C23.0818 34.7699 23.4524 34.5408 23.781 34.259C24.2765 33.8462 24.7399 33.3965 25.1673 32.9138C25.6814 32.3527 26.2788 31.6257 26.9596 30.7326C27.1684 30.4521 27.4343 30.0823 27.7574 29.6231C28.0804 29.164 28.4203 28.6674 28.7771 28.1335C29.1339 27.6033 29.4958 27.059 29.8628 26.5008C30.2299 25.9425 30.5656 25.4203 30.8699 24.934L31.6537 23.68C31.8719 23.3321 32.0161 23.0984 32.0863 22.9787L32.2169 23.032L31.7955 24.6773C31.5858 25.5133 31.3372 26.4405 31.0497 27.4588C30.7622 28.4771 30.4874 29.4525 30.2252 30.3848C29.964 31.3199 29.7463 32.1381 29.5721 32.8395C29.3979 33.5408 29.3108 33.9981 29.3108 34.2113C29.3018 34.3845 29.3281 34.5577 29.3881 34.7204C29.4415 34.8341 29.5805 34.8902 29.8095 34.8902C29.9877 34.8682 30.1559 34.7957 30.294 34.6812C30.514 34.5256 30.7199 34.351 30.9093 34.1594C31.1171 33.9499 31.3259 33.732 31.5357 33.5057C31.7454 33.2794 31.9201 33.0877 32.0596 32.9306C33.8547 30.8593 35.3061 29.1294 36.4138 27.7407C37.5216 26.3521 38.4069 25.23 39.0699 24.3743L39.1738 24.401C38.6326 26.0206 38.1443 27.5093 37.7088 28.8671C37.5216 29.4422 37.3385 30.0215 37.1596 30.605C36.9808 31.1885 36.8282 31.7281 36.7018 32.2237C36.5707 32.7202 36.462 33.1513 36.3759 33.5169C36.3049 33.7731 36.2607 34.0358 36.2439 34.301C36.2481 34.5333 36.2927 34.763 36.3759 34.9799C36.463 35.224 36.7158 35.346 37.1344 35.346C37.3103 35.3413 37.4853 35.3192 37.6569 35.2801C37.9179 35.2191 38.1721 35.1317 38.4153 35.0192C38.7122 34.8892 39.0699 34.7148 39.4885 34.496C39.907 34.2772 40.3949 33.9859 40.952 33.6221C41.3537 33.3594 41.7114 33.1284 42.0251 32.9292L42.8875 32.3808C43.1502 32.2153 43.3932 32.054 43.6207 31.8969C43.8504 31.7384 44.0686 31.564 44.2739 31.3751" fill="url(#paint2_linear)"/>
</g>
<path d="M73.96 15.76C73.96 16.1867 73.86 16.6267 73.66 17.08C73.46 17.5333 73.1933 17.9733 72.86 18.4C72.5267 18.8133 72.1533 19.1933 71.74 19.54C71.3267 19.8733 70.9 20.1467 70.46 20.36C69.9133 20.6267 69.38 20.8333 68.86 20.98C68.3533 21.1133 67.8467 21.2133 67.34 21.28C66.8333 21.3467 66.32 21.3867 65.8 21.4C65.28 21.4133 64.74 21.42 64.18 21.42C63.8733 21.42 63.6267 21.42 63.44 21.42C63.2667 21.42 63.12 21.42 63 21.42C62.8933 21.4333 62.8067 21.44 62.74 21.44C62.6733 21.44 62.6133 21.44 62.56 21.44C62.4133 21.44 62.2733 21.4333 62.14 21.42C62.0067 21.4067 61.94 21.3467 61.94 21.24C61.94 21.1733 62.06 20.9467 62.3 20.56C62.5533 20.1733 62.8267 19.6533 63.12 19C63.6933 17.7067 64.2333 16.5067 64.74 15.4C65.26 14.2933 65.7267 13.3067 66.14 12.44C66.5533 11.5733 66.9067 10.8467 67.2 10.26C67.4933 9.66 67.7067 9.24 67.84 9C67.6267 8.86667 67.3667 8.72667 67.06 8.58C66.7533 8.43333 66.4133 8.3 66.04 8.18C65.68 8.06 65.28 7.96 64.84 7.88C64.4133 7.8 63.96 7.76 63.48 7.76C62.9733 7.76 62.5133 7.82667 62.1 7.96C61.6867 8.09333 61.36 8.28 61.12 8.52C60.9467 8.70667 60.8133 8.89333 60.72 9.08C60.6267 9.25333 60.5533 9.42 60.5 9.58C60.46 9.72667 60.4333 9.86 60.42 9.98C60.42 10.1 60.42 10.18 60.42 10.22C60.42 10.4067 60.4667 10.5867 60.56 10.76C60.6667 10.9333 60.72 11.0933 60.72 11.24C60.72 11.4133 60.64 11.6 60.48 11.8C60.32 11.9867 60.1667 12.08 60.02 12.08C59.86 12.08 59.7267 12.0267 59.62 11.92C59.5267 11.8133 59.48 11.62 59.48 11.34C59.48 10.78 59.58 10.2267 59.78 9.68C59.98 9.12 60.36 8.6 60.92 8.12C61.1333 7.93333 61.38 7.76667 61.66 7.62C61.9533 7.47333 62.2467 7.34667 62.54 7.24C62.8467 7.13333 63.14 7.05333 63.42 7C63.7 6.93333 63.94 6.9 64.14 6.9C65.1933 6.9 66.0533 6.98667 66.72 7.16C67.3867 7.33333 67.98 7.56 68.5 7.84C68.5933 7.69333 68.7267 7.48667 68.9 7.22C69.0733 6.94 69.2533 6.66667 69.44 6.4C69.6267 6.13333 69.8133 5.9 70 5.7C70.1867 5.5 70.34 5.4 70.46 5.4C70.5267 5.4 70.5933 5.40667 70.66 5.42C70.74 5.42 70.78 5.47333 70.78 5.58C70.78 5.71333 70.7133 5.88667 70.58 6.1C70.4467 6.3 70.2867 6.54 70.1 6.82C70.02 6.95333 69.9267 7.09333 69.82 7.24C69.7267 7.38667 69.6333 7.52667 69.54 7.66C69.4467 7.78 69.3667 7.89333 69.3 8C69.2333 8.09333 69.1933 8.16 69.18 8.2C69.7933 8.6 70.3867 9.05333 70.96 9.56C71.5467 10.0667 72.06 10.6333 72.5 11.26C72.94 11.8867 73.2933 12.5733 73.56 13.32C73.8267 14.0667 73.96 14.88 73.96 15.76ZM72.48 16.28C72.48 15.5733 72.38 14.8933 72.18 14.24C71.98 13.5733 71.7 12.9533 71.34 12.38C70.9933 11.7933 70.5733 11.2533 70.08 10.76C69.5867 10.2667 69.0467 9.82667 68.46 9.44C68.2467 9.78667 67.9933 10.24 67.7 10.8C67.42 11.36 67.12 11.9733 66.8 12.64C66.4933 13.2933 66.18 13.98 65.86 14.7C65.54 15.42 65.24 16.1133 64.96 16.78C64.68 17.4333 64.4267 18.04 64.2 18.6C63.9733 19.16 63.8067 19.6133 63.7 19.96C63.8333 19.9733 63.9933 19.9867 64.18 20C64.34 20.0133 64.5467 20.02 64.8 20.02C65.0533 20.02 65.3667 20.02 65.74 20.02C66.02 20.02 66.3867 20.0267 66.84 20.04C67.3067 20.0533 67.7933 20.0533 68.3 20.04C68.8067 20.0133 69.3 19.9533 69.78 19.86C70.2733 19.7667 70.6867 19.6133 71.02 19.4C71.3 19.2267 71.5333 19.0067 71.72 18.74C71.9067 18.4733 72.0533 18.2 72.16 17.92C72.28 17.6267 72.36 17.34 72.4 17.06C72.4533 16.7667 72.48 16.5067 72.48 16.28ZM81.5409 18.92C81.5409 18.9733 81.3676 19.1267 81.0209 19.38C80.6743 19.6333 80.2209 19.9067 79.6609 20.2C79.1143 20.48 78.5009 20.7333 77.8209 20.96C77.1409 21.1867 76.4676 21.3 75.8009 21.3C74.9609 21.3 74.3276 21.1 73.9009 20.7C73.4876 20.3 73.2809 19.6667 73.2809 18.8C73.2809 18.24 73.4343 17.5533 73.7409 16.74C74.0609 15.9267 74.5676 15.1067 75.2609 14.28C75.6609 13.8 76.0676 13.3867 76.4809 13.04C76.9076 12.6933 77.3143 12.4133 77.7009 12.2C78.0876 11.9867 78.4476 11.8333 78.7809 11.74C79.1276 11.6333 79.4209 11.58 79.6609 11.58C80.0476 11.58 80.3143 11.6333 80.4609 11.74C80.6076 11.8333 80.6809 12.0067 80.6809 12.26C80.6809 12.58 80.4543 13 80.0009 13.52C79.5609 14.0267 78.9876 14.6133 78.2809 15.28C78.0009 15.5467 77.6743 15.8467 77.3009 16.18C76.9409 16.5133 76.6009 16.8333 76.2809 17.14C75.8943 17.4867 75.5076 17.84 75.1209 18.2C75.0676 19.04 75.2076 19.62 75.5409 19.94C75.8743 20.2467 76.3476 20.4 76.9609 20.4C77.4809 20.4 78.0076 20.3067 78.5409 20.12C79.0743 19.92 79.5543 19.7067 79.9809 19.48C80.4876 19.2133 80.9743 18.9 81.4409 18.54C81.4943 18.62 81.5276 18.68 81.5409 18.72C81.5543 18.76 81.5543 18.8267 81.5409 18.92ZM78.9809 13.16C78.9809 12.9467 78.9209 12.8133 78.8009 12.76C78.6809 12.7067 78.5476 12.68 78.4009 12.68C78.1476 12.68 77.8276 12.78 77.4409 12.98C77.0676 13.18 76.7143 13.4933 76.3809 13.92C76.2343 14.1067 76.0876 14.3333 75.9409 14.6C75.7943 14.8667 75.6543 15.16 75.5209 15.48C75.4009 15.8 75.2943 16.14 75.2009 16.5C75.1209 16.8467 75.0743 17.1933 75.0609 17.54C75.3276 17.3133 75.6009 17.08 75.8809 16.84C76.1209 16.6267 76.3809 16.3933 76.6609 16.14C76.9409 15.8867 77.2076 15.6267 77.4609 15.36C77.9009 14.9067 78.2609 14.5 78.5409 14.14C78.8343 13.78 78.9809 13.4533 78.9809 13.16ZM91.6092 18.72C91.3826 18.9067 91.0492 19.1467 90.6092 19.44C90.1826 19.7333 89.6892 20.0267 89.1292 20.32C88.4092 20.6933 87.8092 20.98 87.3292 21.18C86.8492 21.38 86.5092 21.48 86.3092 21.48C86.1359 21.48 86.0292 21.4333 85.9892 21.34C85.9492 21.2467 85.9292 21.1467 85.9292 21.04C85.9292 20.9333 85.9559 20.76 86.0092 20.52C86.0626 20.28 86.1292 20.0067 86.2092 19.7C86.3026 19.3933 86.3959 19.0667 86.4892 18.72C86.5959 18.3733 86.6959 18.04 86.7892 17.72C86.8159 17.6267 86.8492 17.5067 86.8892 17.36C86.9426 17.2 86.9959 17.0467 87.0492 16.9L87.2292 16.36C87.0559 16.4933 86.8492 16.6267 86.6092 16.76C86.3959 16.8667 86.1292 16.9933 85.8092 17.14C85.5026 17.2733 85.1292 17.4 84.6892 17.52C84.5292 17.5733 84.3759 17.6133 84.2292 17.64C84.0826 17.6533 83.9559 17.6733 83.8492 17.7C83.7159 17.7267 83.5959 17.74 83.4892 17.74C83.4626 17.9 83.4159 18.1133 83.3492 18.38C83.2826 18.6467 83.2026 18.92 83.1092 19.2C83.0159 19.48 82.9092 19.7467 82.7892 20C82.6826 20.2533 82.5626 20.4467 82.4292 20.58C82.2026 20.8067 82.0026 20.9533 81.8292 21.02C81.6692 21.0867 81.5092 21.12 81.3492 21.12C81.1226 21.12 80.9892 21.08 80.9492 21C80.8959 20.92 80.8692 20.7933 80.8692 20.62C80.8692 20.5533 80.8959 20.4467 80.9492 20.3C80.9892 20.14 81.0359 19.9733 81.0892 19.8C81.1559 19.6133 81.2226 19.4267 81.2892 19.24C81.3559 19.04 81.4092 18.8667 81.4492 18.72L81.7892 17.66C81.6959 17.5533 81.6426 17.4867 81.6292 17.46C81.6159 17.42 81.6092 17.3133 81.6092 17.14C81.6092 16.9933 81.6759 16.8667 81.8092 16.76C81.9559 16.6533 82.1426 16.5867 82.3692 16.56L82.5492 16.12C82.6692 15.84 82.7826 15.5533 82.8892 15.26C82.9959 14.9533 83.0959 14.6667 83.1892 14.4C83.2959 14.12 83.3892 13.8733 83.4692 13.66C83.5626 13.4333 83.6492 13.2533 83.7292 13.12C83.9559 12.7333 84.2159 12.4733 84.5092 12.34C84.8159 12.2067 85.0626 12.14 85.2492 12.14C85.3426 12.14 85.3892 12.2133 85.3892 12.36C85.3892 12.4 85.3692 12.48 85.3292 12.6C85.2892 12.7067 85.2359 12.84 85.1692 13C85.1026 13.1467 85.0292 13.3133 84.9492 13.5C84.8826 13.6733 84.8226 13.84 84.7692 14C84.6626 14.2933 84.5492 14.6 84.4292 14.92C84.3226 15.24 84.2226 15.54 84.1292 15.82C84.0226 16.1533 83.9159 16.48 83.8092 16.8H84.1092C84.3092 16.8 84.5492 16.78 84.8292 16.74C85.6292 16.6333 86.2359 16.4733 86.6492 16.26C87.0759 16.0333 87.3292 15.86 87.4092 15.74C87.4892 15.54 87.5426 15.3933 87.5692 15.3C87.6092 15.2067 87.6692 15.04 87.7492 14.8C87.8959 14.3467 88.0359 13.94 88.1692 13.58C88.3026 13.2067 88.5026 12.88 88.7692 12.6C88.9159 12.4533 89.0292 12.36 89.1092 12.32C89.1892 12.2667 89.3092 12.2 89.4692 12.12C89.5759 12.0667 89.6759 12.0333 89.7692 12.02C89.8626 12.0067 89.9426 12 90.0092 12C90.1026 12 90.1759 12.0267 90.2292 12.08C90.2959 12.12 90.3292 12.2133 90.3292 12.36C90.3292 12.72 90.1959 13.18 89.9292 13.74C89.6626 14.2867 89.3026 14.88 88.8492 15.52C88.6892 15.96 88.5359 16.4 88.3892 16.84C88.2559 17.28 88.1292 17.6867 88.0092 18.06C87.9026 18.4333 87.8159 18.7667 87.7492 19.06C87.6959 19.3533 87.6692 19.5733 87.6692 19.72C87.6692 19.8133 87.6759 19.9133 87.6892 20.02C87.7026 20.1133 87.7692 20.16 87.8892 20.16C88.1292 20.16 88.3892 20.1133 88.6692 20.02C88.9492 19.9133 89.2426 19.78 89.5492 19.62C89.8559 19.46 90.1692 19.28 90.4892 19.08C90.8092 18.88 91.1226 18.68 91.4292 18.48L91.6092 18.72ZM105.592 9.16C105.298 9.34667 104.905 9.54667 104.412 9.76C103.918 9.97333 103.332 10.1733 102.652 10.36C101.985 10.5467 101.245 10.7 100.432 10.82C99.6182 10.94 98.7449 11 97.8116 11C97.3849 11 96.9916 10.9467 96.6316 10.84C96.2716 10.7333 96.0249 10.6467 95.8916 10.58C96.1316 10.22 96.3849 9.93333 96.6516 9.72C96.8782 9.82667 97.2649 9.92 97.8116 10C98.3716 10.08 99.0516 10.12 99.8516 10.12C100.705 10.12 101.445 10.08 102.072 10C102.698 9.90667 103.238 9.8 103.692 9.68C104.145 9.56 104.512 9.44667 104.792 9.34C105.085 9.22 105.312 9.13333 105.472 9.08L105.592 9.16ZM104.972 18.54C104.638 18.7667 104.325 18.98 104.032 19.18C103.778 19.3533 103.518 19.5267 103.252 19.7C102.985 19.8733 102.772 20.0133 102.612 20.12C101.932 20.56 101.352 20.8933 100.872 21.12C100.405 21.3467 100.072 21.46 99.8716 21.46C99.7116 21.46 99.6116 21.4 99.5716 21.28C99.5449 21.16 99.5316 21.0333 99.5316 20.9C99.5316 20.8333 99.5582 20.7 99.6116 20.5C99.6649 20.2867 99.7382 20.0333 99.8316 19.74C99.9249 19.4467 100.025 19.1267 100.132 18.78C100.238 18.4333 100.352 18.08 100.472 17.72C100.592 17.3467 100.705 16.98 100.812 16.62C100.932 16.2467 101.032 15.9067 101.112 15.6C101.205 15.2933 101.278 15.0267 101.332 14.8C101.398 14.56 101.438 14.3733 101.452 14.24C101.452 14.1733 101.458 14.1133 101.472 14.06C101.485 13.9933 101.452 13.96 101.372 13.96C101.292 13.96 101.145 14.0333 100.932 14.18C100.732 14.3267 100.558 14.4733 100.412 14.62C100.172 14.86 99.8649 15.1867 99.4916 15.6C99.1316 16 98.7182 16.52 98.2516 17.16C98.1182 17.3467 97.9649 17.5733 97.7916 17.84C97.6316 18.1067 97.4782 18.3667 97.3316 18.62C97.1849 18.8733 97.0582 19.1 96.9516 19.3C96.8449 19.4867 96.7782 19.5933 96.7516 19.62C96.6849 19.6867 96.5849 19.7733 96.4516 19.88C96.3316 19.9867 96.1982 20.0933 96.0516 20.2C95.9049 20.3067 95.7582 20.4 95.6116 20.48C95.4649 20.56 95.3316 20.6 95.2116 20.6C95.1582 20.6 95.1316 20.5733 95.1316 20.52C95.1316 20.4667 95.1382 20.4133 95.1516 20.36C95.1649 20.2933 95.1849 20.2067 95.2116 20.1C95.2382 19.9933 95.2782 19.8533 95.3316 19.68C95.3982 19.5067 95.4782 19.2867 95.5716 19.02L96.8316 15.42C97.0716 14.7267 97.2049 14.2533 97.2316 14C97.2316 13.8933 97.1982 13.8333 97.1316 13.82C96.9049 13.82 96.3582 14.2667 95.4916 15.16C95.1049 15.5467 94.7449 15.9733 94.4116 16.44C94.0782 16.8933 93.7716 17.3467 93.4916 17.8C93.2116 18.2533 92.9582 18.6867 92.7316 19.1C92.5182 19.5133 92.3449 19.8667 92.2116 20.16C92.1582 20.2267 92.0782 20.3067 91.9716 20.4C91.8782 20.48 91.7716 20.56 91.6516 20.64C91.5316 20.72 91.4049 20.7867 91.2716 20.84C91.1516 20.8933 91.0316 20.92 90.9116 20.92C90.8182 20.92 90.7582 20.8933 90.7316 20.84C90.7049 20.7733 90.6916 20.7 90.6916 20.62C90.6916 20.5667 90.7049 20.4867 90.7316 20.38C90.7582 20.2733 90.7982 20.1533 90.8516 20.02C90.8916 19.8733 90.9382 19.7267 90.9916 19.58C91.0449 19.42 91.0982 19.2733 91.1516 19.14C91.2849 18.78 91.4049 18.4533 91.5116 18.16C91.6182 17.8667 91.7116 17.5933 91.7916 17.34C91.8716 17.0733 91.9449 16.82 92.0116 16.58C92.0916 16.3267 92.1716 16.0667 92.2516 15.8C92.2916 15.6533 92.3382 15.4667 92.3916 15.24C92.4582 15.0133 92.5249 14.7867 92.5916 14.56C92.6716 14.32 92.7449 14.1 92.8116 13.9C92.8782 13.6867 92.9382 13.52 92.9916 13.4C93.0716 13.2 93.1849 13.0267 93.3316 12.88C93.4916 12.72 93.6582 12.5867 93.8316 12.48C94.0049 12.36 94.1716 12.2733 94.3316 12.22C94.4916 12.1667 94.6182 12.14 94.7116 12.14C94.8049 12.14 94.8516 12.2133 94.8516 12.36C94.8382 12.4667 94.7849 12.6667 94.6916 12.96C94.6116 13.2533 94.5249 13.54 94.4316 13.82C94.3116 14.1933 94.1782 14.5933 94.0316 15.02C93.8849 15.4467 93.7382 15.8467 93.5916 16.22C93.4316 16.66 93.2649 17.0933 93.0916 17.52L93.1716 17.58C93.3049 17.3533 93.4716 17.1 93.6716 16.82C93.8849 16.5267 94.1049 16.2333 94.3316 15.94C94.5716 15.6333 94.8116 15.34 95.0516 15.06C95.3049 14.78 95.5449 14.5333 95.7716 14.32C96.4516 13.68 97.0449 13.16 97.5516 12.76C98.0582 12.36 98.4649 12.1667 98.7716 12.18C98.8649 12.18 98.9382 12.2067 98.9916 12.26C99.0582 12.3133 99.0916 12.4133 99.0916 12.56C99.0916 12.7067 99.0316 12.9733 98.9116 13.36C98.8049 13.7467 98.6782 14.16 98.5316 14.6C98.3849 15.04 98.2382 15.4733 98.0916 15.9C97.9449 16.3133 97.8316 16.6333 97.7516 16.86H97.8116C98.5316 16.0067 99.1782 15.2933 99.7516 14.72C100.338 14.1333 100.852 13.6733 101.292 13.34C101.732 12.9933 102.098 12.7467 102.392 12.6C102.698 12.4533 102.932 12.38 103.092 12.38C103.185 12.38 103.245 12.42 103.272 12.5C103.312 12.5667 103.332 12.6533 103.332 12.76C103.332 12.88 103.298 13.0667 103.232 13.32C103.178 13.56 103.098 13.8533 102.992 14.2C102.898 14.5467 102.785 14.9267 102.652 15.34C102.532 15.7533 102.405 16.18 102.272 16.62C102.232 16.78 102.158 17.0133 102.052 17.32C101.945 17.6267 101.838 17.9467 101.732 18.28C101.638 18.6 101.552 18.9 101.472 19.18C101.392 19.46 101.352 19.64 101.352 19.72C101.352 19.8133 101.358 19.8867 101.372 19.94C101.385 19.9933 101.438 20.02 101.532 20.02C101.678 20.02 101.872 19.9667 102.112 19.86C102.365 19.7533 102.632 19.62 102.912 19.46C103.205 19.3 103.512 19.12 103.832 18.92C104.165 18.7067 104.485 18.5 104.792 18.3L104.972 18.54ZM121.77 18.28C121.584 18.4133 121.404 18.5467 121.23 18.68C121.07 18.8 120.897 18.9267 120.71 19.06C120.524 19.1933 120.31 19.34 120.07 19.5C119.83 19.6467 119.55 19.8133 119.23 20C118.79 20.2667 118.41 20.4867 118.09 20.66C117.77 20.82 117.49 20.9467 117.25 21.04C117.024 21.1467 116.837 21.22 116.69 21.26C116.544 21.3 116.417 21.32 116.31 21.32C115.99 21.32 115.797 21.2267 115.73 21.04C115.664 20.8533 115.63 20.68 115.63 20.52C115.63 20.4 115.664 20.2 115.73 19.92C115.797 19.64 115.877 19.3133 115.97 18.94C116.077 18.5533 116.197 18.14 116.33 17.7C116.464 17.2467 116.604 16.8 116.75 16.36C117.084 15.32 117.457 14.18 117.87 12.94L117.79 12.92C117.27 13.6 116.59 14.4667 115.75 15.52C114.91 16.5733 113.804 17.8933 112.43 19.48C112.324 19.6 112.19 19.7467 112.03 19.92C111.87 20.0933 111.71 20.26 111.55 20.42C111.39 20.58 111.23 20.7133 111.07 20.82C110.924 20.9267 110.804 20.98 110.71 20.98C110.537 20.98 110.43 20.94 110.39 20.86C110.35 20.7667 110.33 20.6333 110.33 20.46C110.33 20.3 110.397 19.9533 110.53 19.42C110.664 18.8733 110.83 18.2467 111.03 17.54C111.23 16.82 111.437 16.0733 111.65 15.3C111.877 14.5133 112.07 13.8 112.23 13.16L112.55 11.9L112.45 11.86C112.397 11.9533 112.284 12.1333 112.11 12.4C111.95 12.6667 111.75 12.9867 111.51 13.36C111.284 13.7333 111.03 14.1333 110.75 14.56C110.47 14.9867 110.19 15.4067 109.91 15.82C109.644 16.22 109.384 16.6 109.13 16.96C108.89 17.3067 108.69 17.5867 108.53 17.8C108.01 18.48 107.55 19.04 107.15 19.48C106.764 19.9067 106.41 20.2467 106.09 20.5C105.784 20.7533 105.504 20.9267 105.25 21.02C105.01 21.1133 104.777 21.16 104.55 21.16C104.35 21.16 104.197 21.1133 104.09 21.02C103.984 20.94 103.904 20.84 103.85 20.72C103.797 20.6 103.764 20.4733 103.75 20.34C103.737 20.2067 103.73 20.1 103.73 20.02C103.73 19.54 103.864 19.1133 104.13 18.74C104.397 18.3667 104.684 18.1 104.99 17.94L105.11 17.96C105.097 18.1067 105.09 18.26 105.09 18.42C105.104 18.58 105.13 18.7333 105.17 18.88C105.21 19.0133 105.264 19.1267 105.33 19.22C105.41 19.3133 105.524 19.36 105.67 19.36C105.777 19.36 105.91 19.3267 106.07 19.26C106.23 19.18 106.417 19.0533 106.63 18.88C106.857 18.6933 107.117 18.4467 107.41 18.14C107.704 17.82 108.044 17.4133 108.43 16.92C108.764 16.4933 109.144 15.9667 109.57 15.34C109.997 14.7133 110.417 14.0667 110.83 13.4C111.244 12.7333 111.63 12.0933 111.99 11.48C112.35 10.8533 112.63 10.3333 112.83 9.92C112.937 9.64 113.017 9.42 113.07 9.26C113.124 9.08667 113.17 8.94667 113.21 8.84C113.25 8.73333 113.29 8.64 113.33 8.56C113.37 8.46667 113.43 8.34667 113.51 8.2C113.617 8.01333 113.764 7.86 113.95 7.74C114.137 7.62 114.31 7.56 114.47 7.56C114.697 7.56 114.864 7.56667 114.97 7.58C115.09 7.59333 115.15 7.69333 115.15 7.88C115.15 8.32 115.057 8.77333 114.87 9.24C114.684 9.70667 114.497 10.24 114.31 10.84C114.11 11.4667 113.904 12.14 113.69 12.86C113.477 13.58 113.277 14.2667 113.09 14.92C112.917 15.56 112.764 16.1267 112.63 16.62C112.51 17.1133 112.43 17.4467 112.39 17.62C112.377 17.66 112.357 17.7333 112.33 17.84C112.304 17.9467 112.277 18.06 112.25 18.18C112.237 18.2867 112.23 18.3867 112.23 18.48C112.23 18.56 112.25 18.6 112.29 18.6C112.33 18.6 112.47 18.48 112.71 18.24C112.964 17.9867 113.27 17.6533 113.63 17.24C113.99 16.8133 114.39 16.3267 114.83 15.78C115.284 15.2333 115.737 14.66 116.19 14.06C116.644 13.46 117.077 12.86 117.49 12.26C117.917 11.6467 118.284 11.0667 118.59 10.52C118.71 10.16 118.817 9.84667 118.91 9.58C119.004 9.31333 119.09 9.07333 119.17 8.86C119.25 8.64667 119.33 8.45333 119.41 8.28C119.504 8.10667 119.617 7.93333 119.75 7.76C119.95 7.49333 120.15 7.32667 120.35 7.26C120.55 7.18 120.75 7.14 120.95 7.14C121.097 7.14 121.184 7.20667 121.21 7.34C121.237 7.46 121.25 7.61333 121.25 7.8C121.25 7.94667 121.197 8.17333 121.09 8.48C120.997 8.77333 120.877 9.09333 120.73 9.44C120.597 9.77333 120.45 10.1 120.29 10.42C120.144 10.74 120.01 11 119.89 11.2C119.81 11.4133 119.69 11.7533 119.53 12.22C119.384 12.6733 119.217 13.18 119.03 13.74C118.844 14.3 118.65 14.88 118.45 15.48C118.264 16.08 118.084 16.64 117.91 17.16C117.75 17.6667 117.617 18.1 117.51 18.46C117.417 18.82 117.37 19.0333 117.37 19.1C117.37 19.18 117.357 19.2733 117.33 19.38C117.317 19.4733 117.317 19.56 117.33 19.64C117.344 19.72 117.384 19.7867 117.45 19.84C117.53 19.8933 117.67 19.92 117.87 19.92C118.07 19.92 118.31 19.86 118.59 19.74C118.884 19.62 119.19 19.4667 119.51 19.28C119.844 19.0933 120.184 18.8867 120.53 18.66C120.89 18.42 121.237 18.1867 121.57 17.96L121.77 18.28ZM131.137 18.54C130.831 18.82 130.444 19.14 129.977 19.5C129.524 19.8467 129.057 20.18 128.577 20.5C128.097 20.82 127.644 21.0867 127.217 21.3C126.791 21.5267 126.451 21.64 126.197 21.64C125.997 21.64 125.844 21.5533 125.737 21.38C125.631 21.22 125.577 21.0133 125.577 20.76C125.577 20.6267 125.584 20.4667 125.597 20.28C125.624 20.0933 125.651 19.9133 125.677 19.74C125.704 19.5533 125.731 19.38 125.757 19.22C125.797 19.0467 125.831 18.9067 125.857 18.8H125.777C125.177 19.5467 124.537 20.14 123.857 20.58C123.191 21.0067 122.584 21.22 122.037 21.22C121.531 21.22 121.197 21.06 121.037 20.74C120.877 20.42 120.797 19.9867 120.797 19.44C120.797 19.08 120.851 18.68 120.957 18.24C121.064 17.7867 121.217 17.3333 121.417 16.88C121.617 16.4267 121.857 15.9867 122.137 15.56C122.417 15.1333 122.737 14.7467 123.097 14.4C123.964 13.5733 124.784 13.0067 125.557 12.7C126.331 12.38 127.084 12.22 127.817 12.22C127.951 12.22 128.117 12.24 128.317 12.28C128.517 12.3067 128.711 12.3667 128.897 12.46C129.097 12.54 129.264 12.6533 129.397 12.8C129.544 12.9467 129.617 13.1333 129.617 13.36C129.617 13.5067 129.604 13.6333 129.577 13.74C129.564 13.8333 129.531 13.92 129.477 14C129.424 14.08 129.351 14.1667 129.257 14.26C129.164 14.3533 129.051 14.46 128.917 14.58C128.811 14.8733 128.684 15.1467 128.537 15.4C128.404 15.64 128.257 15.9733 128.097 16.4C127.791 17.24 127.531 17.96 127.317 18.56C127.117 19.16 127.017 19.5267 127.017 19.66C127.017 19.9533 127.051 20.1467 127.117 20.24C127.197 20.32 127.291 20.36 127.397 20.36C127.637 20.36 127.897 20.3 128.177 20.18C128.471 20.0467 128.771 19.88 129.077 19.68C129.384 19.48 129.697 19.26 130.017 19.02C130.337 18.7667 130.651 18.5267 130.957 18.3L131.137 18.54ZM128.277 13.56C128.251 13.4667 128.191 13.38 128.097 13.3C128.004 13.22 127.897 13.1533 127.777 13.1C127.657 13.0333 127.537 12.9867 127.417 12.96C127.297 12.9333 127.211 12.92 127.157 12.92C126.811 12.92 126.484 12.96 126.177 13.04C125.871 13.12 125.571 13.2533 125.277 13.44C124.997 13.6133 124.717 13.8467 124.437 14.14C124.157 14.4333 123.871 14.8 123.577 15.24C123.417 15.48 123.264 15.7667 123.117 16.1C122.984 16.4333 122.857 16.7733 122.737 17.12C122.631 17.4533 122.544 17.78 122.477 18.1C122.424 18.4067 122.397 18.66 122.397 18.86C122.397 19.2867 122.477 19.58 122.637 19.74C122.811 19.8867 122.991 19.96 123.177 19.96C123.631 19.96 124.144 19.74 124.717 19.3C125.291 18.8467 125.811 18.12 126.277 17.12C126.477 16.6933 126.631 16.3 126.737 15.94C126.857 15.5667 126.984 15.2267 127.117 14.92C127.157 14.8133 127.217 14.68 127.297 14.52C127.391 14.36 127.491 14.2133 127.597 14.08C127.717 13.9333 127.831 13.8133 127.937 13.72C128.057 13.6133 128.171 13.56 128.277 13.56ZM138.645 18.66C138.645 18.7133 138.451 18.88 138.065 19.16C137.691 19.44 137.205 19.74 136.605 20.06C136.018 20.38 135.365 20.6667 134.645 20.92C133.938 21.1733 133.251 21.3 132.585 21.3C131.931 21.3 131.411 21.12 131.025 20.76C130.651 20.4 130.465 19.8 130.465 18.96C130.465 18.6 130.518 18.2133 130.625 17.8C130.745 17.3733 130.911 16.94 131.125 16.5C131.338 16.06 131.598 15.62 131.905 15.18C132.225 14.74 132.578 14.32 132.965 13.92C133.311 13.56 133.678 13.2467 134.065 12.98C134.451 12.7 134.825 12.4667 135.185 12.28C135.558 12.08 135.898 11.9333 136.205 11.84C136.511 11.7467 136.765 11.7 136.965 11.7C137.191 11.7 137.398 11.74 137.585 11.82C137.771 11.8867 137.865 12.1 137.865 12.46C137.865 12.6467 137.818 12.9 137.725 13.22C137.631 13.54 137.451 13.8133 137.185 14.04C136.958 14.2267 136.745 14.3533 136.545 14.42C136.358 14.4733 136.218 14.5 136.125 14.5C136.058 14.5 136.005 14.46 135.965 14.38L136.165 13.94C136.271 13.7 136.331 13.5267 136.345 13.42C136.358 13.3 136.365 13.2067 136.365 13.14C136.365 12.9933 136.331 12.8867 136.265 12.82C136.211 12.7533 136.105 12.72 135.945 12.72C135.518 12.72 135.085 12.8867 134.645 13.22C134.218 13.54 133.825 13.96 133.465 14.48C133.118 15 132.831 15.5867 132.605 16.24C132.378 16.88 132.265 17.52 132.265 18.16C132.265 18.3867 132.278 18.6333 132.305 18.9C132.331 19.1533 132.391 19.3867 132.485 19.6C132.591 19.8133 132.738 19.9933 132.925 20.14C133.125 20.2733 133.391 20.34 133.725 20.34C134.111 20.34 134.505 20.2867 134.905 20.18C135.305 20.0733 135.625 19.9667 135.865 19.86C136.238 19.7 136.578 19.5333 136.885 19.36C137.191 19.1867 137.451 19.0333 137.665 18.9C137.891 18.7533 138.065 18.6333 138.185 18.54C138.305 18.4467 138.378 18.4 138.405 18.4C138.458 18.4 138.511 18.4067 138.565 18.42C138.631 18.4333 138.658 18.5133 138.645 18.66ZM152.74 9.16C152.447 9.34667 152.053 9.54667 151.56 9.76C151.067 9.97333 150.48 10.1733 149.8 10.36C149.133 10.5467 148.393 10.7 147.58 10.82C146.767 10.94 145.893 11 144.96 11C144.533 11 144.14 10.9467 143.78 10.84C143.42 10.7333 143.173 10.6467 143.04 10.58C143.28 10.22 143.533 9.93333 143.8 9.72C144.027 9.82667 144.413 9.92 144.96 10C145.52 10.08 146.2 10.12 147 10.12C147.853 10.12 148.593 10.08 149.22 10C149.847 9.90667 150.387 9.8 150.84 9.68C151.293 9.56 151.66 9.44667 151.94 9.34C152.233 9.22 152.46 9.13333 152.62 9.08L152.74 9.16ZM152.12 18.54C151.787 18.7667 151.473 18.98 151.18 19.18C150.927 19.3533 150.667 19.5267 150.4 19.7C150.133 19.8733 149.92 20.0133 149.76 20.12C149.08 20.56 148.5 20.8933 148.02 21.12C147.553 21.3467 147.22 21.46 147.02 21.46C146.86 21.46 146.76 21.4 146.72 21.28C146.693 21.16 146.68 21.0333 146.68 20.9C146.68 20.8333 146.707 20.7 146.76 20.5C146.813 20.2867 146.887 20.0333 146.98 19.74C147.073 19.4467 147.173 19.1267 147.28 18.78C147.387 18.4333 147.5 18.08 147.62 17.72C147.74 17.3467 147.853 16.98 147.96 16.62C148.08 16.2467 148.18 15.9067 148.26 15.6C148.353 15.2933 148.427 15.0267 148.48 14.8C148.547 14.56 148.587 14.3733 148.6 14.24C148.6 14.1733 148.607 14.1133 148.62 14.06C148.633 13.9933 148.6 13.96 148.52 13.96C148.44 13.96 148.293 14.0333 148.08 14.18C147.88 14.3267 147.707 14.4733 147.56 14.62C147.32 14.86 147.013 15.1867 146.64 15.6C146.28 16 145.867 16.52 145.4 17.16C145.267 17.3467 145.113 17.5733 144.94 17.84C144.78 18.1067 144.627 18.3667 144.48 18.62C144.333 18.8733 144.207 19.1 144.1 19.3C143.993 19.4867 143.927 19.5933 143.9 19.62C143.833 19.6867 143.733 19.7733 143.6 19.88C143.48 19.9867 143.347 20.0933 143.2 20.2C143.053 20.3067 142.907 20.4 142.76 20.48C142.613 20.56 142.48 20.6 142.36 20.6C142.307 20.6 142.28 20.5733 142.28 20.52C142.28 20.4667 142.287 20.4133 142.3 20.36C142.313 20.2933 142.333 20.2067 142.36 20.1C142.387 19.9933 142.427 19.8533 142.48 19.68C142.547 19.5067 142.627 19.2867 142.72 19.02L143.98 15.42C144.22 14.7267 144.353 14.2533 144.38 14C144.38 13.8933 144.347 13.8333 144.28 13.82C144.053 13.82 143.507 14.2667 142.64 15.16C142.253 15.5467 141.893 15.9733 141.56 16.44C141.227 16.8933 140.92 17.3467 140.64 17.8C140.36 18.2533 140.107 18.6867 139.88 19.1C139.667 19.5133 139.493 19.8667 139.36 20.16C139.307 20.2267 139.227 20.3067 139.12 20.4C139.027 20.48 138.92 20.56 138.8 20.64C138.68 20.72 138.553 20.7867 138.42 20.84C138.3 20.8933 138.18 20.92 138.06 20.92C137.967 20.92 137.907 20.8933 137.88 20.84C137.853 20.7733 137.84 20.7 137.84 20.62C137.84 20.5667 137.853 20.4867 137.88 20.38C137.907 20.2733 137.947 20.1533 138 20.02C138.04 19.8733 138.087 19.7267 138.14 19.58C138.193 19.42 138.247 19.2733 138.3 19.14C138.433 18.78 138.553 18.4533 138.66 18.16C138.767 17.8667 138.86 17.5933 138.94 17.34C139.02 17.0733 139.093 16.82 139.16 16.58C139.24 16.3267 139.32 16.0667 139.4 15.8C139.44 15.6533 139.487 15.4667 139.54 15.24C139.607 15.0133 139.673 14.7867 139.74 14.56C139.82 14.32 139.893 14.1 139.96 13.9C140.027 13.6867 140.087 13.52 140.14 13.4C140.22 13.2 140.333 13.0267 140.48 12.88C140.64 12.72 140.807 12.5867 140.98 12.48C141.153 12.36 141.32 12.2733 141.48 12.22C141.64 12.1667 141.767 12.14 141.86 12.14C141.953 12.14 142 12.2133 142 12.36C141.987 12.4667 141.933 12.6667 141.84 12.96C141.76 13.2533 141.673 13.54 141.58 13.82C141.46 14.1933 141.327 14.5933 141.18 15.02C141.033 15.4467 140.887 15.8467 140.74 16.22C140.58 16.66 140.413 17.0933 140.24 17.52L140.32 17.58C140.453 17.3533 140.62 17.1 140.82 16.82C141.033 16.5267 141.253 16.2333 141.48 15.94C141.72 15.6333 141.96 15.34 142.2 15.06C142.453 14.78 142.693 14.5333 142.92 14.32C143.6 13.68 144.193 13.16 144.7 12.76C145.207 12.36 145.613 12.1667 145.92 12.18C146.013 12.18 146.087 12.2067 146.14 12.26C146.207 12.3133 146.24 12.4133 146.24 12.56C146.24 12.7067 146.18 12.9733 146.06 13.36C145.953 13.7467 145.827 14.16 145.68 14.6C145.533 15.04 145.387 15.4733 145.24 15.9C145.093 16.3133 144.98 16.6333 144.9 16.86H144.96C145.68 16.0067 146.327 15.2933 146.9 14.72C147.487 14.1333 148 13.6733 148.44 13.34C148.88 12.9933 149.247 12.7467 149.54 12.6C149.847 12.4533 150.08 12.38 150.24 12.38C150.333 12.38 150.393 12.42 150.42 12.5C150.46 12.5667 150.48 12.6533 150.48 12.76C150.48 12.88 150.447 13.0667 150.38 13.32C150.327 13.56 150.247 13.8533 150.14 14.2C150.047 14.5467 149.933 14.9267 149.8 15.34C149.68 15.7533 149.553 16.18 149.42 16.62C149.38 16.78 149.307 17.0133 149.2 17.32C149.093 17.6267 148.987 17.9467 148.88 18.28C148.787 18.6 148.7 18.9 148.62 19.18C148.54 19.46 148.5 19.64 148.5 19.72C148.5 19.8133 148.507 19.8867 148.52 19.94C148.533 19.9933 148.587 20.02 148.68 20.02C148.827 20.02 149.02 19.9667 149.26 19.86C149.513 19.7533 149.78 19.62 150.06 19.46C150.353 19.3 150.66 19.12 150.98 18.92C151.313 18.7067 151.633 18.5 151.94 18.3L152.12 18.54ZM159.959 18.92C159.959 18.9733 159.786 19.1267 159.439 19.38C159.092 19.6333 158.639 19.9067 158.079 20.2C157.532 20.48 156.919 20.7333 156.239 20.96C155.559 21.1867 154.886 21.3 154.219 21.3C153.379 21.3 152.746 21.1 152.319 20.7C151.906 20.3 151.699 19.6667 151.699 18.8C151.699 18.24 151.852 17.5533 152.159 16.74C152.479 15.9267 152.986 15.1067 153.679 14.28C154.079 13.8 154.486 13.3867 154.899 13.04C155.326 12.6933 155.732 12.4133 156.119 12.2C156.506 11.9867 156.866 11.8333 157.199 11.74C157.546 11.6333 157.839 11.58 158.079 11.58C158.466 11.58 158.732 11.6333 158.879 11.74C159.026 11.8333 159.099 12.0067 159.099 12.26C159.099 12.58 158.872 13 158.419 13.52C157.979 14.0267 157.406 14.6133 156.699 15.28C156.419 15.5467 156.092 15.8467 155.719 16.18C155.359 16.5133 155.019 16.8333 154.699 17.14C154.312 17.4867 153.926 17.84 153.539 18.2C153.486 19.04 153.626 19.62 153.959 19.94C154.292 20.2467 154.766 20.4 155.379 20.4C155.899 20.4 156.426 20.3067 156.959 20.12C157.492 19.92 157.972 19.7067 158.399 19.48C158.906 19.2133 159.392 18.9 159.859 18.54C159.912 18.62 159.946 18.68 159.959 18.72C159.972 18.76 159.972 18.8267 159.959 18.92ZM157.399 13.16C157.399 12.9467 157.339 12.8133 157.219 12.76C157.099 12.7067 156.966 12.68 156.819 12.68C156.566 12.68 156.246 12.78 155.859 12.98C155.486 13.18 155.132 13.4933 154.799 13.92C154.652 14.1067 154.506 14.3333 154.359 14.6C154.212 14.8667 154.072 15.16 153.939 15.48C153.819 15.8 153.712 16.14 153.619 16.5C153.539 16.8467 153.492 17.1933 153.479 17.54C153.746 17.3133 154.019 17.08 154.299 16.84C154.539 16.6267 154.799 16.3933 155.079 16.14C155.359 15.8867 155.626 15.6267 155.879 15.36C156.319 14.9067 156.679 14.5 156.959 14.14C157.252 13.78 157.399 13.4533 157.399 13.16ZM168.247 13.72C168.247 14.3467 168.114 14.9933 167.847 15.66C167.581 16.3133 167.247 16.94 166.847 17.54C166.461 18.14 166.041 18.6867 165.587 19.18C165.134 19.66 164.714 20.0333 164.327 20.3C163.981 20.54 163.594 20.7667 163.167 20.98C162.754 21.18 162.341 21.28 161.927 21.28C161.661 21.28 161.474 21.2267 161.367 21.12C161.274 21.0133 161.227 20.8933 161.227 20.76C161.227 20.48 161.301 20.18 161.447 19.86C161.607 19.54 161.807 19.2267 162.047 18.92C162.287 18.6133 162.554 18.3133 162.847 18.02C163.154 17.7133 163.461 17.44 163.767 17.2C164.314 16.7733 164.814 16.42 165.267 16.14C165.734 15.8467 166.154 15.6 166.527 15.4C166.594 15.1867 166.627 15 166.627 14.84C166.627 14.68 166.627 14.5067 166.627 14.32C166.627 14.0133 166.594 13.7667 166.527 13.58C166.461 13.38 166.367 13.2267 166.247 13.12C166.141 13 166.014 12.92 165.867 12.88C165.734 12.84 165.587 12.82 165.427 12.82C165.121 12.82 164.734 12.9667 164.267 13.26C163.814 13.5533 163.287 14.02 162.687 14.66C162.554 14.9667 162.401 15.3467 162.227 15.8C162.067 16.24 161.887 16.7333 161.687 17.28C161.501 17.8133 161.294 18.3933 161.067 19.02C160.854 19.6467 160.634 20.2867 160.407 20.94C160.194 21.54 159.981 22.1333 159.767 22.72C159.567 23.32 159.381 23.8867 159.207 24.42C159.021 24.9667 158.854 25.4667 158.707 25.92C158.561 26.3867 158.441 26.7867 158.347 27.12C158.334 27.1867 158.327 27.2867 158.327 27.42C158.314 27.5533 158.294 27.6867 158.267 27.82C158.241 27.94 158.187 28.08 158.107 28.24C158.014 28.4 157.854 28.5733 157.627 28.76C157.334 28.9867 157.034 29.1 156.727 29.1C156.621 29.1 156.527 29.06 156.447 28.98C156.367 28.9 156.327 28.7667 156.327 28.58C156.327 28.46 156.354 28.2667 156.407 28C156.461 27.7467 156.581 27.3867 156.767 26.92C157.114 25.96 157.467 25.0067 157.827 24.06C158.134 23.2467 158.467 22.3667 158.827 21.42C159.174 20.4867 159.501 19.6133 159.807 18.8C159.981 18.3333 160.134 17.9067 160.267 17.52C160.414 17.1333 160.547 16.76 160.667 16.4C160.801 16.0267 160.934 15.6533 161.067 15.28C161.214 14.8933 161.367 14.4667 161.527 14C161.674 13.6133 161.814 13.22 161.947 12.82C162.081 12.4067 162.201 12.1467 162.307 12.04C162.507 11.84 162.727 11.6867 162.967 11.58C163.221 11.46 163.381 11.4 163.447 11.4C163.501 11.4 163.541 11.4067 163.567 11.42C163.607 11.42 163.627 11.4533 163.627 11.52C163.627 11.56 163.607 11.6533 163.567 11.8C163.527 11.9333 163.474 12.1067 163.407 12.32C163.354 12.52 163.281 12.74 163.187 12.98C163.107 13.22 163.027 13.4467 162.947 13.66L163.047 13.68C163.287 13.44 163.561 13.2067 163.867 12.98C164.187 12.74 164.507 12.5267 164.827 12.34C165.161 12.1533 165.481 12.0067 165.787 11.9C166.094 11.78 166.367 11.72 166.607 11.72C167.167 11.72 167.581 11.8667 167.847 12.16C168.114 12.4533 168.247 12.9733 168.247 13.72ZM166.387 16.08C166.281 16.12 166.127 16.1933 165.927 16.3C165.741 16.3933 165.534 16.5133 165.307 16.66C165.081 16.7933 164.841 16.9533 164.587 17.14C164.347 17.3133 164.127 17.5 163.927 17.7C163.754 17.8733 163.581 18.0533 163.407 18.24C163.234 18.4267 163.081 18.62 162.947 18.82C162.814 19.02 162.701 19.22 162.607 19.42C162.527 19.62 162.487 19.8267 162.487 20.04C162.487 20.28 162.674 20.4 163.047 20.4C163.234 20.4 163.441 20.3533 163.667 20.26C163.894 20.1533 164.127 19.98 164.367 19.74C164.514 19.5933 164.681 19.4 164.867 19.16C165.067 18.92 165.261 18.6467 165.447 18.34C165.647 18.02 165.827 17.6733 165.987 17.3C166.161 16.9133 166.294 16.5067 166.387 16.08Z" fill="white"/>
<path d="M73.96 15.76C73.96 16.1867 73.86 16.6267 73.66 17.08C73.46 17.5333 73.1933 17.9733 72.86 18.4C72.5267 18.8133 72.1533 19.1933 71.74 19.54C71.3267 19.8733 70.9 20.1467 70.46 20.36C69.9133 20.6267 69.38 20.8333 68.86 20.98C68.3533 21.1133 67.8467 21.2133 67.34 21.28C66.8333 21.3467 66.32 21.3867 65.8 21.4C65.28 21.4133 64.74 21.42 64.18 21.42C63.8733 21.42 63.6267 21.42 63.44 21.42C63.2667 21.42 63.12 21.42 63 21.42C62.8933 21.4333 62.8067 21.44 62.74 21.44C62.6733 21.44 62.6133 21.44 62.56 21.44C62.4133 21.44 62.2733 21.4333 62.14 21.42C62.0067 21.4067 61.94 21.3467 61.94 21.24C61.94 21.1733 62.06 20.9467 62.3 20.56C62.5533 20.1733 62.8267 19.6533 63.12 19C63.6933 17.7067 64.2333 16.5067 64.74 15.4C65.26 14.2933 65.7267 13.3067 66.14 12.44C66.5533 11.5733 66.9067 10.8467 67.2 10.26C67.4933 9.66 67.7067 9.24 67.84 9C67.6267 8.86667 67.3667 8.72667 67.06 8.58C66.7533 8.43333 66.4133 8.3 66.04 8.18C65.68 8.06 65.28 7.96 64.84 7.88C64.4133 7.8 63.96 7.76 63.48 7.76C62.9733 7.76 62.5133 7.82667 62.1 7.96C61.6867 8.09333 61.36 8.28 61.12 8.52C60.9467 8.70667 60.8133 8.89333 60.72 9.08C60.6267 9.25333 60.5533 9.42 60.5 9.58C60.46 9.72667 60.4333 9.86 60.42 9.98C60.42 10.1 60.42 10.18 60.42 10.22C60.42 10.4067 60.4667 10.5867 60.56 10.76C60.6667 10.9333 60.72 11.0933 60.72 11.24C60.72 11.4133 60.64 11.6 60.48 11.8C60.32 11.9867 60.1667 12.08 60.02 12.08C59.86 12.08 59.7267 12.0267 59.62 11.92C59.5267 11.8133 59.48 11.62 59.48 11.34C59.48 10.78 59.58 10.2267 59.78 9.68C59.98 9.12 60.36 8.6 60.92 8.12C61.1333 7.93333 61.38 7.76667 61.66 7.62C61.9533 7.47333 62.2467 7.34667 62.54 7.24C62.8467 7.13333 63.14 7.05333 63.42 7C63.7 6.93333 63.94 6.9 64.14 6.9C65.1933 6.9 66.0533 6.98667 66.72 7.16C67.3867 7.33333 67.98 7.56 68.5 7.84C68.5933 7.69333 68.7267 7.48667 68.9 7.22C69.0733 6.94 69.2533 6.66667 69.44 6.4C69.6267 6.13333 69.8133 5.9 70 5.7C70.1867 5.5 70.34 5.4 70.46 5.4C70.5267 5.4 70.5933 5.40667 70.66 5.42C70.74 5.42 70.78 5.47333 70.78 5.58C70.78 5.71333 70.7133 5.88667 70.58 6.1C70.4467 6.3 70.2867 6.54 70.1 6.82C70.02 6.95333 69.9267 7.09333 69.82 7.24C69.7267 7.38667 69.6333 7.52667 69.54 7.66C69.4467 7.78 69.3667 7.89333 69.3 8C69.2333 8.09333 69.1933 8.16 69.18 8.2C69.7933 8.6 70.3867 9.05333 70.96 9.56C71.5467 10.0667 72.06 10.6333 72.5 11.26C72.94 11.8867 73.2933 12.5733 73.56 13.32C73.8267 14.0667 73.96 14.88 73.96 15.76ZM72.48 16.28C72.48 15.5733 72.38 14.8933 72.18 14.24C71.98 13.5733 71.7 12.9533 71.34 12.38C70.9933 11.7933 70.5733 11.2533 70.08 10.76C69.5867 10.2667 69.0467 9.82667 68.46 9.44C68.2467 9.78667 67.9933 10.24 67.7 10.8C67.42 11.36 67.12 11.9733 66.8 12.64C66.4933 13.2933 66.18 13.98 65.86 14.7C65.54 15.42 65.24 16.1133 64.96 16.78C64.68 17.4333 64.4267 18.04 64.2 18.6C63.9733 19.16 63.8067 19.6133 63.7 19.96C63.8333 19.9733 63.9933 19.9867 64.18 20C64.34 20.0133 64.5467 20.02 64.8 20.02C65.0533 20.02 65.3667 20.02 65.74 20.02C66.02 20.02 66.3867 20.0267 66.84 20.04C67.3067 20.0533 67.7933 20.0533 68.3 20.04C68.8067 20.0133 69.3 19.9533 69.78 19.86C70.2733 19.7667 70.6867 19.6133 71.02 19.4C71.3 19.2267 71.5333 19.0067 71.72 18.74C71.9067 18.4733 72.0533 18.2 72.16 17.92C72.28 17.6267 72.36 17.34 72.4 17.06C72.4533 16.7667 72.48 16.5067 72.48 16.28ZM81.5409 18.92C81.5409 18.9733 81.3676 19.1267 81.0209 19.38C80.6743 19.6333 80.2209 19.9067 79.6609 20.2C79.1143 20.48 78.5009 20.7333 77.8209 20.96C77.1409 21.1867 76.4676 21.3 75.8009 21.3C74.9609 21.3 74.3276 21.1 73.9009 20.7C73.4876 20.3 73.2809 19.6667 73.2809 18.8C73.2809 18.24 73.4343 17.5533 73.7409 16.74C74.0609 15.9267 74.5676 15.1067 75.2609 14.28C75.6609 13.8 76.0676 13.3867 76.4809 13.04C76.9076 12.6933 77.3143 12.4133 77.7009 12.2C78.0876 11.9867 78.4476 11.8333 78.7809 11.74C79.1276 11.6333 79.4209 11.58 79.6609 11.58C80.0476 11.58 80.3143 11.6333 80.4609 11.74C80.6076 11.8333 80.6809 12.0067 80.6809 12.26C80.6809 12.58 80.4543 13 80.0009 13.52C79.5609 14.0267 78.9876 14.6133 78.2809 15.28C78.0009 15.5467 77.6743 15.8467 77.3009 16.18C76.9409 16.5133 76.6009 16.8333 76.2809 17.14C75.8943 17.4867 75.5076 17.84 75.1209 18.2C75.0676 19.04 75.2076 19.62 75.5409 19.94C75.8743 20.2467 76.3476 20.4 76.9609 20.4C77.4809 20.4 78.0076 20.3067 78.5409 20.12C79.0743 19.92 79.5543 19.7067 79.9809 19.48C80.4876 19.2133 80.9743 18.9 81.4409 18.54C81.4943 18.62 81.5276 18.68 81.5409 18.72C81.5543 18.76 81.5543 18.8267 81.5409 18.92ZM78.9809 13.16C78.9809 12.9467 78.9209 12.8133 78.8009 12.76C78.6809 12.7067 78.5476 12.68 78.4009 12.68C78.1476 12.68 77.8276 12.78 77.4409 12.98C77.0676 13.18 76.7143 13.4933 76.3809 13.92C76.2343 14.1067 76.0876 14.3333 75.9409 14.6C75.7943 14.8667 75.6543 15.16 75.5209 15.48C75.4009 15.8 75.2943 16.14 75.2009 16.5C75.1209 16.8467 75.0743 17.1933 75.0609 17.54C75.3276 17.3133 75.6009 17.08 75.8809 16.84C76.1209 16.6267 76.3809 16.3933 76.6609 16.14C76.9409 15.8867 77.2076 15.6267 77.4609 15.36C77.9009 14.9067 78.2609 14.5 78.5409 14.14C78.8343 13.78 78.9809 13.4533 78.9809 13.16ZM91.6092 18.72C91.3826 18.9067 91.0492 19.1467 90.6092 19.44C90.1826 19.7333 89.6892 20.0267 89.1292 20.32C88.4092 20.6933 87.8092 20.98 87.3292 21.18C86.8492 21.38 86.5092 21.48 86.3092 21.48C86.1359 21.48 86.0292 21.4333 85.9892 21.34C85.9492 21.2467 85.9292 21.1467 85.9292 21.04C85.9292 20.9333 85.9559 20.76 86.0092 20.52C86.0626 20.28 86.1292 20.0067 86.2092 19.7C86.3026 19.3933 86.3959 19.0667 86.4892 18.72C86.5959 18.3733 86.6959 18.04 86.7892 17.72C86.8159 17.6267 86.8492 17.5067 86.8892 17.36C86.9426 17.2 86.9959 17.0467 87.0492 16.9L87.2292 16.36C87.0559 16.4933 86.8492 16.6267 86.6092 16.76C86.3959 16.8667 86.1292 16.9933 85.8092 17.14C85.5026 17.2733 85.1292 17.4 84.6892 17.52C84.5292 17.5733 84.3759 17.6133 84.2292 17.64C84.0826 17.6533 83.9559 17.6733 83.8492 17.7C83.7159 17.7267 83.5959 17.74 83.4892 17.74C83.4626 17.9 83.4159 18.1133 83.3492 18.38C83.2826 18.6467 83.2026 18.92 83.1092 19.2C83.0159 19.48 82.9092 19.7467 82.7892 20C82.6826 20.2533 82.5626 20.4467 82.4292 20.58C82.2026 20.8067 82.0026 20.9533 81.8292 21.02C81.6692 21.0867 81.5092 21.12 81.3492 21.12C81.1226 21.12 80.9892 21.08 80.9492 21C80.8959 20.92 80.8692 20.7933 80.8692 20.62C80.8692 20.5533 80.8959 20.4467 80.9492 20.3C80.9892 20.14 81.0359 19.9733 81.0892 19.8C81.1559 19.6133 81.2226 19.4267 81.2892 19.24C81.3559 19.04 81.4092 18.8667 81.4492 18.72L81.7892 17.66C81.6959 17.5533 81.6426 17.4867 81.6292 17.46C81.6159 17.42 81.6092 17.3133 81.6092 17.14C81.6092 16.9933 81.6759 16.8667 81.8092 16.76C81.9559 16.6533 82.1426 16.5867 82.3692 16.56L82.5492 16.12C82.6692 15.84 82.7826 15.5533 82.8892 15.26C82.9959 14.9533 83.0959 14.6667 83.1892 14.4C83.2959 14.12 83.3892 13.8733 83.4692 13.66C83.5626 13.4333 83.6492 13.2533 83.7292 13.12C83.9559 12.7333 84.2159 12.4733 84.5092 12.34C84.8159 12.2067 85.0626 12.14 85.2492 12.14C85.3426 12.14 85.3892 12.2133 85.3892 12.36C85.3892 12.4 85.3692 12.48 85.3292 12.6C85.2892 12.7067 85.2359 12.84 85.1692 13C85.1026 13.1467 85.0292 13.3133 84.9492 13.5C84.8826 13.6733 84.8226 13.84 84.7692 14C84.6626 14.2933 84.5492 14.6 84.4292 14.92C84.3226 15.24 84.2226 15.54 84.1292 15.82C84.0226 16.1533 83.9159 16.48 83.8092 16.8H84.1092C84.3092 16.8 84.5492 16.78 84.8292 16.74C85.6292 16.6333 86.2359 16.4733 86.6492 16.26C87.0759 16.0333 87.3292 15.86 87.4092 15.74C87.4892 15.54 87.5426 15.3933 87.5692 15.3C87.6092 15.2067 87.6692 15.04 87.7492 14.8C87.8959 14.3467 88.0359 13.94 88.1692 13.58C88.3026 13.2067 88.5026 12.88 88.7692 12.6C88.9159 12.4533 89.0292 12.36 89.1092 12.32C89.1892 12.2667 89.3092 12.2 89.4692 12.12C89.5759 12.0667 89.6759 12.0333 89.7692 12.02C89.8626 12.0067 89.9426 12 90.0092 12C90.1026 12 90.1759 12.0267 90.2292 12.08C90.2959 12.12 90.3292 12.2133 90.3292 12.36C90.3292 12.72 90.1959 13.18 89.9292 13.74C89.6626 14.2867 89.3026 14.88 88.8492 15.52C88.6892 15.96 88.5359 16.4 88.3892 16.84C88.2559 17.28 88.1292 17.6867 88.0092 18.06C87.9026 18.4333 87.8159 18.7667 87.7492 19.06C87.6959 19.3533 87.6692 19.5733 87.6692 19.72C87.6692 19.8133 87.6759 19.9133 87.6892 20.02C87.7026 20.1133 87.7692 20.16 87.8892 20.16C88.1292 20.16 88.3892 20.1133 88.6692 20.02C88.9492 19.9133 89.2426 19.78 89.5492 19.62C89.8559 19.46 90.1692 19.28 90.4892 19.08C90.8092 18.88 91.1226 18.68 91.4292 18.48L91.6092 18.72ZM105.592 9.16C105.298 9.34667 104.905 9.54667 104.412 9.76C103.918 9.97333 103.332 10.1733 102.652 10.36C101.985 10.5467 101.245 10.7 100.432 10.82C99.6182 10.94 98.7449 11 97.8116 11C97.3849 11 96.9916 10.9467 96.6316 10.84C96.2716 10.7333 96.0249 10.6467 95.8916 10.58C96.1316 10.22 96.3849 9.93333 96.6516 9.72C96.8782 9.82667 97.2649 9.92 97.8116 10C98.3716 10.08 99.0516 10.12 99.8516 10.12C100.705 10.12 101.445 10.08 102.072 10C102.698 9.90667 103.238 9.8 103.692 9.68C104.145 9.56 104.512 9.44667 104.792 9.34C105.085 9.22 105.312 9.13333 105.472 9.08L105.592 9.16ZM104.972 18.54C104.638 18.7667 104.325 18.98 104.032 19.18C103.778 19.3533 103.518 19.5267 103.252 19.7C102.985 19.8733 102.772 20.0133 102.612 20.12C101.932 20.56 101.352 20.8933 100.872 21.12C100.405 21.3467 100.072 21.46 99.8716 21.46C99.7116 21.46 99.6116 21.4 99.5716 21.28C99.5449 21.16 99.5316 21.0333 99.5316 20.9C99.5316 20.8333 99.5582 20.7 99.6116 20.5C99.6649 20.2867 99.7382 20.0333 99.8316 19.74C99.9249 19.4467 100.025 19.1267 100.132 18.78C100.238 18.4333 100.352 18.08 100.472 17.72C100.592 17.3467 100.705 16.98 100.812 16.62C100.932 16.2467 101.032 15.9067 101.112 15.6C101.205 15.2933 101.278 15.0267 101.332 14.8C101.398 14.56 101.438 14.3733 101.452 14.24C101.452 14.1733 101.458 14.1133 101.472 14.06C101.485 13.9933 101.452 13.96 101.372 13.96C101.292 13.96 101.145 14.0333 100.932 14.18C100.732 14.3267 100.558 14.4733 100.412 14.62C100.172 14.86 99.8649 15.1867 99.4916 15.6C99.1316 16 98.7182 16.52 98.2516 17.16C98.1182 17.3467 97.9649 17.5733 97.7916 17.84C97.6316 18.1067 97.4782 18.3667 97.3316 18.62C97.1849 18.8733 97.0582 19.1 96.9516 19.3C96.8449 19.4867 96.7782 19.5933 96.7516 19.62C96.6849 19.6867 96.5849 19.7733 96.4516 19.88C96.3316 19.9867 96.1982 20.0933 96.0516 20.2C95.9049 20.3067 95.7582 20.4 95.6116 20.48C95.4649 20.56 95.3316 20.6 95.2116 20.6C95.1582 20.6 95.1316 20.5733 95.1316 20.52C95.1316 20.4667 95.1382 20.4133 95.1516 20.36C95.1649 20.2933 95.1849 20.2067 95.2116 20.1C95.2382 19.9933 95.2782 19.8533 95.3316 19.68C95.3982 19.5067 95.4782 19.2867 95.5716 19.02L96.8316 15.42C97.0716 14.7267 97.2049 14.2533 97.2316 14C97.2316 13.8933 97.1982 13.8333 97.1316 13.82C96.9049 13.82 96.3582 14.2667 95.4916 15.16C95.1049 15.5467 94.7449 15.9733 94.4116 16.44C94.0782 16.8933 93.7716 17.3467 93.4916 17.8C93.2116 18.2533 92.9582 18.6867 92.7316 19.1C92.5182 19.5133 92.3449 19.8667 92.2116 20.16C92.1582 20.2267 92.0782 20.3067 91.9716 20.4C91.8782 20.48 91.7716 20.56 91.6516 20.64C91.5316 20.72 91.4049 20.7867 91.2716 20.84C91.1516 20.8933 91.0316 20.92 90.9116 20.92C90.8182 20.92 90.7582 20.8933 90.7316 20.84C90.7049 20.7733 90.6916 20.7 90.6916 20.62C90.6916 20.5667 90.7049 20.4867 90.7316 20.38C90.7582 20.2733 90.7982 20.1533 90.8516 20.02C90.8916 19.8733 90.9382 19.7267 90.9916 19.58C91.0449 19.42 91.0982 19.2733 91.1516 19.14C91.2849 18.78 91.4049 18.4533 91.5116 18.16C91.6182 17.8667 91.7116 17.5933 91.7916 17.34C91.8716 17.0733 91.9449 16.82 92.0116 16.58C92.0916 16.3267 92.1716 16.0667 92.2516 15.8C92.2916 15.6533 92.3382 15.4667 92.3916 15.24C92.4582 15.0133 92.5249 14.7867 92.5916 14.56C92.6716 14.32 92.7449 14.1 92.8116 13.9C92.8782 13.6867 92.9382 13.52 92.9916 13.4C93.0716 13.2 93.1849 13.0267 93.3316 12.88C93.4916 12.72 93.6582 12.5867 93.8316 12.48C94.0049 12.36 94.1716 12.2733 94.3316 12.22C94.4916 12.1667 94.6182 12.14 94.7116 12.14C94.8049 12.14 94.8516 12.2133 94.8516 12.36C94.8382 12.4667 94.7849 12.6667 94.6916 12.96C94.6116 13.2533 94.5249 13.54 94.4316 13.82C94.3116 14.1933 94.1782 14.5933 94.0316 15.02C93.8849 15.4467 93.7382 15.8467 93.5916 16.22C93.4316 16.66 93.2649 17.0933 93.0916 17.52L93.1716 17.58C93.3049 17.3533 93.4716 17.1 93.6716 16.82C93.8849 16.5267 94.1049 16.2333 94.3316 15.94C94.5716 15.6333 94.8116 15.34 95.0516 15.06C95.3049 14.78 95.5449 14.5333 95.7716 14.32C96.4516 13.68 97.0449 13.16 97.5516 12.76C98.0582 12.36 98.4649 12.1667 98.7716 12.18C98.8649 12.18 98.9382 12.2067 98.9916 12.26C99.0582 12.3133 99.0916 12.4133 99.0916 12.56C99.0916 12.7067 99.0316 12.9733 98.9116 13.36C98.8049 13.7467 98.6782 14.16 98.5316 14.6C98.3849 15.04 98.2382 15.4733 98.0916 15.9C97.9449 16.3133 97.8316 16.6333 97.7516 16.86H97.8116C98.5316 16.0067 99.1782 15.2933 99.7516 14.72C100.338 14.1333 100.852 13.6733 101.292 13.34C101.732 12.9933 102.098 12.7467 102.392 12.6C102.698 12.4533 102.932 12.38 103.092 12.38C103.185 12.38 103.245 12.42 103.272 12.5C103.312 12.5667 103.332 12.6533 103.332 12.76C103.332 12.88 103.298 13.0667 103.232 13.32C103.178 13.56 103.098 13.8533 102.992 14.2C102.898 14.5467 102.785 14.9267 102.652 15.34C102.532 15.7533 102.405 16.18 102.272 16.62C102.232 16.78 102.158 17.0133 102.052 17.32C101.945 17.6267 101.838 17.9467 101.732 18.28C101.638 18.6 101.552 18.9 101.472 19.18C101.392 19.46 101.352 19.64 101.352 19.72C101.352 19.8133 101.358 19.8867 101.372 19.94C101.385 19.9933 101.438 20.02 101.532 20.02C101.678 20.02 101.872 19.9667 102.112 19.86C102.365 19.7533 102.632 19.62 102.912 19.46C103.205 19.3 103.512 19.12 103.832 18.92C104.165 18.7067 104.485 18.5 104.792 18.3L104.972 18.54ZM121.77 18.28C121.584 18.4133 121.404 18.5467 121.23 18.68C121.07 18.8 120.897 18.9267 120.71 19.06C120.524 19.1933 120.31 19.34 120.07 19.5C119.83 19.6467 119.55 19.8133 119.23 20C118.79 20.2667 118.41 20.4867 118.09 20.66C117.77 20.82 117.49 20.9467 117.25 21.04C117.024 21.1467 116.837 21.22 116.69 21.26C116.544 21.3 116.417 21.32 116.31 21.32C115.99 21.32 115.797 21.2267 115.73 21.04C115.664 20.8533 115.63 20.68 115.63 20.52C115.63 20.4 115.664 20.2 115.73 19.92C115.797 19.64 115.877 19.3133 115.97 18.94C116.077 18.5533 116.197 18.14 116.33 17.7C116.464 17.2467 116.604 16.8 116.75 16.36C117.084 15.32 117.457 14.18 117.87 12.94L117.79 12.92C117.27 13.6 116.59 14.4667 115.75 15.52C114.91 16.5733 113.804 17.8933 112.43 19.48C112.324 19.6 112.19 19.7467 112.03 19.92C111.87 20.0933 111.71 20.26 111.55 20.42C111.39 20.58 111.23 20.7133 111.07 20.82C110.924 20.9267 110.804 20.98 110.71 20.98C110.537 20.98 110.43 20.94 110.39 20.86C110.35 20.7667 110.33 20.6333 110.33 20.46C110.33 20.3 110.397 19.9533 110.53 19.42C110.664 18.8733 110.83 18.2467 111.03 17.54C111.23 16.82 111.437 16.0733 111.65 15.3C111.877 14.5133 112.07 13.8 112.23 13.16L112.55 11.9L112.45 11.86C112.397 11.9533 112.284 12.1333 112.11 12.4C111.95 12.6667 111.75 12.9867 111.51 13.36C111.284 13.7333 111.03 14.1333 110.75 14.56C110.47 14.9867 110.19 15.4067 109.91 15.82C109.644 16.22 109.384 16.6 109.13 16.96C108.89 17.3067 108.69 17.5867 108.53 17.8C108.01 18.48 107.55 19.04 107.15 19.48C106.764 19.9067 106.41 20.2467 106.09 20.5C105.784 20.7533 105.504 20.9267 105.25 21.02C105.01 21.1133 104.777 21.16 104.55 21.16C104.35 21.16 104.197 21.1133 104.09 21.02C103.984 20.94 103.904 20.84 103.85 20.72C103.797 20.6 103.764 20.4733 103.75 20.34C103.737 20.2067 103.73 20.1 103.73 20.02C103.73 19.54 103.864 19.1133 104.13 18.74C104.397 18.3667 104.684 18.1 104.99 17.94L105.11 17.96C105.097 18.1067 105.09 18.26 105.09 18.42C105.104 18.58 105.13 18.7333 105.17 18.88C105.21 19.0133 105.264 19.1267 105.33 19.22C105.41 19.3133 105.524 19.36 105.67 19.36C105.777 19.36 105.91 19.3267 106.07 19.26C106.23 19.18 106.417 19.0533 106.63 18.88C106.857 18.6933 107.117 18.4467 107.41 18.14C107.704 17.82 108.044 17.4133 108.43 16.92C108.764 16.4933 109.144 15.9667 109.57 15.34C109.997 14.7133 110.417 14.0667 110.83 13.4C111.244 12.7333 111.63 12.0933 111.99 11.48C112.35 10.8533 112.63 10.3333 112.83 9.92C112.937 9.64 113.017 9.42 113.07 9.26C113.124 9.08667 113.17 8.94667 113.21 8.84C113.25 8.73333 113.29 8.64 113.33 8.56C113.37 8.46667 113.43 8.34667 113.51 8.2C113.617 8.01333 113.764 7.86 113.95 7.74C114.137 7.62 114.31 7.56 114.47 7.56C114.697 7.56 114.864 7.56667 114.97 7.58C115.09 7.59333 115.15 7.69333 115.15 7.88C115.15 8.32 115.057 8.77333 114.87 9.24C114.684 9.70667 114.497 10.24 114.31 10.84C114.11 11.4667 113.904 12.14 113.69 12.86C113.477 13.58 113.277 14.2667 113.09 14.92C112.917 15.56 112.764 16.1267 112.63 16.62C112.51 17.1133 112.43 17.4467 112.39 17.62C112.377 17.66 112.357 17.7333 112.33 17.84C112.304 17.9467 112.277 18.06 112.25 18.18C112.237 18.2867 112.23 18.3867 112.23 18.48C112.23 18.56 112.25 18.6 112.29 18.6C112.33 18.6 112.47 18.48 112.71 18.24C112.964 17.9867 113.27 17.6533 113.63 17.24C113.99 16.8133 114.39 16.3267 114.83 15.78C115.284 15.2333 115.737 14.66 116.19 14.06C116.644 13.46 117.077 12.86 117.49 12.26C117.917 11.6467 118.284 11.0667 118.59 10.52C118.71 10.16 118.817 9.84667 118.91 9.58C119.004 9.31333 119.09 9.07333 119.17 8.86C119.25 8.64667 119.33 8.45333 119.41 8.28C119.504 8.10667 119.617 7.93333 119.75 7.76C119.95 7.49333 120.15 7.32667 120.35 7.26C120.55 7.18 120.75 7.14 120.95 7.14C121.097 7.14 121.184 7.20667 121.21 7.34C121.237 7.46 121.25 7.61333 121.25 7.8C121.25 7.94667 121.197 8.17333 121.09 8.48C120.997 8.77333 120.877 9.09333 120.73 9.44C120.597 9.77333 120.45 10.1 120.29 10.42C120.144 10.74 120.01 11 119.89 11.2C119.81 11.4133 119.69 11.7533 119.53 12.22C119.384 12.6733 119.217 13.18 119.03 13.74C118.844 14.3 118.65 14.88 118.45 15.48C118.264 16.08 118.084 16.64 117.91 17.16C117.75 17.6667 117.617 18.1 117.51 18.46C117.417 18.82 117.37 19.0333 117.37 19.1C117.37 19.18 117.357 19.2733 117.33 19.38C117.317 19.4733 117.317 19.56 117.33 19.64C117.344 19.72 117.384 19.7867 117.45 19.84C117.53 19.8933 117.67 19.92 117.87 19.92C118.07 19.92 118.31 19.86 118.59 19.74C118.884 19.62 119.19 19.4667 119.51 19.28C119.844 19.0933 120.184 18.8867 120.53 18.66C120.89 18.42 121.237 18.1867 121.57 17.96L121.77 18.28ZM131.137 18.54C130.831 18.82 130.444 19.14 129.977 19.5C129.524 19.8467 129.057 20.18 128.577 20.5C128.097 20.82 127.644 21.0867 127.217 21.3C126.791 21.5267 126.451 21.64 126.197 21.64C125.997 21.64 125.844 21.5533 125.737 21.38C125.631 21.22 125.577 21.0133 125.577 20.76C125.577 20.6267 125.584 20.4667 125.597 20.28C125.624 20.0933 125.651 19.9133 125.677 19.74C125.704 19.5533 125.731 19.38 125.757 19.22C125.797 19.0467 125.831 18.9067 125.857 18.8H125.777C125.177 19.5467 124.537 20.14 123.857 20.58C123.191 21.0067 122.584 21.22 122.037 21.22C121.531 21.22 121.197 21.06 121.037 20.74C120.877 20.42 120.797 19.9867 120.797 19.44C120.797 19.08 120.851 18.68 120.957 18.24C121.064 17.7867 121.217 17.3333 121.417 16.88C121.617 16.4267 121.857 15.9867 122.137 15.56C122.417 15.1333 122.737 14.7467 123.097 14.4C123.964 13.5733 124.784 13.0067 125.557 12.7C126.331 12.38 127.084 12.22 127.817 12.22C127.951 12.22 128.117 12.24 128.317 12.28C128.517 12.3067 128.711 12.3667 128.897 12.46C129.097 12.54 129.264 12.6533 129.397 12.8C129.544 12.9467 129.617 13.1333 129.617 13.36C129.617 13.5067 129.604 13.6333 129.577 13.74C129.564 13.8333 129.531 13.92 129.477 14C129.424 14.08 129.351 14.1667 129.257 14.26C129.164 14.3533 129.051 14.46 128.917 14.58C128.811 14.8733 128.684 15.1467 128.537 15.4C128.404 15.64 128.257 15.9733 128.097 16.4C127.791 17.24 127.531 17.96 127.317 18.56C127.117 19.16 127.017 19.5267 127.017 19.66C127.017 19.9533 127.051 20.1467 127.117 20.24C127.197 20.32 127.291 20.36 127.397 20.36C127.637 20.36 127.897 20.3 128.177 20.18C128.471 20.0467 128.771 19.88 129.077 19.68C129.384 19.48 129.697 19.26 130.017 19.02C130.337 18.7667 130.651 18.5267 130.957 18.3L131.137 18.54ZM128.277 13.56C128.251 13.4667 128.191 13.38 128.097 13.3C128.004 13.22 127.897 13.1533 127.777 13.1C127.657 13.0333 127.537 12.9867 127.417 12.96C127.297 12.9333 127.211 12.92 127.157 12.92C126.811 12.92 126.484 12.96 126.177 13.04C125.871 13.12 125.571 13.2533 125.277 13.44C124.997 13.6133 124.717 13.8467 124.437 14.14C124.157 14.4333 123.871 14.8 123.577 15.24C123.417 15.48 123.264 15.7667 123.117 16.1C122.984 16.4333 122.857 16.7733 122.737 17.12C122.631 17.4533 122.544 17.78 122.477 18.1C122.424 18.4067 122.397 18.66 122.397 18.86C122.397 19.2867 122.477 19.58 122.637 19.74C122.811 19.8867 122.991 19.96 123.177 19.96C123.631 19.96 124.144 19.74 124.717 19.3C125.291 18.8467 125.811 18.12 126.277 17.12C126.477 16.6933 126.631 16.3 126.737 15.94C126.857 15.5667 126.984 15.2267 127.117 14.92C127.157 14.8133 127.217 14.68 127.297 14.52C127.391 14.36 127.491 14.2133 127.597 14.08C127.717 13.9333 127.831 13.8133 127.937 13.72C128.057 13.6133 128.171 13.56 128.277 13.56ZM138.645 18.66C138.645 18.7133 138.451 18.88 138.065 19.16C137.691 19.44 137.205 19.74 136.605 20.06C136.018 20.38 135.365 20.6667 134.645 20.92C133.938 21.1733 133.251 21.3 132.585 21.3C131.931 21.3 131.411 21.12 131.025 20.76C130.651 20.4 130.465 19.8 130.465 18.96C130.465 18.6 130.518 18.2133 130.625 17.8C130.745 17.3733 130.911 16.94 131.125 16.5C131.338 16.06 131.598 15.62 131.905 15.18C132.225 14.74 132.578 14.32 132.965 13.92C133.311 13.56 133.678 13.2467 134.065 12.98C134.451 12.7 134.825 12.4667 135.185 12.28C135.558 12.08 135.898 11.9333 136.205 11.84C136.511 11.7467 136.765 11.7 136.965 11.7C137.191 11.7 137.398 11.74 137.585 11.82C137.771 11.8867 137.865 12.1 137.865 12.46C137.865 12.6467 137.818 12.9 137.725 13.22C137.631 13.54 137.451 13.8133 137.185 14.04C136.958 14.2267 136.745 14.3533 136.545 14.42C136.358 14.4733 136.218 14.5 136.125 14.5C136.058 14.5 136.005 14.46 135.965 14.38L136.165 13.94C136.271 13.7 136.331 13.5267 136.345 13.42C136.358 13.3 136.365 13.2067 136.365 13.14C136.365 12.9933 136.331 12.8867 136.265 12.82C136.211 12.7533 136.105 12.72 135.945 12.72C135.518 12.72 135.085 12.8867 134.645 13.22C134.218 13.54 133.825 13.96 133.465 14.48C133.118 15 132.831 15.5867 132.605 16.24C132.378 16.88 132.265 17.52 132.265 18.16C132.265 18.3867 132.278 18.6333 132.305 18.9C132.331 19.1533 132.391 19.3867 132.485 19.6C132.591 19.8133 132.738 19.9933 132.925 20.14C133.125 20.2733 133.391 20.34 133.725 20.34C134.111 20.34 134.505 20.2867 134.905 20.18C135.305 20.0733 135.625 19.9667 135.865 19.86C136.238 19.7 136.578 19.5333 136.885 19.36C137.191 19.1867 137.451 19.0333 137.665 18.9C137.891 18.7533 138.065 18.6333 138.185 18.54C138.305 18.4467 138.378 18.4 138.405 18.4C138.458 18.4 138.511 18.4067 138.565 18.42C138.631 18.4333 138.658 18.5133 138.645 18.66ZM152.74 9.16C152.447 9.34667 152.053 9.54667 151.56 9.76C151.067 9.97333 150.48 10.1733 149.8 10.36C149.133 10.5467 148.393 10.7 147.58 10.82C146.767 10.94 145.893 11 144.96 11C144.533 11 144.14 10.9467 143.78 10.84C143.42 10.7333 143.173 10.6467 143.04 10.58C143.28 10.22 143.533 9.93333 143.8 9.72C144.027 9.82667 144.413 9.92 144.96 10C145.52 10.08 146.2 10.12 147 10.12C147.853 10.12 148.593 10.08 149.22 10C149.847 9.90667 150.387 9.8 150.84 9.68C151.293 9.56 151.66 9.44667 151.94 9.34C152.233 9.22 152.46 9.13333 152.62 9.08L152.74 9.16ZM152.12 18.54C151.787 18.7667 151.473 18.98 151.18 19.18C150.927 19.3533 150.667 19.5267 150.4 19.7C150.133 19.8733 149.92 20.0133 149.76 20.12C149.08 20.56 148.5 20.8933 148.02 21.12C147.553 21.3467 147.22 21.46 147.02 21.46C146.86 21.46 146.76 21.4 146.72 21.28C146.693 21.16 146.68 21.0333 146.68 20.9C146.68 20.8333 146.707 20.7 146.76 20.5C146.813 20.2867 146.887 20.0333 146.98 19.74C147.073 19.4467 147.173 19.1267 147.28 18.78C147.387 18.4333 147.5 18.08 147.62 17.72C147.74 17.3467 147.853 16.98 147.96 16.62C148.08 16.2467 148.18 15.9067 148.26 15.6C148.353 15.2933 148.427 15.0267 148.48 14.8C148.547 14.56 148.587 14.3733 148.6 14.24C148.6 14.1733 148.607 14.1133 148.62 14.06C148.633 13.9933 148.6 13.96 148.52 13.96C148.44 13.96 148.293 14.0333 148.08 14.18C147.88 14.3267 147.707 14.4733 147.56 14.62C147.32 14.86 147.013 15.1867 146.64 15.6C146.28 16 145.867 16.52 145.4 17.16C145.267 17.3467 145.113 17.5733 144.94 17.84C144.78 18.1067 144.627 18.3667 144.48 18.62C144.333 18.8733 144.207 19.1 144.1 19.3C143.993 19.4867 143.927 19.5933 143.9 19.62C143.833 19.6867 143.733 19.7733 143.6 19.88C143.48 19.9867 143.347 20.0933 143.2 20.2C143.053 20.3067 142.907 20.4 142.76 20.48C142.613 20.56 142.48 20.6 142.36 20.6C142.307 20.6 142.28 20.5733 142.28 20.52C142.28 20.4667 142.287 20.4133 142.3 20.36C142.313 20.2933 142.333 20.2067 142.36 20.1C142.387 19.9933 142.427 19.8533 142.48 19.68C142.547 19.5067 142.627 19.2867 142.72 19.02L143.98 15.42C144.22 14.7267 144.353 14.2533 144.38 14C144.38 13.8933 144.347 13.8333 144.28 13.82C144.053 13.82 143.507 14.2667 142.64 15.16C142.253 15.5467 141.893 15.9733 141.56 16.44C141.227 16.8933 140.92 17.3467 140.64 17.8C140.36 18.2533 140.107 18.6867 139.88 19.1C139.667 19.5133 139.493 19.8667 139.36 20.16C139.307 20.2267 139.227 20.3067 139.12 20.4C139.027 20.48 138.92 20.56 138.8 20.64C138.68 20.72 138.553 20.7867 138.42 20.84C138.3 20.8933 138.18 20.92 138.06 20.92C137.967 20.92 137.907 20.8933 137.88 20.84C137.853 20.7733 137.84 20.7 137.84 20.62C137.84 20.5667 137.853 20.4867 137.88 20.38C137.907 20.2733 137.947 20.1533 138 20.02C138.04 19.8733 138.087 19.7267 138.14 19.58C138.193 19.42 138.247 19.2733 138.3 19.14C138.433 18.78 138.553 18.4533 138.66 18.16C138.767 17.8667 138.86 17.5933 138.94 17.34C139.02 17.0733 139.093 16.82 139.16 16.58C139.24 16.3267 139.32 16.0667 139.4 15.8C139.44 15.6533 139.487 15.4667 139.54 15.24C139.607 15.0133 139.673 14.7867 139.74 14.56C139.82 14.32 139.893 14.1 139.96 13.9C140.027 13.6867 140.087 13.52 140.14 13.4C140.22 13.2 140.333 13.0267 140.48 12.88C140.64 12.72 140.807 12.5867 140.98 12.48C141.153 12.36 141.32 12.2733 141.48 12.22C141.64 12.1667 141.767 12.14 141.86 12.14C141.953 12.14 142 12.2133 142 12.36C141.987 12.4667 141.933 12.6667 141.84 12.96C141.76 13.2533 141.673 13.54 141.58 13.82C141.46 14.1933 141.327 14.5933 141.18 15.02C141.033 15.4467 140.887 15.8467 140.74 16.22C140.58 16.66 140.413 17.0933 140.24 17.52L140.32 17.58C140.453 17.3533 140.62 17.1 140.82 16.82C141.033 16.5267 141.253 16.2333 141.48 15.94C141.72 15.6333 141.96 15.34 142.2 15.06C142.453 14.78 142.693 14.5333 142.92 14.32C143.6 13.68 144.193 13.16 144.7 12.76C145.207 12.36 145.613 12.1667 145.92 12.18C146.013 12.18 146.087 12.2067 146.14 12.26C146.207 12.3133 146.24 12.4133 146.24 12.56C146.24 12.7067 146.18 12.9733 146.06 13.36C145.953 13.7467 145.827 14.16 145.68 14.6C145.533 15.04 145.387 15.4733 145.24 15.9C145.093 16.3133 144.98 16.6333 144.9 16.86H144.96C145.68 16.0067 146.327 15.2933 146.9 14.72C147.487 14.1333 148 13.6733 148.44 13.34C148.88 12.9933 149.247 12.7467 149.54 12.6C149.847 12.4533 150.08 12.38 150.24 12.38C150.333 12.38 150.393 12.42 150.42 12.5C150.46 12.5667 150.48 12.6533 150.48 12.76C150.48 12.88 150.447 13.0667 150.38 13.32C150.327 13.56 150.247 13.8533 150.14 14.2C150.047 14.5467 149.933 14.9267 149.8 15.34C149.68 15.7533 149.553 16.18 149.42 16.62C149.38 16.78 149.307 17.0133 149.2 17.32C149.093 17.6267 148.987 17.9467 148.88 18.28C148.787 18.6 148.7 18.9 148.62 19.18C148.54 19.46 148.5 19.64 148.5 19.72C148.5 19.8133 148.507 19.8867 148.52 19.94C148.533 19.9933 148.587 20.02 148.68 20.02C148.827 20.02 149.02 19.9667 149.26 19.86C149.513 19.7533 149.78 19.62 150.06 19.46C150.353 19.3 150.66 19.12 150.98 18.92C151.313 18.7067 151.633 18.5 151.94 18.3L152.12 18.54ZM159.959 18.92C159.959 18.9733 159.786 19.1267 159.439 19.38C159.092 19.6333 158.639 19.9067 158.079 20.2C157.532 20.48 156.919 20.7333 156.239 20.96C155.559 21.1867 154.886 21.3 154.219 21.3C153.379 21.3 152.746 21.1 152.319 20.7C151.906 20.3 151.699 19.6667 151.699 18.8C151.699 18.24 151.852 17.5533 152.159 16.74C152.479 15.9267 152.986 15.1067 153.679 14.28C154.079 13.8 154.486 13.3867 154.899 13.04C155.326 12.6933 155.732 12.4133 156.119 12.2C156.506 11.9867 156.866 11.8333 157.199 11.74C157.546 11.6333 157.839 11.58 158.079 11.58C158.466 11.58 158.732 11.6333 158.879 11.74C159.026 11.8333 159.099 12.0067 159.099 12.26C159.099 12.58 158.872 13 158.419 13.52C157.979 14.0267 157.406 14.6133 156.699 15.28C156.419 15.5467 156.092 15.8467 155.719 16.18C155.359 16.5133 155.019 16.8333 154.699 17.14C154.312 17.4867 153.926 17.84 153.539 18.2C153.486 19.04 153.626 19.62 153.959 19.94C154.292 20.2467 154.766 20.4 155.379 20.4C155.899 20.4 156.426 20.3067 156.959 20.12C157.492 19.92 157.972 19.7067 158.399 19.48C158.906 19.2133 159.392 18.9 159.859 18.54C159.912 18.62 159.946 18.68 159.959 18.72C159.972 18.76 159.972 18.8267 159.959 18.92ZM157.399 13.16C157.399 12.9467 157.339 12.8133 157.219 12.76C157.099 12.7067 156.966 12.68 156.819 12.68C156.566 12.68 156.246 12.78 155.859 12.98C155.486 13.18 155.132 13.4933 154.799 13.92C154.652 14.1067 154.506 14.3333 154.359 14.6C154.212 14.8667 154.072 15.16 153.939 15.48C153.819 15.8 153.712 16.14 153.619 16.5C153.539 16.8467 153.492 17.1933 153.479 17.54C153.746 17.3133 154.019 17.08 154.299 16.84C154.539 16.6267 154.799 16.3933 155.079 16.14C155.359 15.8867 155.626 15.6267 155.879 15.36C156.319 14.9067 156.679 14.5 156.959 14.14C157.252 13.78 157.399 13.4533 157.399 13.16ZM168.247 13.72C168.247 14.3467 168.114 14.9933 167.847 15.66C167.581 16.3133 167.247 16.94 166.847 17.54C166.461 18.14 166.041 18.6867 165.587 19.18C165.134 19.66 164.714 20.0333 164.327 20.3C163.981 20.54 163.594 20.7667 163.167 20.98C162.754 21.18 162.341 21.28 161.927 21.28C161.661 21.28 161.474 21.2267 161.367 21.12C161.274 21.0133 161.227 20.8933 161.227 20.76C161.227 20.48 161.301 20.18 161.447 19.86C161.607 19.54 161.807 19.2267 162.047 18.92C162.287 18.6133 162.554 18.3133 162.847 18.02C163.154 17.7133 163.461 17.44 163.767 17.2C164.314 16.7733 164.814 16.42 165.267 16.14C165.734 15.8467 166.154 15.6 166.527 15.4C166.594 15.1867 166.627 15 166.627 14.84C166.627 14.68 166.627 14.5067 166.627 14.32C166.627 14.0133 166.594 13.7667 166.527 13.58C166.461 13.38 166.367 13.2267 166.247 13.12C166.141 13 166.014 12.92 165.867 12.88C165.734 12.84 165.587 12.82 165.427 12.82C165.121 12.82 164.734 12.9667 164.267 13.26C163.814 13.5533 163.287 14.02 162.687 14.66C162.554 14.9667 162.401 15.3467 162.227 15.8C162.067 16.24 161.887 16.7333 161.687 17.28C161.501 17.8133 161.294 18.3933 161.067 19.02C160.854 19.6467 160.634 20.2867 160.407 20.94C160.194 21.54 159.981 22.1333 159.767 22.72C159.567 23.32 159.381 23.8867 159.207 24.42C159.021 24.9667 158.854 25.4667 158.707 25.92C158.561 26.3867 158.441 26.7867 158.347 27.12C158.334 27.1867 158.327 27.2867 158.327 27.42C158.314 27.5533 158.294 27.6867 158.267 27.82C158.241 27.94 158.187 28.08 158.107 28.24C158.014 28.4 157.854 28.5733 157.627 28.76C157.334 28.9867 157.034 29.1 156.727 29.1C156.621 29.1 156.527 29.06 156.447 28.98C156.367 28.9 156.327 28.7667 156.327 28.58C156.327 28.46 156.354 28.2667 156.407 28C156.461 27.7467 156.581 27.3867 156.767 26.92C157.114 25.96 157.467 25.0067 157.827 24.06C158.134 23.2467 158.467 22.3667 158.827 21.42C159.174 20.4867 159.501 19.6133 159.807 18.8C159.981 18.3333 160.134 17.9067 160.267 17.52C160.414 17.1333 160.547 16.76 160.667 16.4C160.801 16.0267 160.934 15.6533 161.067 15.28C161.214 14.8933 161.367 14.4667 161.527 14C161.674 13.6133 161.814 13.22 161.947 12.82C162.081 12.4067 162.201 12.1467 162.307 12.04C162.507 11.84 162.727 11.6867 162.967 11.58C163.221 11.46 163.381 11.4 163.447 11.4C163.501 11.4 163.541 11.4067 163.567 11.42C163.607 11.42 163.627 11.4533 163.627 11.52C163.627 11.56 163.607 11.6533 163.567 11.8C163.527 11.9333 163.474 12.1067 163.407 12.32C163.354 12.52 163.281 12.74 163.187 12.98C163.107 13.22 163.027 13.4467 162.947 13.66L163.047 13.68C163.287 13.44 163.561 13.2067 163.867 12.98C164.187 12.74 164.507 12.5267 164.827 12.34C165.161 12.1533 165.481 12.0067 165.787 11.9C166.094 11.78 166.367 11.72 166.607 11.72C167.167 11.72 167.581 11.8667 167.847 12.16C168.114 12.4533 168.247 12.9733 168.247 13.72ZM166.387 16.08C166.281 16.12 166.127 16.1933 165.927 16.3C165.741 16.3933 165.534 16.5133 165.307 16.66C165.081 16.7933 164.841 16.9533 164.587 17.14C164.347 17.3133 164.127 17.5 163.927 17.7C163.754 17.8733 163.581 18.0533 163.407 18.24C163.234 18.4267 163.081 18.62 162.947 18.82C162.814 19.02 162.701 19.22 162.607 19.42C162.527 19.62 162.487 19.8267 162.487 20.04C162.487 20.28 162.674 20.4 163.047 20.4C163.234 20.4 163.441 20.3533 163.667 20.26C163.894 20.1533 164.127 19.98 164.367 19.74C164.514 19.5933 164.681 19.4 164.867 19.16C165.067 18.92 165.261 18.6467 165.447 18.34C165.647 18.02 165.827 17.6733 165.987 17.3C166.161 16.9133 166.294 16.5067 166.387 16.08Z" fill="url(#paint3_linear)"/>
<defs>
<linearGradient id="paint0_linear" x1="24.849" y1="0" x2="24.849" y2="40.0021" gradientUnits="userSpaceOnUse">
<stop stop-color="white"/>
<stop offset="1" stop-color="white" stop-opacity="0"/>
</linearGradient>
<linearGradient id="paint1_linear" x1="18.1503" y1="8.59259" x2="18.1503" y2="29.5418" gradientUnits="userSpaceOnUse">
<stop stop-color="white"/>
<stop offset="1" stop-color="white" stop-opacity="0"/>
</linearGradient>
<linearGradient id="paint2_linear" x1="32.4787" y1="16.8099" x2="32.4787" y2="35.346" gradientUnits="userSpaceOnUse">
<stop stop-color="white"/>
<stop offset="1" stop-color="white" stop-opacity="0"/>
</linearGradient>
<linearGradient id="paint3_linear" x1="113.5" y1="6" x2="113.5" y2="30" gradientUnits="userSpaceOnUse">
<stop stop-color="white"/>
<stop offset="1" stop-color="white" stop-opacity="0"/>
</linearGradient>
<clipPath id="clip0">
<rect width="49.697" height="40" fill="white"/>
</clipPath>
</defs>
</svg>
