<svg id="Layer_1" data-name="Layer 1" xmlns="http://www.w3.org/2000/svg" xmlns:xlink="http://www.w3.org/1999/xlink" viewBox="0 0 168.44 40"><defs><style>.cls-1{fill:none;}.cls-2{clip-path:url(#clip-path);}.cls-3{fill:#008fb1;}.cls-4{fill:#d33737;}</style><clipPath id="clip-path" transform="translate(0 0)"><rect class="cls-1" width="49.7" height="40"/></clipPath></defs><g class="cls-2"><path class="cls-3" d="M23,40S10.61,36.12,5.65,29.82C4.64,28.53-.26,24.19,0,12.4S11.42-4.63,29.4,5c0,0,22.53-8.91,20.12,8a25.75,25.75,0,0,1-6.15,14.29S47,21.71,47.1,12.46,29.39,9.92,29.39,9.92,20.93,6.17,13.28,6.43s-9.39,9.12-7.11,18.1S23,40,23,40Z" transform="translate(0 0)"/><path class="cls-4" d="M25.59,23.81a5.48,5.48,0,0,1-.31,1.12A5.38,5.38,0,0,1,24.69,26a3.18,3.18,0,0,1-.92.87,3.1,3.1,0,0,1-1,.44,9.82,9.82,0,0,1-1.17.26,9,9,0,0,1-1.26.13l-1.26,0c-.63,0-1.35,0-2.18,0l-2.74-.09c.15-.45.36-1.05.66-1.78s.63-1.53,1-2.38.76-1.77,1.18-2.71.83-1.84,1.24-2.7.8-1.66,1.18-2.38.7-1.33,1-1.78a13.51,13.51,0,0,1,2.12,1.72,11.27,11.27,0,0,1,1.66,2.11,10.21,10.21,0,0,1,1.09,2.43,9.33,9.33,0,0,1,.39,2.67,5.66,5.66,0,0,1-.09,1Zm1.51-4.87a11.28,11.28,0,0,0-1.4-2.69,12.35,12.35,0,0,0-2-2.22,21.21,21.21,0,0,0-2.34-1.78,1.51,1.51,0,0,1,.15-.28l.32-.44.38-.54c.13-.19.25-.37.35-.55l.63-.95a1.41,1.41,0,0,0,.26-.66.27.27,0,0,0,0-.12.18.18,0,0,0-.09-.08,1,1,0,0,0-.3,0c-.16,0-.36.13-.6.4a8.16,8.16,0,0,0-.74.91c-.24.35-.47.7-.7,1.06l-.52.83a10.28,10.28,0,0,0-2.33-.89,13.61,13.61,0,0,0-3.37-.34,3.73,3.73,0,0,0-.94.12A8.74,8.74,0,0,0,12.7,11a9.75,9.75,0,0,0-1.15.5,4.28,4.28,0,0,0-1,.65,5,5,0,0,0-1.5,2,6.51,6.51,0,0,0-.39,2.18,1.12,1.12,0,0,0,.2.76.63.63,0,0,0,.23.16.87.87,0,0,0,.28.05.86.86,0,0,0,.6-.38,1.15,1.15,0,0,0,.31-.72,1.19,1.19,0,0,0-.19-.63,1.41,1.41,0,0,1-.19-.7c0-.05,0-.15,0-.31A2.56,2.56,0,0,1,10,14a5.3,5.3,0,0,1,.28-.65,3.66,3.66,0,0,1,.52-.72,3.15,3.15,0,0,1,1.28-.73,5.87,5.87,0,0,1,1.81-.26,9.77,9.77,0,0,1,1.79.16,12.37,12.37,0,0,1,1.57.38,10.69,10.69,0,0,1,1.32.53,9.94,9.94,0,0,1,1,.54c-.18.32-.46.86-.85,1.64s-.84,1.72-1.38,2.86-1.15,2.42-1.82,3.86-1.38,3-2.13,4.7a15.16,15.16,0,0,1-1.06,2,3.54,3.54,0,0,0-.48.89c0,.14.09.22.26.24l.55,0h2.12c.73,0,1.44,0,2.12,0a19.43,19.43,0,0,0,2-.16,14.75,14.75,0,0,0,2-.4,11.61,11.61,0,0,0,2.08-.8,8.44,8.44,0,0,0,1.68-1.08,10.35,10.35,0,0,0,1.47-1.49,8.78,8.78,0,0,0,1-1.71,4.29,4.29,0,0,0,.39-1.73A9.55,9.55,0,0,0,27.1,18.94Z" transform="translate(0 0)"/><path class="cls-3" d="M25.59,23.81a5.48,5.48,0,0,1-.31,1.12A5.38,5.38,0,0,1,24.69,26a3.18,3.18,0,0,1-.92.87,3.1,3.1,0,0,1-1,.44,9.82,9.82,0,0,1-1.17.26,9,9,0,0,1-1.26.13l-1.26,0c-.63,0-1.35,0-2.18,0l-2.74-.09c.15-.45.36-1.05.66-1.78s.63-1.53,1-2.38.76-1.77,1.18-2.71.83-1.84,1.24-2.7.8-1.66,1.18-2.38.7-1.33,1-1.78a13.51,13.51,0,0,1,2.12,1.72,11.27,11.27,0,0,1,1.66,2.11,10.21,10.21,0,0,1,1.09,2.43,9.33,9.33,0,0,1,.39,2.67,5.66,5.66,0,0,1-.09,1Zm1.51-4.87a11.28,11.28,0,0,0-1.4-2.69,12.35,12.35,0,0,0-2-2.22,21.21,21.21,0,0,0-2.34-1.78,1.51,1.51,0,0,1,.15-.28l.32-.44.38-.54c.13-.19.25-.37.35-.55l.63-.95a1.41,1.41,0,0,0,.26-.66.27.27,0,0,0,0-.12.18.18,0,0,0-.09-.08,1,1,0,0,0-.3,0c-.16,0-.36.13-.6.4a8.16,8.16,0,0,0-.74.91c-.24.35-.47.7-.7,1.06l-.52.83a10.28,10.28,0,0,0-2.33-.89,13.61,13.61,0,0,0-3.37-.34,3.73,3.73,0,0,0-.94.12A8.74,8.74,0,0,0,12.7,11a9.75,9.75,0,0,0-1.15.5,4.28,4.28,0,0,0-1,.65,5,5,0,0,0-1.5,2,6.51,6.51,0,0,0-.39,2.18,1.12,1.12,0,0,0,.2.76.63.63,0,0,0,.23.16.87.87,0,0,0,.28.05.86.86,0,0,0,.6-.38,1.15,1.15,0,0,0,.31-.72,1.19,1.19,0,0,0-.19-.63,1.41,1.41,0,0,1-.19-.7c0-.05,0-.15,0-.31A2.56,2.56,0,0,1,10,14a5.3,5.3,0,0,1,.28-.65,3.66,3.66,0,0,1,.52-.72,3.15,3.15,0,0,1,1.28-.73,5.87,5.87,0,0,1,1.81-.26,9.77,9.77,0,0,1,1.79.16,12.37,12.37,0,0,1,1.57.38,10.69,10.69,0,0,1,1.32.53,9.94,9.94,0,0,1,1,.54c-.18.32-.46.86-.85,1.64s-.84,1.72-1.38,2.86-1.15,2.42-1.82,3.86-1.38,3-2.13,4.7a15.16,15.16,0,0,1-1.06,2,3.54,3.54,0,0,0-.48.89c0,.14.09.22.26.24l.55,0h2.12c.73,0,1.44,0,2.12,0a19.43,19.43,0,0,0,2-.16,14.75,14.75,0,0,0,2-.4,11.61,11.61,0,0,0,2.08-.8,8.44,8.44,0,0,0,1.68-1.08,10.35,10.35,0,0,0,1.47-1.49,8.78,8.78,0,0,0,1-1.71,4.29,4.29,0,0,0,.39-1.73A9.55,9.55,0,0,0,27.1,18.94Z" transform="translate(0 0)"/><path class="cls-4" d="M44.28,31.36,44,30.94l-1.35.9c-.46.31-.91.58-1.34.82a9,9,0,0,1-1.2.6,2.61,2.61,0,0,1-1,.24.59.59,0,0,1-.53-.21,1,1,0,0,1-.13-.5,6.34,6.34,0,0,1,.2-1.22c.13-.56.3-1.19.52-1.88s.46-1.43.7-2.2l.75-2.21.67-1.9c.2-.56.35-1,.46-1.26s.33-.61.53-1,.39-.85.58-1.3.34-.86.47-1.25a3,3,0,0,0,.19-.87,2.56,2.56,0,0,0-.05-.62.25.25,0,0,0-.12-.19.29.29,0,0,0-.22-.06,2.29,2.29,0,0,0-.78.14,1.89,1.89,0,0,0-.79.67,4.34,4.34,0,0,0-.43.68c-.12.24-.23.5-.33.76l-.34.94-.42,1.22c-1.2,1.87-2.28,3.46-3.24,4.8s-1.79,2.42-2.49,3.27a20.07,20.07,0,0,1-1.68,1.89c-.43.4-.7.6-.8.6s-.1-.06-.1-.19a8.37,8.37,0,0,1,.24-1.4c.17-.7.38-1.53.64-2.47s.56-1.94.89-3,.64-2.09,1-3.07c.25-.78.49-1.48.74-2.09a4.66,4.66,0,0,0,.36-1.77c0-.19,0-.31-.15-.35a1.36,1.36,0,0,0-.53-.07,1.57,1.57,0,0,0-.89.24,1.64,1.64,0,0,0-.57.6q-.16.29-.24.45l-.16.38-.18.54c-.07.21-.17.51-.31.87-.26.54-.63,1.22-1.1,2S30.51,24.12,30,25s-1.09,1.72-1.65,2.54-1.05,1.5-1.49,2.06-.95,1.17-1.34,1.57a10.16,10.16,0,0,1-1,1,3.77,3.77,0,0,1-.75.5,1.34,1.34,0,0,1-.52.14.63.63,0,0,1-.38-.11.55.55,0,0,1-.22-.32,2.4,2.4,0,0,1-.16-.83v-.32a1,1,0,0,1,0-.25l-.16,0A3.44,3.44,0,0,0,21.2,32a2.83,2.83,0,0,0-.52,1.67,4.06,4.06,0,0,0,0,.42,1.48,1.48,0,0,0,.13.5,1.2,1.2,0,0,0,.31.4.88.88,0,0,0,.6.17,2.65,2.65,0,0,0,.93-.18,4.3,4.3,0,0,0,1.1-.68,11.81,11.81,0,0,0,1.39-1.35c.51-.56,1.11-1.28,1.79-2.18.21-.28.47-.65.8-1.11s.66-.95,1-1.49.72-1.07,1.08-1.63.71-1.08,1-1.57l.78-1.25.44-.7.13.05-.42,1.65c-.21.83-.46,1.76-.75,2.78s-.56,2-.82,2.92-.48,1.76-.66,2.46a7.93,7.93,0,0,0-.26,1.37,1.27,1.27,0,0,0,.08.51c.05.11.19.17.42.17a.84.84,0,0,0,.48-.21,4.38,4.38,0,0,0,.62-.52l.63-.65.52-.58c1.79-2.07,3.25-3.8,4.35-5.19s2-2.51,2.66-3.37l.1,0c-.54,1.62-1,3.11-1.46,4.47-.19.57-.37,1.15-.55,1.73s-.33,1.13-.46,1.62-.24.93-.32,1.3a3.45,3.45,0,0,0-.14.78,2,2,0,0,0,.14.68c.08.24.34.37.75.37a3.07,3.07,0,0,0,.53-.07,4.26,4.26,0,0,0,.76-.26c.29-.13.65-.31,1.07-.52s.9-.51,1.46-.88L42,32.93l.86-.55c.26-.16.5-.33.73-.48a6.73,6.73,0,0,0,.65-.52" transform="translate(0 0)"/><path class="cls-3" d="M44.28,31.36,44,30.94l-1.35.9c-.46.31-.91.58-1.34.82a9,9,0,0,1-1.2.6,2.61,2.61,0,0,1-1,.24.59.59,0,0,1-.53-.21,1,1,0,0,1-.13-.5,6.34,6.34,0,0,1,.2-1.22c.13-.56.3-1.19.52-1.88s.46-1.43.7-2.2l.75-2.21.67-1.9c.2-.56.35-1,.46-1.26s.33-.61.53-1,.39-.85.58-1.3.34-.86.47-1.25a3,3,0,0,0,.19-.87,2.56,2.56,0,0,0-.05-.62.25.25,0,0,0-.12-.19.29.29,0,0,0-.22-.06,2.29,2.29,0,0,0-.78.14,1.89,1.89,0,0,0-.79.67,4.34,4.34,0,0,0-.43.68c-.12.24-.23.5-.33.76l-.34.94-.42,1.22c-1.2,1.87-2.28,3.46-3.24,4.8s-1.79,2.42-2.49,3.27a20.07,20.07,0,0,1-1.68,1.89c-.43.4-.7.6-.8.6s-.1-.06-.1-.19a8.37,8.37,0,0,1,.24-1.4c.17-.7.38-1.53.64-2.47s.56-1.94.89-3,.64-2.09,1-3.07c.25-.78.49-1.48.74-2.09a4.66,4.66,0,0,0,.36-1.77c0-.19,0-.31-.15-.35a1.36,1.36,0,0,0-.53-.07,1.57,1.57,0,0,0-.89.24,1.64,1.64,0,0,0-.57.6q-.16.29-.24.45l-.16.38-.18.54c-.07.21-.17.51-.31.87-.26.54-.63,1.22-1.1,2S30.51,24.12,30,25s-1.09,1.72-1.65,2.54-1.05,1.5-1.49,2.06-.95,1.17-1.34,1.57a10.16,10.16,0,0,1-1,1,3.77,3.77,0,0,1-.75.5,1.34,1.34,0,0,1-.52.14.63.63,0,0,1-.38-.11.55.55,0,0,1-.22-.32,2.4,2.4,0,0,1-.16-.83v-.32a1,1,0,0,1,0-.25l-.16,0A3.44,3.44,0,0,0,21.2,32a2.83,2.83,0,0,0-.52,1.67,4.06,4.06,0,0,0,0,.42,1.48,1.48,0,0,0,.13.5,1.2,1.2,0,0,0,.31.4.88.88,0,0,0,.6.17,2.65,2.65,0,0,0,.93-.18,4.3,4.3,0,0,0,1.1-.68,11.81,11.81,0,0,0,1.39-1.35c.51-.56,1.11-1.28,1.79-2.18.21-.28.47-.65.8-1.11s.66-.95,1-1.49.72-1.07,1.08-1.63.71-1.08,1-1.57l.78-1.25.44-.7.13.05-.42,1.65c-.21.83-.46,1.76-.75,2.78s-.56,2-.82,2.92-.48,1.76-.66,2.46a7.93,7.93,0,0,0-.26,1.37,1.27,1.27,0,0,0,.08.51c.05.11.19.17.42.17a.84.84,0,0,0,.48-.21,4.38,4.38,0,0,0,.62-.52l.63-.65.52-.58c1.79-2.07,3.25-3.8,4.35-5.19s2-2.51,2.66-3.37l.1,0c-.54,1.62-1,3.11-1.46,4.47-.19.57-.37,1.15-.55,1.73s-.33,1.13-.46,1.62-.24.93-.32,1.3a3.45,3.45,0,0,0-.14.78,2,2,0,0,0,.14.68c.08.24.34.37.75.37a3.07,3.07,0,0,0,.53-.07,4.26,4.26,0,0,0,.76-.26c.29-.13.65-.31,1.07-.52s.9-.51,1.46-.88L42,32.93l.86-.55c.26-.16.5-.33.73-.48a6.73,6.73,0,0,0,.65-.52" transform="translate(0 0)"/></g><path class="cls-3" d="M74,23.76a3.24,3.24,0,0,1-.3,1.32,6.55,6.55,0,0,1-.8,1.32,8.61,8.61,0,0,1-1.12,1.14,6.59,6.59,0,0,1-1.28.82,9.72,9.72,0,0,1-1.6.62,13.6,13.6,0,0,1-1.52.3,13.14,13.14,0,0,1-1.54.12l-1.62,0H63l-.26,0h-.18l-.42,0c-.13,0-.2-.07-.2-.18a2.71,2.71,0,0,1,.36-.68A12,12,0,0,0,63.12,27q.85-1.93,1.62-3.6c.52-1.11,1-2.09,1.4-3s.77-1.59,1.06-2.18.51-1,.64-1.26a8.72,8.72,0,0,0-.78-.42,8,8,0,0,0-1-.4,8.76,8.76,0,0,0-1.2-.3,7.4,7.4,0,0,0-1.36-.12,4.55,4.55,0,0,0-1.38.2,2.39,2.39,0,0,0-1,.56,2.43,2.43,0,0,0-.4.56,3.05,3.05,0,0,0-.22.5,2.35,2.35,0,0,0-.08.4v.24a1.14,1.14,0,0,0,.14.54.88.88,0,0,1,.16.48.93.93,0,0,1-.24.56.63.63,0,0,1-.46.28.54.54,0,0,1-.4-.16.93.93,0,0,1-.14-.58,4.81,4.81,0,0,1,.3-1.66,3.73,3.73,0,0,1,1.14-1.56,3.69,3.69,0,0,1,.74-.5,8.35,8.35,0,0,1,.88-.38,5.55,5.55,0,0,1,.88-.24,3,3,0,0,1,.72-.1,10.74,10.74,0,0,1,2.58.26,7.76,7.76,0,0,1,1.78.68c.09-.15.23-.35.4-.62s.35-.55.54-.82a6.12,6.12,0,0,1,.56-.7c.19-.2.34-.3.46-.3a.46.46,0,0,1,.22,0c.07,0,.1.06.1.14a1.11,1.11,0,0,1-.2.52l-.48.72c-.08.13-.17.27-.28.42s-.19.29-.28.42-.17.23-.24.34a.67.67,0,0,0-.12.2A15,15,0,0,1,71,17.56a9.18,9.18,0,0,1,1.54,1.7,8.72,8.72,0,0,1,1.06,2.06A7.14,7.14,0,0,1,74,23.76Zm-1.48.52a6.9,6.9,0,0,0-.3-2,7.46,7.46,0,0,0-.84-1.86,8.2,8.2,0,0,0-1.26-1.62,10.37,10.37,0,0,0-1.62-1.32c-.21.35-.47.8-.76,1.36s-.58,1.17-.9,1.84-.62,1.34-.94,2.06-.62,1.41-.9,2.08S64.43,26,64.2,26.6s-.39,1-.5,1.36l2.08.08,1.68,0,1,0a8.22,8.22,0,0,0,1.86-.3A2.4,2.4,0,0,0,71,27.4a2.32,2.32,0,0,0,.7-.66,3.85,3.85,0,0,0,.44-.82,3.58,3.58,0,0,0,.24-.86A4.69,4.69,0,0,0,72.48,24.28Zm10.41,2.64a4.62,4.62,0,0,1-.58.44,12.56,12.56,0,0,1-1.34.82,14.21,14.21,0,0,1-1.82.78,6.14,6.14,0,0,1-2,.34,2.67,2.67,0,0,1-1.9-.6,2.51,2.51,0,0,1-.62-1.9,6,6,0,0,1,.46-2.06,8.94,8.94,0,0,1,1.52-2.46A9.58,9.58,0,0,1,77.83,21a7.44,7.44,0,0,1,1.22-.84,4.85,4.85,0,0,1,1.08-.46,2.94,2.94,0,0,1,.88-.16,1.43,1.43,0,0,1,.8.16.58.58,0,0,1,.22.52,2.24,2.24,0,0,1-.68,1.26c-.44.51-1,1.09-1.72,1.76-.28.27-.61.57-1,.9l-1,1c-.39.35-.78.7-1.16,1.06v.3A1.93,1.93,0,0,0,77,28a2.08,2.08,0,0,0,1.36.4,4.71,4.71,0,0,0,1.58-.28,12.16,12.16,0,0,0,1.44-.64,11,11,0,0,0,1.46-.94Zm-2.56-5.76c0-.21-.06-.35-.18-.4a1.06,1.06,0,0,0-.4-.08,2.17,2.17,0,0,0-1,.3,3.29,3.29,0,0,0-1.06.94,4.21,4.21,0,0,0-.44.68,8,8,0,0,0-.42.88,9.39,9.39,0,0,0-.32,1,5.3,5.3,0,0,0-.14,1l.82-.7.78-.7c.28-.25.54-.51.8-.78a14.63,14.63,0,0,0,1.08-1.22A1.65,1.65,0,0,0,80.33,21.16Zm12.35,5.56a10.47,10.47,0,0,1-1,.72,13.79,13.79,0,0,1-1.48.88c-.72.37-1.32.66-1.8.86a3.19,3.19,0,0,1-1,.3c-.17,0-.28-.05-.32-.14A.73.73,0,0,1,87,29a3,3,0,0,1,.08-.52c.06-.24.12-.51.2-.82s.19-.63.28-1,.21-.68.3-1c0-.09.06-.21.1-.36s.11-.31.16-.46l.18-.54a4.77,4.77,0,0,1-.62.4c-.21.11-.48.23-.8.38a8.52,8.52,0,0,1-1.12.38l-.46.12a2,2,0,0,0-.38.06,1.59,1.59,0,0,1-.36,0c0,.19-.09.41-.16.68a6.84,6.84,0,0,1-.24.82q-.14.41-.3.78a1.59,1.59,0,0,1-.36.56,1.74,1.74,0,0,1-.6.44,1.18,1.18,0,0,1-.48.1c-.22,0-.36,0-.4-.12a.74.74,0,0,1-.08-.38A1.2,1.2,0,0,1,82,28.3c0-.16.09-.33.14-.5s.14-.37.2-.56.12-.37.16-.52l.34-1.06a.54.54,0,0,1-.16-.22,2.32,2.32,0,0,1,0-.24.53.53,0,0,1,.2-.42,1.12,1.12,0,0,1,.56-.22l.18-.44c.12-.28.24-.57.34-.86s.21-.59.3-.86.2-.53.28-.74a4.65,4.65,0,0,1,.26-.54,1.82,1.82,0,0,1,.78-.78,2.1,2.1,0,0,1,.74-.2c.1,0,.14.07.14.22a1,1,0,0,1-.06.24c0,.11-.09.24-.16.4s-.14.31-.22.5l-.18.5-.32.92c-.1.32-.2.61-.3.88s-.21.63-.32.94a8.13,8.13,0,0,0,1.5-.12,6.46,6.46,0,0,0,1.1-.28,3.54,3.54,0,0,0,.68-.34,1,1,0,0,0,.3-.26,3.74,3.74,0,0,0,.16-.44c0-.09.1-.26.18-.5.15-.45.29-.86.42-1.22a3,3,0,0,1,.6-1,1.54,1.54,0,0,1,.34-.28l.36-.2a1.05,1.05,0,0,1,.3-.1l.24,0a.29.29,0,0,1,.22.08c.07,0,.1.13.1.28a3.35,3.35,0,0,1-.4,1.38,11.6,11.6,0,0,1-1.08,1.78c-.16.44-.31.88-.46,1.32s-.26.85-.38,1.24-.19.73-.26,1a5,5,0,0,0-.08.72.43.43,0,0,0,.06.22.24.24,0,0,0,.22.1,2.29,2.29,0,0,0,.74-.14,7.3,7.3,0,0,0,.86-.4c.31-.16.62-.34.94-.54l.94-.6Zm13.39-9.56a8.48,8.48,0,0,1-1.18.6,14.91,14.91,0,0,1-1.76.6,17.66,17.66,0,0,1-2.22.46,18.07,18.07,0,0,1-2.62.18,4,4,0,0,1-1.18-.16,5.08,5.08,0,0,1-.74-.26,3.61,3.61,0,0,1,.76-.86,4.3,4.3,0,0,0,1.16.28,14.72,14.72,0,0,0,2,.12,17.88,17.88,0,0,0,2.22-.12,15,15,0,0,0,1.62-.32,10.75,10.75,0,0,0,1.1-.34c.29-.12.52-.21.68-.26ZM106,26.52c-.27.23-.64.51-1.12.86s-1,.65-1.48,1a12.93,12.93,0,0,1-1.52.78,2.88,2.88,0,0,1-1.16.34.28.28,0,0,1-.3-.18,1.58,1.58,0,0,1,0-.38,1.56,1.56,0,0,1,.08-.4c0-.21.12-.47.22-.76l.3-1c.12-.35.23-.7.34-1.06s.23-.75.34-1.12.22-.71.32-1,.16-.59.22-.82a2.62,2.62,0,0,0,.1-.52,1,1,0,0,0,0-.2.12.12,0,0,0-.12-.08,1,1,0,0,0-.38.22,4,4,0,0,0-.52.44c-.24.24-.55.57-.92,1a18.48,18.48,0,0,0-1.24,1.56c-.14.19-.29.41-.46.68s-.32.53-.46.78-.28.48-.38.68-.18.29-.2.32l-.3.26c-.12.11-.26.21-.4.32a4.54,4.54,0,0,1-.44.28.86.86,0,0,1-.4.12c-.06,0-.08,0-.08-.08a.44.44,0,0,1,0-.16,2.23,2.23,0,0,1,.06-.26,2.86,2.86,0,0,1,.12-.42l.24-.66,1.26-3.6a8.25,8.25,0,0,0,.4-1.42c0-.11,0-.17-.1-.18-.23,0-.78.45-1.64,1.34a9.61,9.61,0,0,0-1.08,1.28c-.34.45-.64.91-.92,1.36s-.54.89-.76,1.3-.39.77-.52,1.06l-.24.24c-.1.08-.2.16-.32.24a2,2,0,0,1-.38.2.94.94,0,0,1-.36.08c-.1,0-.16,0-.18-.08a.54.54,0,0,1,0-.22,1,1,0,0,1,0-.24,1.52,1.52,0,0,1,.12-.36,3.73,3.73,0,0,1,.14-.44,3.72,3.72,0,0,1,.16-.44l.36-1c.1-.29.2-.57.28-.82l.22-.76q.12-.37.24-.78c0-.15.08-.33.14-.56s.13-.45.2-.68l.22-.66a3,3,0,0,1,.18-.5,1.51,1.51,0,0,1,.34-.52,2.66,2.66,0,0,1,.5-.4,1.85,1.85,0,0,1,.5-.26,1.36,1.36,0,0,1,.38-.08c.09,0,.14.07.14.22a5.73,5.73,0,0,1-.16.6c-.08.29-.17.58-.26.86s-.26.77-.4,1.2-.3.83-.44,1.2-.33.87-.5,1.3l.08.06a8.87,8.87,0,0,1,.5-.76c.21-.29.43-.59.66-.88s.48-.6.72-.88a10.29,10.29,0,0,1,.72-.74c.68-.64,1.26-1.15,1.74-1.54a2.16,2.16,0,0,1,1.26-.6.38.38,0,0,1,.22.06c.06,0,.1.15.1.32a3.3,3.3,0,0,1-.18.8c-.11.39-.24.8-.4,1.24s-.3.87-.44,1.3-.26.73-.34,1h.08c.72-.85,1.36-1.57,1.94-2.14a14.1,14.1,0,0,1,1.54-1.38,6.58,6.58,0,0,1,1.1-.74,1.74,1.74,0,0,1,.7-.22.17.17,0,0,1,.18.12.5.5,0,0,1,.06.26,3.3,3.3,0,0,1-.1.58l-.26.9c-.1.35-.21.73-.34,1.14l-.36,1.24c0,.16-.12.39-.22.7s-.22.63-.32,1-.18.62-.26.9a2.7,2.7,0,0,0-.12.54q0,.3.24.3a2.11,2.11,0,0,0,.66-.14,8.2,8.2,0,0,0,.84-.42c.3-.17.62-.37.94-.58s.63-.44.94-.68Zm16.54-.24a3.81,3.81,0,0,1-.5.4l-.56.38-.66.42L120,28c-.42.28-.8.51-1.12.68s-.59.29-.82.38a2.23,2.23,0,0,1-.58.2,1.68,1.68,0,0,1-.4.06c-.32,0-.51-.09-.58-.28a1.76,1.76,0,0,1-.1-.52,3.6,3.6,0,0,1,.1-.6l.24-1c.11-.39.23-.8.36-1.24l.42-1.34c.34-1,.71-2.18,1.12-3.42l-.08,0q-.75,1-2,2.58c-.84,1.07-1.94,2.39-3.32,4-.1.12-.24.27-.4.44l-.48.5a3.39,3.39,0,0,1-.48.4.62.62,0,0,1-.36.16c-.17,0-.28,0-.32-.12a1.05,1.05,0,0,1-.06-.4,6,6,0,0,1,.2-1c.14-.55.3-1.17.5-1.88s.41-1.47.62-2.24.42-1.5.58-2.14l.32-1.26-.1,0c0,.09-.16.27-.34.54s-.36.59-.6,1-.48.77-.76,1.2-.56.85-.84,1.26-.52.78-.78,1.14-.44.63-.6.84q-.78,1-1.38,1.68a8.14,8.14,0,0,1-1.06,1A2.83,2.83,0,0,1,106,29a2,2,0,0,1-.7.14.7.7,0,0,1-.46-.14.89.89,0,0,1-.24-.3,1.64,1.64,0,0,1-.1-.38c0-.13,0-.24,0-.32a2.19,2.19,0,0,1,.4-1.28,2.66,2.66,0,0,1,.86-.8l.12,0a1.36,1.36,0,0,0,0,.2v.24A1.94,1.94,0,0,0,106,27a.46.46,0,0,0,.46.32,1,1,0,0,0,.4-.1,3.27,3.27,0,0,0,.56-.38,8.36,8.36,0,0,0,.78-.74c.3-.32.64-.73,1-1.22s.72-1,1.14-1.58.85-1.27,1.26-1.94.8-1.31,1.16-1.92.64-1.15.84-1.56.19-.5.24-.66.1-.31.14-.42a2.61,2.61,0,0,1,.12-.28q.06-.14.18-.36a1.38,1.38,0,0,1,.44-.46,1.25,1.25,0,0,1,.68-.18,1,1,0,0,1,.4.06c.08,0,.12.11.12.26a3.6,3.6,0,0,1-.28,1.36c-.18.47-.37,1-.56,1.6s-.48,1.53-.74,2.36-.46,1.58-.66,2.3-.36,1.35-.5,1.9a6.2,6.2,0,0,0-.18,1.06c0,.09,0,.14.08.14s.28-.15.6-.46A14.16,14.16,0,0,0,115,24.7c.54-.65,1.17-1.49,1.9-2.5s1.56-2.25,2.48-3.68l.32-.94c.1-.27.18-.51.26-.72s.16-.41.24-.58a5.13,5.13,0,0,1,.34-.52,1.33,1.33,0,0,1,.6-.5,1.61,1.61,0,0,1,.6-.12.23.23,0,0,1,.26.2,2,2,0,0,1,0,.46,2.24,2.24,0,0,1-.16.68,10,10,0,0,1-.36,1c-.13.33-.28.66-.44,1a6.87,6.87,0,0,1-.4.78l-.36,1c-.14.43-.31.91-.5,1.46s-.38,1.09-.58,1.68-.36,1.15-.54,1.68-.29,1-.4,1.44a5.27,5.27,0,0,0-.14.94.77.77,0,0,0,.1.38.43.43,0,0,0,.4.16,1.89,1.89,0,0,0,.72-.18,6.57,6.57,0,0,0,.92-.46c.34-.19.68-.39,1-.62l1-.7Zm10.17.28a10.65,10.65,0,0,1-1.44,1.2,14.85,14.85,0,0,1-1.56,1,10.29,10.29,0,0,1-1.42.66,3.11,3.11,0,0,1-1,.24.66.66,0,0,1-.48-.2,1.2,1.2,0,0,1-.18-.78,6.22,6.22,0,0,1,.08-1c.07-.32.13-.62.2-.9h-.08a8.15,8.15,0,0,1-1.92,1.78,3.43,3.43,0,0,1-1.82.64,1,1,0,0,1-1-.48,2.93,2.93,0,0,1-.24-1.3,5,5,0,0,1,.16-1.2,8.07,8.07,0,0,1,.46-1.36,9.46,9.46,0,0,1,.72-1.32,6.73,6.73,0,0,1,1-1.16,8,8,0,0,1,2.46-1.7,5.89,5.89,0,0,1,2.26-.48,2.67,2.67,0,0,1,.5.06,2.05,2.05,0,0,1,.58.18,1.27,1.27,0,0,1,.5.34.75.75,0,0,1,.22.56,1.43,1.43,0,0,1,0,.38.64.64,0,0,1-.1.26,1.6,1.6,0,0,1-.22.26l-.34.32a7.78,7.78,0,0,1-.36.82,9.23,9.23,0,0,0-.46,1c-.33.85-.59,1.56-.76,2.12a5,5,0,0,0-.26,1.36,1.19,1.19,0,0,0,.08.46.4.4,0,0,0,.38.18,2.15,2.15,0,0,0,.74-.16,7.31,7.31,0,0,0,1-.48,11.16,11.16,0,0,0,1.1-.74,8.83,8.83,0,0,0,1.1-.94Zm-3.38-5a.69.69,0,0,0-.2-.3,1,1,0,0,0-.28-.2,1,1,0,0,0-.34-.1,1.13,1.13,0,0,0-.3,0,4.1,4.1,0,0,0-1,.1,3,3,0,0,0-.86.36,3.73,3.73,0,0,0-.86.7,8.42,8.42,0,0,0-.9,1.16,6.17,6.17,0,0,0-.46.86,8.89,8.89,0,0,0-.38,1,9.5,9.5,0,0,0-.26,1,5,5,0,0,0-.08.76,1.24,1.24,0,0,0,.24.88.8.8,0,0,0,.54.22,2.65,2.65,0,0,0,1.54-.66,6,6,0,0,0,1.56-2.18,9.13,9.13,0,0,0,.46-1.18c.12-.37.25-.71.38-1a4,4,0,0,1,.18-.4,2.83,2.83,0,0,1,.3-.44,2.4,2.4,0,0,1,.34-.36A.51.51,0,0,1,129.32,21.56Zm10.46,5.1c0,.05-.2.22-.58.5a14.18,14.18,0,0,1-3.34,1.76,5.91,5.91,0,0,1-2,.38,2.49,2.49,0,0,1-1.7-.52,2.09,2.09,0,0,1-.58-1.64,5.4,5.4,0,0,1,.16-1.28,6,6,0,0,1,.48-1.38A8.66,8.66,0,0,1,133,23.1a9,9,0,0,1,1-1.28,6.93,6.93,0,0,1,1.1-.94,6.69,6.69,0,0,1,1.14-.66,6.22,6.22,0,0,1,1-.38,3.07,3.07,0,0,1,.78-.14,1.59,1.59,0,0,1,.62.12c.18.07.28.28.28.64a3,3,0,0,1-.14.76,1.79,1.79,0,0,1-.54.82,2.1,2.1,0,0,1-.64.38,1.94,1.94,0,0,1-.42.08.18.18,0,0,1-.16-.12l.2-.44a1.78,1.78,0,0,0,.16-.48c0-.15,0-.25,0-.32a.47.47,0,0,0-.1-.32.4.4,0,0,0-.32-.1,2.36,2.36,0,0,0-1.3.44,4.62,4.62,0,0,0-1.18,1.16,6.42,6.42,0,0,0-.86,1.74,6.25,6.25,0,0,0-.34,2.1,6.58,6.58,0,0,0,0,.74,2,2,0,0,0,.18.7,1.52,1.52,0,0,0,.44.54,1.43,1.43,0,0,0,.8.2,4.15,4.15,0,0,0,1.26-.16,8.51,8.51,0,0,0,.88-.32c.37-.16.71-.33,1-.5l.78-.46.52-.36a.72.72,0,0,1,.22-.14.29.29,0,0,1,.16.06C139.75,26.49,139.78,26.55,139.78,26.66ZM153,17.16a8.48,8.48,0,0,1-1.18.6,14.31,14.31,0,0,1-1.76.6,17.66,17.66,0,0,1-2.22.46,18,18,0,0,1-2.62.18,4,4,0,0,1-1.18-.16,5.08,5.08,0,0,1-.74-.26,3.61,3.61,0,0,1,.76-.86,4.3,4.3,0,0,0,1.16.28,14.72,14.72,0,0,0,2,.12,17.88,17.88,0,0,0,2.22-.12,14.51,14.51,0,0,0,1.62-.32,10.75,10.75,0,0,0,1.1-.34c.29-.12.52-.21.68-.26ZM153,26.52c-.27.23-.64.51-1.12.86s-1,.65-1.48,1a12.93,12.93,0,0,1-1.52.78,2.88,2.88,0,0,1-1.16.34.28.28,0,0,1-.3-.18,1.58,1.58,0,0,1,0-.38,2.21,2.21,0,0,1,.08-.4c.05-.21.12-.47.22-.76l.3-1c.12-.35.23-.7.34-1.06s.23-.75.34-1.12.23-.71.32-1,.16-.59.22-.82a2,2,0,0,0,.1-.52,1,1,0,0,0,0-.2.11.11,0,0,0-.12-.08,1,1,0,0,0-.38.22,4.79,4.79,0,0,0-.52.44c-.24.24-.55.57-.92,1a18.48,18.48,0,0,0-1.24,1.56c-.13.19-.29.41-.46.68l-.46.78c-.15.25-.27.48-.38.68a2.45,2.45,0,0,1-.2.32l-.3.26a4.67,4.67,0,0,1-.4.32,3.59,3.59,0,0,1-.44.28.86.86,0,0,1-.4.12c-.06,0-.08,0-.08-.08a.88.88,0,0,1,0-.16,2.23,2.23,0,0,1,.06-.26c0-.11.07-.25.12-.42s.15-.39.24-.66l1.26-3.6A8.25,8.25,0,0,0,145,22c0-.11,0-.17-.1-.18-.23,0-.78.45-1.64,1.34a9.61,9.61,0,0,0-1.08,1.28c-.34.45-.64.91-.92,1.36s-.54.89-.76,1.3-.39.77-.52,1.06a2.69,2.69,0,0,1-.24.24c-.1.08-.2.16-.32.24a2,2,0,0,1-.38.2.94.94,0,0,1-.36.08.18.18,0,0,1-.18-.08.54.54,0,0,1,0-.22,1,1,0,0,1,0-.24,2.17,2.17,0,0,1,.12-.36,3.73,3.73,0,0,1,.14-.44,3.72,3.72,0,0,1,.16-.44l.36-1c.11-.29.2-.57.28-.82l.22-.76q.12-.37.24-.78c0-.15.09-.33.14-.56s.13-.45.2-.68l.22-.66a3,3,0,0,1,.18-.5,1.51,1.51,0,0,1,.34-.52,2.66,2.66,0,0,1,.5-.4,1.85,1.85,0,0,1,.5-.26,1.43,1.43,0,0,1,.38-.08c.09,0,.14.07.14.22a3.93,3.93,0,0,1-.16.6c-.08.29-.17.58-.26.86s-.25.77-.4,1.2-.3.83-.44,1.2-.33.87-.5,1.3l.08.06a8.87,8.87,0,0,1,.5-.76c.21-.29.43-.59.66-.88s.48-.6.72-.88a10.29,10.29,0,0,1,.72-.74c.68-.64,1.26-1.15,1.74-1.54a2.16,2.16,0,0,1,1.26-.6.38.38,0,0,1,.22.06c.07,0,.1.15.1.32a3.3,3.3,0,0,1-.18.8c-.11.39-.24.8-.4,1.24s-.3.87-.44,1.3-.26.73-.34,1h.08c.72-.85,1.37-1.57,1.94-2.14a15.09,15.09,0,0,1,1.54-1.38,6.58,6.58,0,0,1,1.1-.74,1.78,1.78,0,0,1,.7-.22.17.17,0,0,1,.18.12.5.5,0,0,1,.06.26,3.3,3.3,0,0,1-.1.58l-.26.9c-.1.35-.21.73-.34,1.14l-.36,1.24c0,.16-.12.39-.22.7s-.21.63-.32,1l-.26.9a2.7,2.7,0,0,0-.12.54q0,.3.24.3a2.06,2.06,0,0,0,.66-.14,8.2,8.2,0,0,0,.84-.42c.31-.17.62-.37.94-.58s.63-.44.94-.68Zm7.47.4a4.62,4.62,0,0,1-.58.44,12.56,12.56,0,0,1-1.34.82,13.79,13.79,0,0,1-1.83.78,6,6,0,0,1-2,.34,2.66,2.66,0,0,1-1.89-.6,2.52,2.52,0,0,1-.63-1.9,6.2,6.2,0,0,1,.46-2.06,9.24,9.24,0,0,1,1.53-2.46A9,9,0,0,1,155.37,21a7.44,7.44,0,0,1,1.22-.84,5,5,0,0,1,1.07-.46,3,3,0,0,1,.88-.16,1.45,1.45,0,0,1,.81.16.58.58,0,0,1,.22.52,2.2,2.2,0,0,1-.69,1.26,22.64,22.64,0,0,1-1.72,1.76c-.28.27-.6.57-1,.9l-1,1L154,26.2v.3a1.89,1.89,0,0,0,.48,1.5,2.08,2.08,0,0,0,1.36.4,4.71,4.71,0,0,0,1.58-.28,12.16,12.16,0,0,0,1.44-.64,10.25,10.25,0,0,0,1.45-.94Zm-2.56-5.76c0-.21-.07-.35-.19-.4a1,1,0,0,0-.39-.08,2.24,2.24,0,0,0-1,.3,3.5,3.5,0,0,0-1.06.94,6.21,6.21,0,0,0-.44.68c-.14.27-.28.56-.42.88s-.22.66-.31,1a5.3,5.3,0,0,0-.14,1l.81-.7c.25-.21.5-.45.78-.7s.55-.51.81-.78a14.63,14.63,0,0,0,1.08-1.22A1.65,1.65,0,0,0,157.87,21.16Zm10.57.56a5.14,5.14,0,0,1-.4,1.94,10.3,10.3,0,0,1-1,1.88,11,11,0,0,1-1.26,1.64,8.06,8.06,0,0,1-1.26,1.12,8.44,8.44,0,0,1-1.16.68,2.79,2.79,0,0,1-1.24.3.78.78,0,0,1-.56-.16.56.56,0,0,1-.14-.36,2.28,2.28,0,0,1,.22-.9,5.7,5.7,0,0,1,.6-.94,9.55,9.55,0,0,1,.8-.9,11.1,11.1,0,0,1,.92-.82,17.29,17.29,0,0,1,1.5-1.06c.47-.29.89-.54,1.26-.74q0-.28.06-.54a3.12,3.12,0,0,0,0-.54,2.17,2.17,0,0,0-.1-.74,1,1,0,0,0-.28-.46.73.73,0,0,0-.38-.24,1.51,1.51,0,0,0-.44-.06,2.41,2.41,0,0,0-1.16.44,9,9,0,0,0-1.58,1.4c-.13.31-.28.69-.46,1.14l-.54,1.48c-.18.53-.39,1.11-.62,1.74s-.43,1.27-.66,1.92-.42,1.19-.64,1.78-.38,1.17-.56,1.7l-.5,1.5-.36,1.2a2.11,2.11,0,0,0,0,.3,2.76,2.76,0,0,1-.06.4,1.6,1.6,0,0,1-.16.42,2,2,0,0,1-.48.52,1.43,1.43,0,0,1-.9.34.39.39,0,0,1-.28-.12.55.55,0,0,1-.12-.4,3.79,3.79,0,0,1,.08-.58,9.51,9.51,0,0,1,.36-1.08c.35-1,.7-1.91,1.06-2.86l1-2.64,1-2.62c.18-.47.33-.89.46-1.28s.28-.76.4-1.12.27-.75.4-1.12.3-.81.46-1.28.29-.78.42-1.18a2.6,2.6,0,0,1,.36-.78,2.25,2.25,0,0,1,.66-.46,1.85,1.85,0,0,1,.48-.18.29.29,0,0,1,.12,0s.06,0,.06.1a1.55,1.55,0,0,1-.06.28c0,.13-.09.31-.16.52a4.63,4.63,0,0,1-.22.66c-.08.24-.16.47-.24.68l.1,0a8.32,8.32,0,0,1,.82-.7,10.67,10.67,0,0,1,1-.64,6.63,6.63,0,0,1,1-.44,2.3,2.3,0,0,1,.82-.18,1.6,1.6,0,0,1,1.24.44A2.3,2.3,0,0,1,168.44,21.72Zm-1.86,2.36a4.2,4.2,0,0,0-.46.22,6.37,6.37,0,0,0-.62.36q-.33.19-.72.48a5.13,5.13,0,0,0-.66.56l-.52.54a6.15,6.15,0,0,0-.46.58,6.08,6.08,0,0,0-.34.6,1.67,1.67,0,0,0-.12.62c0,.24.19.36.56.36a1.67,1.67,0,0,0,.62-.14,2.58,2.58,0,0,0,.7-.52,5.39,5.39,0,0,0,.5-.58,5.93,5.93,0,0,0,.58-.82,7.83,7.83,0,0,0,.54-1A5.63,5.63,0,0,0,166.58,24.08Z" transform="translate(0 0)"/></svg>