<svg width="169" height="40" viewBox="0 0 169 40" fill="none" xmlns="http://www.w3.org/2000/svg">
<g clip-path="url(#clip0)">
<path d="M22.9567 40.0021C22.9567 40.0021 10.6118 36.1167 5.64659 29.8173C4.63529 28.5325 -0.258278 24.1898 0.0114025 12.3976C0.281083 0.605292 11.4166 -4.62668 29.3981 5.02651C29.3981 5.02651 51.9318 -3.88466 49.516 13.0007C48.4583 22.1377 43.3653 27.2883 43.3653 27.2883C43.3653 27.2883 46.9666 21.7113 47.1001 12.4649C47.2335 3.21847 29.3883 9.91903 29.3883 9.91903C29.3883 9.91903 20.9285 6.1739 13.2847 6.4348C5.48788 6.71533 3.89227 15.5522 6.17331 24.5293C8.45436 33.5064 22.9567 40.0021 22.9567 40.0021Z" fill="white"/>
<path d="M22.9567 40.0021C22.9567 40.0021 10.6118 36.1167 5.64659 29.8173C4.63529 28.5325 -0.258278 24.1898 0.0114025 12.3976C0.281083 0.605292 11.4166 -4.62668 29.3981 5.02651C29.3981 5.02651 51.9318 -3.88466 49.516 13.0007C48.4583 22.1377 43.3653 27.2883 43.3653 27.2883C43.3653 27.2883 46.9666 21.7113 47.1001 12.4649C47.2335 3.21847 29.3883 9.91903 29.3883 9.91903C29.3883 9.91903 20.9285 6.1739 13.2847 6.4348C5.48788 6.71533 3.89227 15.5522 6.17331 24.5293C8.45436 33.5064 22.9567 40.0021 22.9567 40.0021Z" fill="url(#paint0_linear)"/>
<path d="M25.5915 23.809C25.5272 24.1933 25.4217 24.5695 25.2768 24.9312C25.1244 25.3142 24.9269 25.6777 24.6883 26.014C24.446 26.3612 24.1347 26.6548 23.7739 26.8767C23.4777 27.0762 23.1508 27.2259 22.8062 27.3199C22.4231 27.4285 22.0344 27.5161 21.6418 27.5822C21.2236 27.6525 20.8014 27.696 20.3777 27.7127C19.9404 27.7295 19.5218 27.7379 19.122 27.7379C18.4936 27.7379 17.7656 27.7248 16.9378 27.6986C16.1101 27.6725 15.199 27.6421 14.2045 27.6075C14.345 27.1558 14.5613 26.5625 14.8577 25.8317C15.154 25.1009 15.4855 24.3042 15.8521 23.4472C16.2187 22.5901 16.6106 21.684 17.0291 20.7442C17.4477 19.8044 17.8621 18.9025 18.2722 18.0399C18.6823 17.1772 19.0742 16.3819 19.4492 15.6553C19.8243 14.9287 20.1515 14.3326 20.4324 13.8795C21.1951 14.381 21.9048 14.9586 22.5506 15.6034C23.1866 16.2359 23.7444 16.9423 24.2122 17.7074C24.6752 18.4683 25.04 19.2846 25.2979 20.1368C25.5601 21.0052 25.6921 21.9076 25.6898 22.8145C25.6859 23.1517 25.6554 23.4879 25.5985 23.8203L25.5915 23.809ZM27.0958 18.939C26.755 17.9834 26.2868 17.078 25.7038 16.2472C25.1302 15.4306 24.4601 14.686 23.7079 14.0296C22.9699 13.3834 22.1875 12.7896 21.3665 12.2524C21.4089 12.1536 21.4616 12.0596 21.5238 11.9719C21.6109 11.8414 21.7162 11.6914 21.8384 11.5272C21.9606 11.3631 22.087 11.1836 22.2177 10.9928C22.3483 10.8021 22.4663 10.6183 22.5702 10.4444C22.8146 10.0788 23.0239 9.76081 23.1981 9.49057C23.3424 9.2972 23.4318 9.06843 23.4565 8.8285C23.4625 8.7872 23.4541 8.74509 23.4326 8.70931C23.4111 8.67352 23.3779 8.64625 23.3385 8.63213C23.2409 8.60375 23.1396 8.59051 23.0379 8.59286C22.8806 8.59286 22.6812 8.7233 22.4368 8.9856C22.1714 9.27256 21.9264 9.57769 21.7036 9.89874C21.4592 10.2485 21.2251 10.6015 21.0013 10.9578L20.4774 11.7853C19.7396 11.3983 18.9583 11.1002 18.15 10.8974C17.2782 10.6721 16.1546 10.5589 14.779 10.558C14.4616 10.5646 14.1458 10.6041 13.8365 10.6758C13.4505 10.7595 13.0704 10.8687 12.6988 11.0026C12.305 11.1426 11.9207 11.308 11.5485 11.4978C11.1952 11.6747 10.865 11.8943 10.5652 12.1514C9.83299 12.7752 9.33577 13.448 9.07358 14.1699C8.81676 14.8686 8.68414 15.6067 8.6817 16.351C8.6817 16.7176 8.74678 16.9701 8.87694 17.1085C8.94194 17.1778 9.02112 17.2323 9.10909 17.2684C9.19707 17.3045 9.29178 17.3212 9.3868 17.3175C9.5797 17.3175 9.78055 17.1912 9.98937 16.9388C10.1747 16.7433 10.2855 16.4892 10.3026 16.2206C10.2951 15.9987 10.2297 15.7826 10.113 15.5936C9.98573 15.3816 9.91782 15.1394 9.91633 14.8923C9.91633 14.8404 9.91633 14.7366 9.92897 14.5795C9.94227 14.3973 9.97764 14.2173 10.0343 14.0436C10.1053 13.8183 10.197 13.5999 10.3082 13.3914C10.4495 13.129 10.6257 12.8869 10.8321 12.6718C11.1949 12.33 11.634 12.0795 12.1131 11.941C12.6974 11.7606 13.3064 11.6726 13.918 11.6801C14.519 11.6775 15.1189 11.7301 15.7102 11.8372C16.2404 11.9311 16.7636 12.0604 17.2763 12.2244C17.7271 12.3701 18.1681 12.5444 18.5967 12.7462C18.9467 12.9104 19.2876 13.0935 19.6178 13.2946C19.4427 13.6088 19.1618 14.153 18.775 14.9273C18.3883 15.7016 17.9262 16.6549 17.3887 17.7874C16.8484 18.9207 16.2426 20.2093 15.5712 21.6531C14.8998 23.097 14.19 24.6642 13.4418 26.3549C13.137 27.0581 12.7831 27.7392 12.3828 28.393C12.0597 28.8979 11.8982 29.1939 11.8982 29.2809C11.8982 29.4202 11.9853 29.4987 12.1594 29.5165C12.3336 29.5333 12.5176 29.5418 12.7086 29.5418H12.9446C13.0317 29.5418 13.1497 29.5418 13.2972 29.5291C13.4446 29.5165 13.6385 29.5165 13.873 29.5165H14.8282C15.5604 29.5165 16.2664 29.5076 16.9463 29.4899C17.6204 29.4731 18.2932 29.4207 18.9618 29.3328C19.6374 29.2433 20.3061 29.1083 20.9634 28.9288C21.6795 28.7281 22.3754 28.4614 23.0422 28.1321C23.6428 27.8385 24.2063 27.4745 24.7206 27.0478C25.2604 26.6044 25.7515 26.1051 26.1856 25.5582C26.6041 25.0349 26.9539 24.4602 27.2264 23.8483C27.4762 23.3073 27.6097 22.7201 27.6183 22.1244C27.629 21.0405 27.4522 19.9628 27.0958 18.939Z" fill="white"/>
<path d="M25.5915 23.809C25.5272 24.1933 25.4217 24.5695 25.2768 24.9312C25.1244 25.3142 24.9269 25.6777 24.6883 26.014C24.446 26.3612 24.1347 26.6548 23.7739 26.8767C23.4777 27.0762 23.1508 27.2259 22.8062 27.3199C22.4231 27.4285 22.0344 27.5161 21.6418 27.5822C21.2236 27.6525 20.8014 27.696 20.3777 27.7127C19.9404 27.7295 19.5218 27.7379 19.122 27.7379C18.4936 27.7379 17.7656 27.7248 16.9378 27.6986C16.1101 27.6725 15.199 27.6421 14.2045 27.6075C14.345 27.1558 14.5613 26.5625 14.8577 25.8317C15.154 25.1009 15.4855 24.3042 15.8521 23.4472C16.2187 22.5901 16.6106 21.684 17.0291 20.7442C17.4477 19.8044 17.8621 18.9025 18.2722 18.0399C18.6823 17.1772 19.0742 16.3819 19.4492 15.6553C19.8243 14.9287 20.1515 14.3326 20.4324 13.8795C21.1951 14.381 21.9048 14.9586 22.5506 15.6034C23.1866 16.2359 23.7444 16.9423 24.2122 17.7074C24.6752 18.4683 25.04 19.2846 25.2979 20.1368C25.5601 21.0052 25.6921 21.9076 25.6898 22.8145C25.6859 23.1517 25.6554 23.4879 25.5985 23.8203L25.5915 23.809ZM27.0958 18.939C26.755 17.9834 26.2868 17.078 25.7038 16.2472C25.1302 15.4306 24.4601 14.686 23.7079 14.0296C22.9699 13.3834 22.1875 12.7896 21.3665 12.2524C21.4089 12.1536 21.4616 12.0596 21.5238 11.9719C21.6109 11.8414 21.7162 11.6914 21.8384 11.5272C21.9606 11.3631 22.087 11.1836 22.2177 10.9928C22.3483 10.8021 22.4663 10.6183 22.5702 10.4444C22.8146 10.0788 23.0239 9.76081 23.1981 9.49057C23.3424 9.2972 23.4318 9.06843 23.4565 8.8285C23.4625 8.7872 23.4541 8.74509 23.4326 8.70931C23.4111 8.67352 23.3779 8.64625 23.3385 8.63213C23.2409 8.60375 23.1396 8.59051 23.0379 8.59286C22.8806 8.59286 22.6812 8.7233 22.4368 8.9856C22.1714 9.27256 21.9264 9.57769 21.7036 9.89874C21.4592 10.2485 21.2251 10.6015 21.0013 10.9578L20.4774 11.7853C19.7396 11.3983 18.9583 11.1002 18.15 10.8974C17.2782 10.6721 16.1546 10.5589 14.779 10.558C14.4616 10.5646 14.1458 10.6041 13.8365 10.6758C13.4505 10.7595 13.0704 10.8687 12.6988 11.0026C12.305 11.1426 11.9207 11.308 11.5485 11.4978C11.1952 11.6747 10.865 11.8943 10.5652 12.1514C9.83299 12.7752 9.33577 13.448 9.07358 14.1699C8.81676 14.8686 8.68414 15.6067 8.6817 16.351C8.6817 16.7176 8.74678 16.9701 8.87694 17.1085C8.94194 17.1778 9.02112 17.2323 9.10909 17.2684C9.19707 17.3045 9.29178 17.3212 9.3868 17.3175C9.5797 17.3175 9.78055 17.1912 9.98937 16.9388C10.1747 16.7433 10.2855 16.4892 10.3026 16.2206C10.2951 15.9987 10.2297 15.7826 10.113 15.5936C9.98573 15.3816 9.91782 15.1394 9.91633 14.8923C9.91633 14.8404 9.91633 14.7366 9.92897 14.5795C9.94227 14.3973 9.97764 14.2173 10.0343 14.0436C10.1053 13.8183 10.197 13.5999 10.3082 13.3914C10.4495 13.129 10.6257 12.8869 10.8321 12.6718C11.1949 12.33 11.634 12.0795 12.1131 11.941C12.6974 11.7606 13.3064 11.6726 13.918 11.6801C14.519 11.6775 15.1189 11.7301 15.7102 11.8372C16.2404 11.9311 16.7636 12.0604 17.2763 12.2244C17.7271 12.3701 18.1681 12.5444 18.5967 12.7462C18.9467 12.9104 19.2876 13.0935 19.6178 13.2946C19.4427 13.6088 19.1618 14.153 18.775 14.9273C18.3883 15.7016 17.9262 16.6549 17.3887 17.7874C16.8484 18.9207 16.2426 20.2093 15.5712 21.6531C14.8998 23.097 14.19 24.6642 13.4418 26.3549C13.137 27.0581 12.7831 27.7392 12.3828 28.393C12.0597 28.8979 11.8982 29.1939 11.8982 29.2809C11.8982 29.4202 11.9853 29.4987 12.1594 29.5165C12.3336 29.5333 12.5176 29.5418 12.7086 29.5418H12.9446C13.0317 29.5418 13.1497 29.5418 13.2972 29.5291C13.4446 29.5165 13.6385 29.5165 13.873 29.5165H14.8282C15.5604 29.5165 16.2664 29.5076 16.9463 29.4899C17.6204 29.4731 18.2932 29.4207 18.9618 29.3328C19.6374 29.2433 20.3061 29.1083 20.9634 28.9288C21.6795 28.7281 22.3754 28.4614 23.0422 28.1321C23.6428 27.8385 24.2063 27.4745 24.7206 27.0478C25.2604 26.6044 25.7515 26.1051 26.1856 25.5582C26.6041 25.0349 26.9539 24.4602 27.2264 23.8483C27.4762 23.3073 27.6097 22.7201 27.6183 22.1244C27.629 21.0405 27.4522 19.9628 27.0958 18.939Z" fill="url(#paint1_linear)"/>
<path d="M44.2767 31.361L44.0154 30.9402C43.58 31.2357 43.131 31.5364 42.6684 31.8422C42.2059 32.1479 41.7611 32.4219 41.3341 32.6641C40.9462 32.8891 40.5447 33.0896 40.1317 33.2645C39.8316 33.4039 39.5073 33.4839 39.1766 33.5001C38.9154 33.5001 38.7412 33.4314 38.6541 33.2911C38.5635 33.1417 38.5181 32.9692 38.5235 32.7946C38.5462 32.3798 38.6116 31.9686 38.7187 31.5672C38.8489 31.0062 39.0235 30.3792 39.2426 29.6862C39.4618 28.9933 39.6959 28.2621 39.9449 27.4925C40.1978 26.7266 40.4464 25.9907 40.6908 25.2847C40.9352 24.5786 41.1576 23.9432 41.358 23.3784C41.5583 22.8174 41.711 22.3966 41.8158 22.116C41.9732 21.8551 42.1515 21.5143 42.3524 21.0977C42.5533 20.6811 42.7443 20.2477 42.9269 19.8044C43.1095 19.3612 43.2668 18.9418 43.3988 18.5504C43.5061 18.2697 43.5718 17.9748 43.594 17.6752C43.5976 17.4691 43.5802 17.2633 43.5421 17.0608C43.5283 16.9837 43.4853 16.9149 43.422 16.8686C43.3587 16.8224 43.2799 16.8023 43.2022 16.8125C42.9342 16.8128 42.6684 16.8603 42.417 16.9528C42.1558 17.0482 41.8945 17.2712 41.6332 17.6191C41.4674 17.8308 41.3225 18.0582 41.2006 18.298C41.0785 18.5444 40.9697 18.7973 40.8748 19.0554C40.7699 19.3359 40.6561 19.6492 40.5335 19.9952C40.4113 20.3444 40.2722 20.7526 40.1121 21.2239C38.9079 23.0867 37.8264 24.6843 36.8675 26.0169C35.9086 27.3494 35.0804 28.4421 34.3828 29.2949C33.8599 29.9557 33.297 30.5838 32.6973 31.1759C32.2703 31.5761 32.0044 31.7762 31.8995 31.7762C31.8293 31.7762 31.7955 31.7159 31.7955 31.5939C31.8352 31.1197 31.9184 30.6502 32.0442 30.1912C32.208 29.4871 32.4215 28.6646 32.6846 27.7239C32.9478 26.7832 33.2427 25.7798 33.5695 24.7138C33.8917 23.6421 34.2096 22.6191 34.5232 21.6447C34.7676 20.8602 35.012 20.1635 35.2564 19.5547C35.4912 18.9917 35.6157 18.3889 35.623 17.779C35.623 17.5868 35.5697 17.469 35.4657 17.4255C35.2963 17.3732 35.1189 17.3513 34.9418 17.361C34.6289 17.351 34.3199 17.4324 34.0527 17.5952C33.815 17.746 33.6175 17.952 33.4768 18.1956C33.3729 18.3877 33.2942 18.5406 33.2423 18.6528C33.1903 18.765 33.1369 18.8927 33.085 19.0315C33.033 19.1704 32.9712 19.35 32.9024 19.5674C32.8335 19.7848 32.7282 20.0765 32.5877 20.4426C32.3265 20.9831 31.9603 21.6578 31.4893 22.4667C31.0183 23.2756 30.5127 24.1172 29.9724 24.9915C29.4321 25.8621 28.8829 26.707 28.3248 27.5261C27.7667 28.3453 27.2676 29.0317 26.8275 29.5853C26.3219 30.2295 25.8776 30.756 25.4946 31.1647C25.18 31.5081 24.8437 31.8309 24.4875 32.1311C24.2605 32.3269 24.0099 32.4936 23.7417 32.6276C23.5792 32.7103 23.4012 32.7581 23.2192 32.7679C23.0845 32.7748 22.9516 32.7359 22.8421 32.6573C22.7326 32.5788 22.6531 32.4655 22.6166 32.3359C22.5171 32.0731 22.4643 31.7949 22.4607 31.5139V31.1871C22.4612 31.1037 22.4696 31.0206 22.486 30.9388L22.3286 30.9122C21.8774 31.1679 21.4925 31.5259 21.205 31.9572C20.8561 32.4444 20.6725 33.0303 20.6811 33.6292C20.6811 33.7344 20.6909 33.8732 20.7078 34.05C20.7246 34.2213 20.7687 34.389 20.8384 34.5465C20.9092 34.7045 21.0166 34.8434 21.1516 34.9519C21.3273 35.0753 21.5398 35.1351 21.7542 35.1216C22.0723 35.1171 22.3869 35.0549 22.6826 34.9379C23.0818 34.7699 23.4524 34.5408 23.781 34.259C24.2765 33.8462 24.7399 33.3965 25.1673 32.9138C25.6814 32.3527 26.2788 31.6257 26.9596 30.7326C27.1684 30.4521 27.4343 30.0823 27.7574 29.6231C28.0804 29.164 28.4203 28.6674 28.7771 28.1335C29.1339 27.6033 29.4958 27.059 29.8628 26.5008C30.2299 25.9425 30.5656 25.4203 30.8699 24.934L31.6537 23.68C31.8719 23.3321 32.0161 23.0984 32.0863 22.9787L32.2169 23.032L31.7955 24.6773C31.5858 25.5133 31.3372 26.4405 31.0497 27.4588C30.7622 28.4771 30.4874 29.4525 30.2252 30.3848C29.964 31.3199 29.7463 32.1381 29.5721 32.8395C29.3979 33.5408 29.3108 33.9981 29.3108 34.2113C29.3018 34.3845 29.3281 34.5577 29.3881 34.7204C29.4415 34.8341 29.5805 34.8902 29.8095 34.8902C29.9877 34.8682 30.1559 34.7957 30.294 34.6812C30.514 34.5256 30.7199 34.351 30.9093 34.1594C31.1171 33.9499 31.3259 33.732 31.5357 33.5057C31.7454 33.2794 31.9201 33.0877 32.0596 32.9306C33.8547 30.8593 35.3061 29.1294 36.4138 27.7407C37.5216 26.3521 38.4069 25.23 39.0699 24.3743L39.1738 24.401C38.6326 26.0206 38.1443 27.5093 37.7088 28.8671C37.5216 29.4422 37.3385 30.0215 37.1596 30.605C36.9808 31.1885 36.8282 31.7281 36.7018 32.2237C36.5707 32.7202 36.462 33.1513 36.3759 33.5169C36.3049 33.7731 36.2607 34.0358 36.2439 34.301C36.2481 34.5333 36.2927 34.763 36.3759 34.9799C36.463 35.224 36.7158 35.346 37.1344 35.346C37.3103 35.3413 37.4853 35.3192 37.6569 35.2801C37.9179 35.2191 38.1721 35.1317 38.4153 35.0192C38.7122 34.8892 39.0699 34.7148 39.4885 34.496C39.907 34.2772 40.3949 33.9859 40.952 33.6221C41.3537 33.3594 41.7114 33.1284 42.0251 32.9292L42.8875 32.3808C43.1502 32.2153 43.3932 32.054 43.6207 31.8969C43.8504 31.7384 44.0686 31.564 44.2739 31.3751" fill="white"/>
<path d="M44.2767 31.361L44.0154 30.9402C43.58 31.2357 43.131 31.5364 42.6684 31.8422C42.2059 32.1479 41.7611 32.4219 41.3341 32.6641C40.9462 32.8891 40.5447 33.0896 40.1317 33.2645C39.8316 33.4039 39.5073 33.4839 39.1766 33.5001C38.9154 33.5001 38.7412 33.4314 38.6541 33.2911C38.5635 33.1417 38.5181 32.9692 38.5235 32.7946C38.5462 32.3798 38.6116 31.9686 38.7187 31.5672C38.8489 31.0062 39.0235 30.3792 39.2426 29.6862C39.4618 28.9933 39.6959 28.2621 39.9449 27.4925C40.1978 26.7266 40.4464 25.9907 40.6908 25.2847C40.9352 24.5786 41.1576 23.9432 41.358 23.3784C41.5583 22.8174 41.711 22.3966 41.8158 22.116C41.9732 21.8551 42.1515 21.5143 42.3524 21.0977C42.5533 20.6811 42.7443 20.2477 42.9269 19.8044C43.1095 19.3612 43.2668 18.9418 43.3988 18.5504C43.5061 18.2697 43.5718 17.9748 43.594 17.6752C43.5976 17.4691 43.5802 17.2633 43.5421 17.0608C43.5283 16.9837 43.4853 16.9149 43.422 16.8686C43.3587 16.8224 43.2799 16.8023 43.2022 16.8125C42.9342 16.8128 42.6684 16.8603 42.417 16.9528C42.1558 17.0482 41.8945 17.2712 41.6332 17.6191C41.4674 17.8308 41.3225 18.0582 41.2006 18.298C41.0785 18.5444 40.9697 18.7973 40.8748 19.0554C40.7699 19.3359 40.6561 19.6492 40.5335 19.9952C40.4113 20.3444 40.2722 20.7526 40.1121 21.2239C38.9079 23.0867 37.8264 24.6843 36.8675 26.0169C35.9086 27.3494 35.0804 28.4421 34.3828 29.2949C33.8599 29.9557 33.297 30.5838 32.6973 31.1759C32.2703 31.5761 32.0044 31.7762 31.8995 31.7762C31.8293 31.7762 31.7955 31.7159 31.7955 31.5939C31.8352 31.1197 31.9184 30.6502 32.0442 30.1912C32.208 29.4871 32.4215 28.6646 32.6846 27.7239C32.9478 26.7832 33.2427 25.7798 33.5695 24.7138C33.8917 23.6421 34.2096 22.6191 34.5232 21.6447C34.7676 20.8602 35.012 20.1635 35.2564 19.5547C35.4912 18.9917 35.6157 18.3889 35.623 17.779C35.623 17.5868 35.5697 17.469 35.4657 17.4255C35.2963 17.3732 35.1189 17.3513 34.9418 17.361C34.6289 17.351 34.3199 17.4324 34.0527 17.5952C33.815 17.746 33.6175 17.952 33.4768 18.1956C33.3729 18.3877 33.2942 18.5406 33.2423 18.6528C33.1903 18.765 33.1369 18.8927 33.085 19.0315C33.033 19.1704 32.9712 19.35 32.9024 19.5674C32.8335 19.7848 32.7282 20.0765 32.5877 20.4426C32.3265 20.9831 31.9603 21.6578 31.4893 22.4667C31.0183 23.2756 30.5127 24.1172 29.9724 24.9915C29.4321 25.8621 28.8829 26.707 28.3248 27.5261C27.7667 28.3453 27.2676 29.0317 26.8275 29.5853C26.3219 30.2295 25.8776 30.756 25.4946 31.1647C25.18 31.5081 24.8437 31.8309 24.4875 32.1311C24.2605 32.3269 24.0099 32.4936 23.7417 32.6276C23.5792 32.7103 23.4012 32.7581 23.2192 32.7679C23.0845 32.7748 22.9516 32.7359 22.8421 32.6573C22.7326 32.5788 22.6531 32.4655 22.6166 32.3359C22.5171 32.0731 22.4643 31.7949 22.4607 31.5139V31.1871C22.4612 31.1037 22.4696 31.0206 22.486 30.9388L22.3286 30.9122C21.8774 31.1679 21.4925 31.5259 21.205 31.9572C20.8561 32.4444 20.6725 33.0303 20.6811 33.6292C20.6811 33.7344 20.6909 33.8732 20.7078 34.05C20.7246 34.2213 20.7687 34.389 20.8384 34.5465C20.9092 34.7045 21.0166 34.8434 21.1516 34.9519C21.3273 35.0753 21.5398 35.1351 21.7542 35.1216C22.0723 35.1171 22.3869 35.0549 22.6826 34.9379C23.0818 34.7699 23.4524 34.5408 23.781 34.259C24.2765 33.8462 24.7399 33.3965 25.1673 32.9138C25.6814 32.3527 26.2788 31.6257 26.9596 30.7326C27.1684 30.4521 27.4343 30.0823 27.7574 29.6231C28.0804 29.164 28.4203 28.6674 28.7771 28.1335C29.1339 27.6033 29.4958 27.059 29.8628 26.5008C30.2299 25.9425 30.5656 25.4203 30.8699 24.934L31.6537 23.68C31.8719 23.3321 32.0161 23.0984 32.0863 22.9787L32.2169 23.032L31.7955 24.6773C31.5858 25.5133 31.3372 26.4405 31.0497 27.4588C30.7622 28.4771 30.4874 29.4525 30.2252 30.3848C29.964 31.3199 29.7463 32.1381 29.5721 32.8395C29.3979 33.5408 29.3108 33.9981 29.3108 34.2113C29.3018 34.3845 29.3281 34.5577 29.3881 34.7204C29.4415 34.8341 29.5805 34.8902 29.8095 34.8902C29.9877 34.8682 30.1559 34.7957 30.294 34.6812C30.514 34.5256 30.7199 34.351 30.9093 34.1594C31.1171 33.9499 31.3259 33.732 31.5357 33.5057C31.7454 33.2794 31.9201 33.0877 32.0596 32.9306C33.8547 30.8593 35.3061 29.1294 36.4138 27.7407C37.5216 26.3521 38.4069 25.23 39.0699 24.3743L39.1738 24.401C38.6326 26.0206 38.1443 27.5093 37.7088 28.8671C37.5216 29.4422 37.3385 30.0215 37.1596 30.605C36.9808 31.1885 36.8282 31.7281 36.7018 32.2237C36.5707 32.7202 36.462 33.1513 36.3759 33.5169C36.3049 33.7731 36.2607 34.0358 36.2439 34.301C36.2481 34.5333 36.2927 34.763 36.3759 34.9799C36.463 35.224 36.7158 35.346 37.1344 35.346C37.3103 35.3413 37.4853 35.3192 37.6569 35.2801C37.9179 35.2191 38.1721 35.1317 38.4153 35.0192C38.7122 34.8892 39.0699 34.7148 39.4885 34.496C39.907 34.2772 40.3949 33.9859 40.952 33.6221C41.3537 33.3594 41.7114 33.1284 42.0251 32.9292L42.8875 32.3808C43.1502 32.2153 43.3932 32.054 43.6207 31.8969C43.8504 31.7384 44.0686 31.564 44.2739 31.3751" fill="url(#paint2_linear)"/>
</g>
<path d="M73.96 23.76C73.96 24.1867 73.86 24.6267 73.66 25.08C73.46 25.5333 73.1933 25.9733 72.86 26.4C72.5267 26.8133 72.1533 27.1933 71.74 27.54C71.3267 27.8733 70.9 28.1467 70.46 28.36C69.9133 28.6267 69.38 28.8333 68.86 28.98C68.3533 29.1133 67.8467 29.2133 67.34 29.28C66.8333 29.3467 66.32 29.3867 65.8 29.4C65.28 29.4133 64.74 29.42 64.18 29.42C63.8733 29.42 63.6267 29.42 63.44 29.42C63.2667 29.42 63.12 29.42 63 29.42C62.8933 29.4333 62.8067 29.44 62.74 29.44C62.6733 29.44 62.6133 29.44 62.56 29.44C62.4133 29.44 62.2733 29.4333 62.14 29.42C62.0067 29.4067 61.94 29.3467 61.94 29.24C61.94 29.1733 62.06 28.9467 62.3 28.56C62.5533 28.1733 62.8267 27.6533 63.12 27C63.6933 25.7067 64.2333 24.5067 64.74 23.4C65.26 22.2933 65.7267 21.3067 66.14 20.44C66.5533 19.5733 66.9067 18.8467 67.2 18.26C67.4933 17.66 67.7067 17.24 67.84 17C67.6267 16.8667 67.3667 16.7267 67.06 16.58C66.7533 16.4333 66.4133 16.3 66.04 16.18C65.68 16.06 65.28 15.96 64.84 15.88C64.4133 15.8 63.96 15.76 63.48 15.76C62.9733 15.76 62.5133 15.8267 62.1 15.96C61.6867 16.0933 61.36 16.28 61.12 16.52C60.9467 16.7067 60.8133 16.8933 60.72 17.08C60.6267 17.2533 60.5533 17.42 60.5 17.58C60.46 17.7267 60.4333 17.86 60.42 17.98C60.42 18.1 60.42 18.18 60.42 18.22C60.42 18.4067 60.4667 18.5867 60.56 18.76C60.6667 18.9333 60.72 19.0933 60.72 19.24C60.72 19.4133 60.64 19.6 60.48 19.8C60.32 19.9867 60.1667 20.08 60.02 20.08C59.86 20.08 59.7267 20.0267 59.62 19.92C59.5267 19.8133 59.48 19.62 59.48 19.34C59.48 18.78 59.58 18.2267 59.78 17.68C59.98 17.12 60.36 16.6 60.92 16.12C61.1333 15.9333 61.38 15.7667 61.66 15.62C61.9533 15.4733 62.2467 15.3467 62.54 15.24C62.8467 15.1333 63.14 15.0533 63.42 15C63.7 14.9333 63.94 14.9 64.14 14.9C65.1933 14.9 66.0533 14.9867 66.72 15.16C67.3867 15.3333 67.98 15.56 68.5 15.84C68.5933 15.6933 68.7267 15.4867 68.9 15.22C69.0733 14.94 69.2533 14.6667 69.44 14.4C69.6267 14.1333 69.8133 13.9 70 13.7C70.1867 13.5 70.34 13.4 70.46 13.4C70.5533 13.4 70.6267 13.4133 70.68 13.44C70.7467 13.4533 70.78 13.5 70.78 13.58C70.78 13.7133 70.7133 13.8867 70.58 14.1C70.4467 14.3 70.2867 14.54 70.1 14.82C70.02 14.9533 69.9267 15.0933 69.82 15.24C69.7267 15.3867 69.6333 15.5267 69.54 15.66C69.4467 15.78 69.3667 15.8933 69.3 16C69.2333 16.0933 69.1933 16.16 69.18 16.2C69.7933 16.6 70.3867 17.0533 70.96 17.56C71.5467 18.0667 72.06 18.6333 72.5 19.26C72.94 19.8867 73.2933 20.5733 73.56 21.32C73.8267 22.0667 73.96 22.88 73.96 23.76ZM72.48 24.28C72.48 23.5733 72.38 22.8933 72.18 22.24C71.98 21.5733 71.7 20.9533 71.34 20.38C70.9933 19.7933 70.5733 19.2533 70.08 18.76C69.5867 18.2667 69.0467 17.8267 68.46 17.44C68.2467 17.7867 67.9933 18.24 67.7 18.8C67.42 19.36 67.12 19.9733 66.8 20.64C66.4933 21.2933 66.18 21.98 65.86 22.7C65.54 23.42 65.24 24.1133 64.96 24.78C64.68 25.4333 64.4267 26.04 64.2 26.6C63.9733 27.16 63.8067 27.6133 63.7 27.96C64.46 27.9867 65.1533 28.0133 65.78 28.04C66.42 28.0533 66.98 28.06 67.46 28.06C67.7667 28.06 68.0867 28.0533 68.42 28.04C68.7533 28.0267 69.0733 27.9933 69.38 27.94C69.7 27.8867 70 27.82 70.28 27.74C70.56 27.66 70.8067 27.5467 71.02 27.4C71.3 27.2267 71.5333 27.0067 71.72 26.74C71.9067 26.4733 72.0533 26.2 72.16 25.92C72.28 25.6267 72.36 25.34 72.4 25.06C72.4533 24.7667 72.48 24.5067 72.48 24.28ZM82.8858 26.92C82.8591 26.96 82.6658 27.1067 82.3058 27.36C81.9591 27.6133 81.5124 27.8867 80.9658 28.18C80.4324 28.46 79.8258 28.72 79.1458 28.96C78.4791 29.1867 77.8124 29.3 77.1458 29.3C76.3058 29.3 75.6724 29.1 75.2458 28.7C74.8324 28.3 74.6258 27.6667 74.6258 26.8C74.6258 26.24 74.7791 25.5533 75.0858 24.74C75.4058 23.9267 75.9124 23.1067 76.6058 22.28C77.0058 21.8 77.4124 21.3867 77.8258 21.04C78.2524 20.6933 78.6591 20.4133 79.0458 20.2C79.4324 19.9867 79.7924 19.8333 80.1258 19.74C80.4724 19.6333 80.7658 19.58 81.0058 19.58C81.3924 19.58 81.6591 19.6333 81.8058 19.74C81.9524 19.8333 82.0258 20.0067 82.0258 20.26C82.0258 20.58 81.7991 21 81.3458 21.52C80.9058 22.0267 80.3324 22.6133 79.6258 23.28C79.3458 23.5467 79.0191 23.8467 78.6458 24.18C78.2858 24.5133 77.9458 24.8333 77.6258 25.14C77.2391 25.4867 76.8524 25.84 76.4658 26.2V26.5C76.4658 27.22 76.6258 27.72 76.9458 28C77.2791 28.2667 77.7324 28.4 78.3058 28.4C78.8258 28.4 79.3524 28.3067 79.8858 28.12C80.4191 27.92 80.8991 27.7067 81.3258 27.48C81.8324 27.2133 82.3191 26.9 82.7858 26.54L82.8858 26.92ZM80.3258 21.16C80.3258 20.9467 80.2658 20.8133 80.1458 20.76C80.0258 20.7067 79.8924 20.68 79.7458 20.68C79.4924 20.68 79.1724 20.78 78.7858 20.98C78.4124 21.18 78.0591 21.4933 77.7258 21.92C77.5791 22.1067 77.4324 22.3333 77.2858 22.6C77.1391 22.8667 76.9991 23.16 76.8658 23.48C76.7458 23.8 76.6391 24.14 76.5458 24.5C76.4658 24.8467 76.4191 25.1933 76.4058 25.54C76.6724 25.3133 76.9458 25.08 77.2258 24.84C77.4658 24.6267 77.7258 24.3933 78.0058 24.14C78.2858 23.8867 78.5524 23.6267 78.8058 23.36C79.2458 22.9067 79.6058 22.5 79.8858 22.14C80.1791 21.78 80.3258 21.4533 80.3258 21.16ZM92.6834 26.72C92.4568 26.9067 92.1234 27.1467 91.6834 27.44C91.2568 27.7333 90.7634 28.0267 90.2034 28.32C89.4834 28.6933 88.8834 28.98 88.4034 29.18C87.9234 29.38 87.5834 29.48 87.3834 29.48C87.2101 29.48 87.1034 29.4333 87.0634 29.34C87.0234 29.2467 87.0034 29.1467 87.0034 29.04C87.0034 28.9333 87.0301 28.76 87.0834 28.52C87.1368 28.28 87.2034 28.0067 87.2834 27.7C87.3768 27.3933 87.4701 27.0667 87.5634 26.72C87.6701 26.3733 87.7701 26.04 87.8634 25.72C87.8901 25.6267 87.9234 25.5067 87.9634 25.36C88.0168 25.2 88.0701 25.0467 88.1234 24.9L88.3034 24.36C88.1301 24.4933 87.9234 24.6267 87.6834 24.76C87.4701 24.8667 87.2034 24.9933 86.8834 25.14C86.5768 25.2733 86.2034 25.4 85.7634 25.52C85.6034 25.5733 85.4501 25.6133 85.3034 25.64C85.1568 25.6533 85.0301 25.6733 84.9234 25.7C84.7901 25.7267 84.6701 25.74 84.5634 25.74C84.5234 25.9267 84.4701 26.1533 84.4034 26.42C84.3368 26.6867 84.2568 26.96 84.1634 27.24C84.0701 27.5067 83.9701 27.7667 83.8634 28.02C83.7568 28.26 83.6368 28.4467 83.5034 28.58C83.2768 28.8067 83.0768 28.9533 82.9034 29.02C82.7434 29.0867 82.5834 29.12 82.4234 29.12C82.1968 29.12 82.0634 29.08 82.0234 29C81.9701 28.92 81.9434 28.7933 81.9434 28.62C81.9434 28.5533 81.9701 28.4467 82.0234 28.3C82.0634 28.14 82.1101 27.9733 82.1634 27.8C82.2301 27.6133 82.2968 27.4267 82.3634 27.24C82.4301 27.04 82.4834 26.8667 82.5234 26.72L82.8634 25.66C82.7834 25.5933 82.7301 25.52 82.7034 25.44C82.6901 25.3467 82.6834 25.2667 82.6834 25.2C82.6834 25.0267 82.7501 24.8867 82.8834 24.78C83.0301 24.66 83.2168 24.5867 83.4434 24.56L83.6234 24.12C83.7434 23.84 83.8568 23.5533 83.9634 23.26C84.0701 22.9533 84.1701 22.6667 84.2634 22.4C84.3701 22.12 84.4634 21.8733 84.5434 21.66C84.6368 21.4333 84.7234 21.2533 84.8034 21.12C85.0301 20.7333 85.2901 20.4733 85.5834 20.34C85.8901 20.2067 86.1368 20.14 86.3234 20.14C86.4168 20.14 86.4634 20.2133 86.4634 20.36C86.4634 20.4 86.4434 20.48 86.4034 20.6C86.3634 20.7067 86.3101 20.84 86.2434 21C86.1768 21.1467 86.1034 21.3133 86.0234 21.5C85.9568 21.6733 85.8968 21.84 85.8434 22C85.7368 22.2933 85.6301 22.6 85.5234 22.92C85.4168 23.24 85.3168 23.5333 85.2234 23.8C85.1168 24.12 85.0101 24.4333 84.9034 24.74C85.4768 24.74 85.9768 24.7 86.4034 24.62C86.8434 24.54 87.2101 24.4467 87.5034 24.34C87.7968 24.22 88.0234 24.1067 88.1834 24C88.3434 23.8933 88.4434 23.8067 88.4834 23.74C88.5634 23.54 88.6168 23.3933 88.6434 23.3C88.6834 23.2067 88.7434 23.04 88.8234 22.8C88.9701 22.3467 89.1101 21.94 89.2434 21.58C89.3768 21.2067 89.5768 20.88 89.8434 20.6C89.9901 20.4533 90.1034 20.36 90.1834 20.32C90.2634 20.2667 90.3834 20.2 90.5434 20.12C90.6501 20.0667 90.7501 20.0333 90.8434 20.02C90.9368 20.0067 91.0168 20 91.0834 20C91.1768 20 91.2501 20.0267 91.3034 20.08C91.3701 20.12 91.4034 20.2133 91.4034 20.36C91.4034 20.72 91.2701 21.18 91.0034 21.74C90.7368 22.2867 90.3768 22.88 89.9234 23.52C89.7634 23.96 89.6101 24.4 89.4634 24.84C89.3301 25.28 89.2034 25.6933 89.0834 26.08C88.9768 26.4667 88.8901 26.8133 88.8234 27.12C88.7701 27.4267 88.7434 27.6667 88.7434 27.84C88.7434 27.92 88.7634 27.9933 88.8034 28.06C88.8434 28.1267 88.9168 28.16 89.0234 28.16C89.2501 28.16 89.4968 28.1133 89.7634 28.02C90.0434 27.9133 90.3301 27.78 90.6234 27.62C90.9301 27.46 91.2434 27.28 91.5634 27.08C91.8834 26.88 92.1968 26.68 92.5034 26.48L92.6834 26.72ZM106.066 17.16C105.772 17.3467 105.379 17.5467 104.886 17.76C104.392 17.9733 103.806 18.1733 103.126 18.36C102.459 18.5467 101.719 18.7 100.906 18.82C100.092 18.94 99.2191 19 98.2858 19C97.8591 19 97.4658 18.9467 97.1058 18.84C96.7458 18.7333 96.4991 18.6467 96.3658 18.58C96.6058 18.22 96.8591 17.9333 97.1258 17.72C97.3524 17.8267 97.7391 17.92 98.2858 18C98.8458 18.08 99.5258 18.12 100.326 18.12C101.179 18.12 101.919 18.08 102.546 18C103.172 17.9067 103.712 17.8 104.166 17.68C104.619 17.56 104.986 17.4467 105.266 17.34C105.559 17.22 105.786 17.1333 105.946 17.08L106.066 17.16ZM105.986 26.52C105.719 26.7467 105.346 27.0333 104.866 27.38C104.399 27.7133 103.906 28.0333 103.386 28.34C102.866 28.6467 102.359 28.9067 101.866 29.12C101.386 29.3467 100.999 29.46 100.706 29.46C100.546 29.46 100.446 29.4 100.406 29.28C100.379 29.16 100.366 29.0333 100.366 28.9C100.366 28.8333 100.392 28.7 100.446 28.5C100.499 28.2867 100.572 28.0333 100.666 27.74C100.759 27.4467 100.859 27.1267 100.966 26.78C101.086 26.4333 101.199 26.08 101.306 25.72C101.426 25.3467 101.539 24.9733 101.646 24.6C101.766 24.2267 101.872 23.8867 101.966 23.58C102.059 23.26 102.132 22.9867 102.186 22.76C102.252 22.52 102.286 22.3467 102.286 22.24C102.286 22.16 102.279 22.0933 102.266 22.04C102.252 21.9867 102.212 21.96 102.146 21.96C102.092 21.96 101.966 22.0333 101.766 22.18C101.566 22.3267 101.392 22.4733 101.246 22.62C101.006 22.86 100.699 23.1867 100.326 23.6C99.9658 24 99.5524 24.52 99.0858 25.16C98.9524 25.3467 98.7991 25.5733 98.6258 25.84C98.4658 26.1067 98.3124 26.3667 98.1658 26.62C98.0191 26.8733 97.8924 27.1 97.7858 27.3C97.6791 27.4867 97.6124 27.5933 97.5858 27.62C97.5191 27.6867 97.4191 27.7733 97.2858 27.88C97.1658 27.9867 97.0324 28.0933 96.8858 28.2C96.7391 28.3067 96.5924 28.4 96.4458 28.48C96.2991 28.56 96.1658 28.6 96.0458 28.6C95.9924 28.6 95.9658 28.5733 95.9658 28.52C95.9658 28.4667 95.9724 28.4133 95.9858 28.36C95.9991 28.2933 96.0191 28.2067 96.0458 28.1C96.0724 27.9933 96.1124 27.8533 96.1658 27.68C96.2324 27.5067 96.3124 27.2867 96.4058 27.02L97.6658 23.42C97.9058 22.7267 98.0391 22.2533 98.0658 22C98.0658 21.8933 98.0324 21.8333 97.9658 21.82C97.7391 21.82 97.1924 22.2667 96.3258 23.16C95.9391 23.5467 95.5791 23.9733 95.2458 24.44C94.9124 24.8933 94.6058 25.3467 94.3258 25.8C94.0458 26.2533 93.7924 26.6867 93.5658 27.1C93.3524 27.5133 93.1791 27.8667 93.0458 28.16C92.9924 28.2267 92.9124 28.3067 92.8058 28.4C92.7124 28.48 92.6058 28.56 92.4858 28.64C92.3658 28.72 92.2391 28.7867 92.1058 28.84C91.9858 28.8933 91.8658 28.92 91.7458 28.92C91.6524 28.92 91.5924 28.8933 91.5658 28.84C91.5391 28.7733 91.5258 28.7 91.5258 28.62C91.5258 28.5667 91.5391 28.4867 91.5658 28.38C91.5924 28.2733 91.6324 28.1533 91.6858 28.02C91.7258 27.8733 91.7724 27.7267 91.8258 27.58C91.8791 27.42 91.9324 27.2733 91.9858 27.14C92.1191 26.78 92.2391 26.4533 92.3458 26.16C92.4524 25.8667 92.5458 25.5933 92.6258 25.34C92.7058 25.0733 92.7791 24.82 92.8458 24.58C92.9258 24.3267 93.0058 24.0667 93.0858 23.8C93.1258 23.6533 93.1724 23.4667 93.2258 23.24C93.2924 23.0133 93.3591 22.7867 93.4258 22.56C93.5058 22.32 93.5791 22.1 93.6458 21.9C93.7124 21.6867 93.7724 21.52 93.8258 21.4C93.9058 21.2 94.0191 21.0267 94.1658 20.88C94.3258 20.72 94.4924 20.5867 94.6658 20.48C94.8391 20.36 95.0058 20.2733 95.1658 20.22C95.3258 20.1667 95.4524 20.14 95.5458 20.14C95.6391 20.14 95.6858 20.2133 95.6858 20.36C95.6724 20.4667 95.6191 20.6667 95.5258 20.96C95.4458 21.2533 95.3591 21.54 95.2658 21.82C95.1458 22.1933 95.0124 22.5933 94.8658 23.02C94.7191 23.4467 94.5724 23.8467 94.4258 24.22C94.2658 24.66 94.0991 25.0933 93.9258 25.52L94.0058 25.58C94.1391 25.3533 94.3058 25.1 94.5058 24.82C94.7191 24.5267 94.9391 24.2333 95.1658 23.94C95.4058 23.6333 95.6458 23.34 95.8858 23.06C96.1391 22.78 96.3791 22.5333 96.6058 22.32C97.2858 21.68 97.8658 21.1667 98.3458 20.78C98.8391 20.38 99.2591 20.18 99.6058 20.18C99.6991 20.18 99.7724 20.2 99.8258 20.24C99.8924 20.28 99.9258 20.3867 99.9258 20.56C99.9258 20.7067 99.8658 20.9733 99.7458 21.36C99.6391 21.7467 99.5058 22.16 99.3458 22.6C99.1991 23.04 99.0524 23.4733 98.9058 23.9C98.7591 24.3133 98.6458 24.6333 98.5658 24.86H98.6458C99.3658 24.0067 100.012 23.2933 100.586 22.72C101.172 22.1333 101.686 21.6733 102.126 21.34C102.566 20.9933 102.932 20.7467 103.226 20.6C103.532 20.4533 103.766 20.38 103.926 20.38C104.019 20.38 104.079 20.42 104.106 20.5C104.146 20.5667 104.166 20.6533 104.166 20.76C104.166 20.88 104.132 21.0733 104.066 21.34C103.999 21.5933 103.912 21.8933 103.806 22.24C103.712 22.5867 103.599 22.9667 103.466 23.38C103.346 23.7933 103.226 24.2067 103.106 24.62C103.066 24.78 102.992 25.0133 102.886 25.32C102.779 25.6267 102.672 25.9467 102.566 26.28C102.472 26.6 102.386 26.9 102.306 27.18C102.226 27.46 102.186 27.64 102.186 27.72C102.186 27.92 102.266 28.02 102.426 28.02C102.612 28.02 102.832 27.9733 103.086 27.88C103.352 27.7733 103.632 27.6333 103.926 27.46C104.232 27.2867 104.546 27.0933 104.866 26.88C105.186 26.6667 105.499 26.44 105.806 26.2L105.986 26.52ZM122.532 26.28C122.372 26.4267 122.206 26.56 122.032 26.68C121.859 26.8 121.672 26.9267 121.472 27.06C121.272 27.18 121.052 27.32 120.812 27.48C120.572 27.6267 120.299 27.8 119.992 28C119.566 28.28 119.192 28.5067 118.872 28.68C118.552 28.84 118.279 28.9667 118.052 29.06C117.826 29.1667 117.632 29.2333 117.472 29.26C117.312 29.3 117.179 29.32 117.072 29.32C116.752 29.32 116.559 29.2267 116.492 29.04C116.426 28.8533 116.392 28.68 116.392 28.52C116.392 28.4 116.426 28.2 116.492 27.92C116.559 27.64 116.639 27.3133 116.732 26.94C116.839 26.5533 116.959 26.14 117.092 25.7C117.226 25.2467 117.366 24.8 117.512 24.36C117.846 23.32 118.219 22.18 118.632 20.94L118.552 20.92C118.046 21.5733 117.366 22.4333 116.512 23.5C115.672 24.5667 114.566 25.8933 113.192 27.48C113.086 27.6 112.952 27.7467 112.792 27.92C112.632 28.0933 112.472 28.26 112.312 28.42C112.152 28.58 111.992 28.7133 111.832 28.82C111.686 28.9267 111.566 28.98 111.472 28.98C111.299 28.98 111.192 28.94 111.152 28.86C111.112 28.7667 111.092 28.6333 111.092 28.46C111.092 28.3 111.159 27.9533 111.292 27.42C111.426 26.8733 111.592 26.2467 111.792 25.54C111.992 24.82 112.199 24.0733 112.412 23.3C112.639 22.5133 112.832 21.8 112.992 21.16L113.312 19.9L113.212 19.86C113.159 19.9533 113.046 20.1333 112.872 20.4C112.712 20.6667 112.512 20.9867 112.272 21.36C112.046 21.7333 111.792 22.1333 111.512 22.56C111.232 22.9867 110.952 23.4067 110.672 23.82C110.406 24.22 110.146 24.6 109.892 24.96C109.652 25.3067 109.452 25.5867 109.292 25.8C108.772 26.48 108.312 27.04 107.912 27.48C107.526 27.9067 107.172 28.2467 106.852 28.5C106.546 28.7533 106.266 28.9267 106.012 29.02C105.772 29.1133 105.539 29.16 105.312 29.16C105.112 29.16 104.959 29.1133 104.852 29.02C104.746 28.94 104.666 28.84 104.612 28.72C104.559 28.6 104.526 28.4733 104.512 28.34C104.499 28.2067 104.492 28.1 104.492 28.02C104.492 27.54 104.626 27.1133 104.892 26.74C105.159 26.3667 105.446 26.1 105.752 25.94L105.872 25.96C105.859 26.0267 105.852 26.0933 105.852 26.16C105.852 26.2133 105.852 26.2933 105.852 26.4C105.852 26.6 105.892 26.8133 105.972 27.04C106.052 27.2533 106.206 27.36 106.432 27.36C106.539 27.36 106.672 27.3267 106.832 27.26C106.992 27.18 107.179 27.0533 107.392 26.88C107.619 26.6933 107.879 26.4467 108.172 26.14C108.466 25.82 108.806 25.4133 109.192 24.92C109.526 24.4933 109.906 23.9667 110.332 23.34C110.759 22.7133 111.179 22.0667 111.592 21.4C112.006 20.7333 112.392 20.0933 112.752 19.48C113.112 18.8533 113.392 18.3333 113.592 17.92C113.699 17.64 113.779 17.42 113.832 17.26C113.886 17.0867 113.932 16.9467 113.972 16.84C114.012 16.7333 114.052 16.64 114.092 16.56C114.132 16.4667 114.192 16.3467 114.272 16.2C114.379 16.0133 114.526 15.86 114.712 15.74C114.899 15.62 115.126 15.56 115.392 15.56C115.579 15.56 115.712 15.58 115.792 15.62C115.872 15.6467 115.912 15.7333 115.912 15.88C115.912 16.32 115.819 16.7733 115.632 17.24C115.446 17.7067 115.259 18.24 115.072 18.84C114.832 19.5867 114.586 20.3733 114.332 21.2C114.092 22.0133 113.872 22.78 113.672 23.5C113.472 24.22 113.306 24.8533 113.172 25.4C113.052 25.9333 112.992 26.2867 112.992 26.46C112.992 26.5533 113.019 26.6 113.072 26.6C113.152 26.6 113.352 26.4467 113.672 26.14C114.006 25.8333 114.439 25.3533 114.972 24.7C115.506 24.0467 116.139 23.2133 116.872 22.2C117.606 21.1733 118.432 19.9467 119.352 18.52C119.472 18.16 119.579 17.8467 119.672 17.58C119.766 17.3133 119.852 17.0733 119.932 16.86C120.012 16.6467 120.092 16.4533 120.172 16.28C120.266 16.1067 120.379 15.9333 120.512 15.76C120.712 15.4933 120.912 15.3267 121.112 15.26C121.312 15.18 121.512 15.14 121.712 15.14C121.859 15.14 121.946 15.2067 121.972 15.34C121.999 15.46 122.012 15.6133 122.012 15.8C122.012 15.9467 121.959 16.1733 121.852 16.48C121.759 16.7733 121.639 17.0933 121.492 17.44C121.359 17.7733 121.212 18.1 121.052 18.42C120.906 18.74 120.772 19 120.652 19.2C120.572 19.4133 120.452 19.74 120.292 20.18C120.146 20.6067 119.979 21.0933 119.792 21.64C119.606 22.1733 119.412 22.7333 119.212 23.32C119.026 23.9067 118.846 24.4667 118.672 25C118.512 25.5333 118.379 26.0133 118.272 26.44C118.179 26.8667 118.132 27.18 118.132 27.38C118.132 27.5267 118.166 27.6533 118.232 27.76C118.299 27.8667 118.432 27.92 118.632 27.92C118.832 27.92 119.072 27.86 119.352 27.74C119.646 27.62 119.952 27.4667 120.272 27.28C120.606 27.0933 120.946 26.8867 121.292 26.66C121.652 26.42 121.999 26.1867 122.332 25.96L122.532 26.28ZM132.699 26.56C132.272 26.9867 131.792 27.3867 131.259 27.76C130.739 28.1333 130.219 28.46 129.699 28.74C129.192 29.02 128.719 29.24 128.279 29.4C127.852 29.56 127.519 29.64 127.279 29.64C127.092 29.64 126.932 29.5733 126.799 29.44C126.679 29.3067 126.619 29.0467 126.619 28.66C126.619 28.34 126.646 28.02 126.699 27.7C126.766 27.38 126.832 27.08 126.899 26.8H126.819C126.219 27.5467 125.579 28.14 124.899 28.58C124.232 29.0067 123.626 29.22 123.079 29.22C122.572 29.22 122.239 29.06 122.079 28.74C121.919 28.42 121.839 27.9867 121.839 27.44C121.839 27.08 121.892 26.68 121.999 26.24C122.106 25.7867 122.259 25.3333 122.459 24.88C122.659 24.4267 122.899 23.9867 123.179 23.56C123.459 23.1333 123.779 22.7467 124.139 22.4C125.006 21.5733 125.826 21.0067 126.599 20.7C127.372 20.38 128.126 20.22 128.859 20.22C128.992 20.22 129.159 20.24 129.359 20.28C129.559 20.3067 129.752 20.3667 129.939 20.46C130.139 20.54 130.306 20.6533 130.439 20.8C130.586 20.9467 130.659 21.1333 130.659 21.36C130.659 21.5067 130.646 21.6333 130.619 21.74C130.606 21.8333 130.572 21.92 130.519 22C130.466 22.08 130.392 22.1667 130.299 22.26C130.206 22.3533 130.092 22.46 129.959 22.58C129.852 22.8733 129.732 23.1467 129.599 23.4C129.466 23.64 129.312 23.9733 129.139 24.4C128.806 25.2533 128.552 25.96 128.379 26.52C128.206 27.08 128.119 27.5333 128.119 27.88C128.119 28.0667 128.146 28.22 128.199 28.34C128.266 28.46 128.392 28.52 128.579 28.52C128.779 28.52 129.026 28.4667 129.319 28.36C129.626 28.24 129.952 28.08 130.299 27.88C130.659 27.6667 131.026 27.42 131.399 27.14C131.786 26.86 132.152 26.5467 132.499 26.2L132.699 26.56ZM129.319 21.56C129.279 21.44 129.212 21.34 129.119 21.26C129.039 21.18 128.946 21.1133 128.839 21.06C128.732 21.0067 128.619 20.9733 128.499 20.96C128.392 20.9333 128.292 20.92 128.199 20.92C127.852 20.92 127.532 20.9533 127.239 21.02C126.946 21.0867 126.659 21.2067 126.379 21.38C126.099 21.54 125.812 21.7733 125.519 22.08C125.239 22.3733 124.939 22.76 124.619 23.24C124.459 23.48 124.306 23.7667 124.159 24.1C124.012 24.4333 123.886 24.7733 123.779 25.12C123.672 25.4533 123.586 25.78 123.519 26.1C123.466 26.4067 123.439 26.66 123.439 26.86C123.439 27.2867 123.519 27.58 123.679 27.74C123.852 27.8867 124.032 27.96 124.219 27.96C124.672 27.96 125.186 27.74 125.759 27.3C126.332 26.8467 126.852 26.12 127.319 25.12C127.519 24.6933 127.672 24.3 127.779 23.94C127.899 23.5667 128.026 23.2267 128.159 22.92C128.199 22.8133 128.259 22.68 128.339 22.52C128.432 22.36 128.532 22.2133 128.639 22.08C128.759 21.9333 128.872 21.8133 128.979 21.72C129.099 21.6133 129.212 21.56 129.319 21.56ZM139.778 26.66C139.778 26.7133 139.584 26.88 139.198 27.16C138.824 27.44 138.344 27.74 137.758 28.06C137.184 28.38 136.551 28.6667 135.858 28.92C135.164 29.1733 134.504 29.3 133.878 29.3C133.144 29.3 132.578 29.1267 132.178 28.78C131.791 28.4333 131.598 27.8867 131.598 27.14C131.598 26.74 131.651 26.3133 131.758 25.86C131.864 25.3933 132.024 24.9333 132.238 24.48C132.451 24.0133 132.711 23.5533 133.018 23.1C133.324 22.6467 133.671 22.22 134.058 21.82C134.404 21.46 134.771 21.1467 135.158 20.88C135.544 20.6133 135.924 20.3933 136.298 20.22C136.671 20.0467 137.011 19.92 137.317 19.84C137.638 19.7467 137.898 19.7 138.098 19.7C138.324 19.7 138.531 19.74 138.718 19.82C138.904 19.8867 138.998 20.1 138.998 20.46C138.998 20.6467 138.951 20.9 138.858 21.22C138.764 21.54 138.584 21.8133 138.318 22.04C138.091 22.2267 137.878 22.3533 137.678 22.42C137.491 22.4733 137.351 22.5 137.258 22.5C137.191 22.5 137.138 22.46 137.098 22.38L137.298 21.94C137.391 21.7533 137.444 21.5933 137.458 21.46C137.484 21.3133 137.498 21.2067 137.498 21.14C137.498 20.9933 137.464 20.8867 137.398 20.82C137.344 20.7533 137.238 20.72 137.078 20.72C136.651 20.72 136.218 20.8667 135.778 21.16C135.351 21.44 134.958 21.8267 134.598 22.32C134.251 22.8133 133.964 23.3933 133.738 24.06C133.511 24.7133 133.398 25.4133 133.398 26.16C133.398 26.3867 133.411 26.6333 133.438 26.9C133.464 27.1533 133.524 27.3867 133.618 27.6C133.724 27.8133 133.871 27.9933 134.058 28.14C134.258 28.2733 134.524 28.34 134.858 28.34C135.364 28.34 135.784 28.2867 136.118 28.18C136.464 28.0733 136.758 27.9667 136.998 27.86C137.371 27.7 137.711 27.5333 138.018 27.36C138.324 27.1867 138.584 27.0333 138.798 26.9C139.024 26.7533 139.198 26.6333 139.318 26.54C139.438 26.4467 139.511 26.4 139.538 26.4C139.591 26.4 139.644 26.42 139.698 26.46C139.751 26.4867 139.778 26.5533 139.778 26.66ZM153.038 17.16C152.745 17.3467 152.352 17.5467 151.858 17.76C151.365 17.9733 150.778 18.1733 150.098 18.36C149.432 18.5467 148.692 18.7 147.878 18.82C147.065 18.94 146.192 19 145.258 19C144.832 19 144.438 18.9467 144.078 18.84C143.718 18.7333 143.472 18.6467 143.338 18.58C143.578 18.22 143.832 17.9333 144.098 17.72C144.325 17.8267 144.712 17.92 145.258 18C145.818 18.08 146.498 18.12 147.298 18.12C148.152 18.12 148.892 18.08 149.518 18C150.145 17.9067 150.685 17.8 151.138 17.68C151.592 17.56 151.958 17.4467 152.238 17.34C152.532 17.22 152.758 17.1333 152.918 17.08L153.038 17.16ZM152.958 26.52C152.692 26.7467 152.318 27.0333 151.838 27.38C151.372 27.7133 150.878 28.0333 150.358 28.34C149.838 28.6467 149.332 28.9067 148.838 29.12C148.358 29.3467 147.972 29.46 147.678 29.46C147.518 29.46 147.418 29.4 147.378 29.28C147.352 29.16 147.338 29.0333 147.338 28.9C147.338 28.8333 147.365 28.7 147.418 28.5C147.472 28.2867 147.545 28.0333 147.638 27.74C147.732 27.4467 147.832 27.1267 147.938 26.78C148.058 26.4333 148.172 26.08 148.278 25.72C148.398 25.3467 148.512 24.9733 148.618 24.6C148.738 24.2267 148.845 23.8867 148.938 23.58C149.032 23.26 149.105 22.9867 149.158 22.76C149.225 22.52 149.258 22.3467 149.258 22.24C149.258 22.16 149.252 22.0933 149.238 22.04C149.225 21.9867 149.185 21.96 149.118 21.96C149.065 21.96 148.938 22.0333 148.738 22.18C148.538 22.3267 148.365 22.4733 148.218 22.62C147.978 22.86 147.672 23.1867 147.298 23.6C146.938 24 146.525 24.52 146.058 25.16C145.925 25.3467 145.772 25.5733 145.598 25.84C145.438 26.1067 145.285 26.3667 145.138 26.62C144.992 26.8733 144.865 27.1 144.758 27.3C144.652 27.4867 144.585 27.5933 144.558 27.62C144.492 27.6867 144.392 27.7733 144.258 27.88C144.138 27.9867 144.005 28.0933 143.858 28.2C143.712 28.3067 143.565 28.4 143.418 28.48C143.272 28.56 143.138 28.6 143.018 28.6C142.965 28.6 142.938 28.5733 142.938 28.52C142.938 28.4667 142.945 28.4133 142.958 28.36C142.972 28.2933 142.992 28.2067 143.018 28.1C143.045 27.9933 143.085 27.8533 143.138 27.68C143.205 27.5067 143.285 27.2867 143.378 27.02L144.638 23.42C144.878 22.7267 145.012 22.2533 145.038 22C145.038 21.8933 145.005 21.8333 144.938 21.82C144.712 21.82 144.165 22.2667 143.298 23.16C142.912 23.5467 142.552 23.9733 142.218 24.44C141.885 24.8933 141.578 25.3467 141.298 25.8C141.018 26.2533 140.765 26.6867 140.538 27.1C140.325 27.5133 140.152 27.8667 140.018 28.16C139.965 28.2267 139.885 28.3067 139.778 28.4C139.685 28.48 139.578 28.56 139.458 28.64C139.338 28.72 139.212 28.7867 139.078 28.84C138.958 28.8933 138.838 28.92 138.718 28.92C138.625 28.92 138.565 28.8933 138.538 28.84C138.512 28.7733 138.498 28.7 138.498 28.62C138.498 28.5667 138.512 28.4867 138.538 28.38C138.565 28.2733 138.605 28.1533 138.658 28.02C138.698 27.8733 138.745 27.7267 138.798 27.58C138.852 27.42 138.905 27.2733 138.958 27.14C139.092 26.78 139.212 26.4533 139.318 26.16C139.425 25.8667 139.518 25.5933 139.598 25.34C139.678 25.0733 139.752 24.82 139.818 24.58C139.898 24.3267 139.978 24.0667 140.058 23.8C140.098 23.6533 140.145 23.4667 140.198 23.24C140.265 23.0133 140.332 22.7867 140.398 22.56C140.478 22.32 140.552 22.1 140.618 21.9C140.685 21.6867 140.745 21.52 140.798 21.4C140.878 21.2 140.992 21.0267 141.138 20.88C141.298 20.72 141.465 20.5867 141.638 20.48C141.812 20.36 141.978 20.2733 142.138 20.22C142.298 20.1667 142.425 20.14 142.518 20.14C142.612 20.14 142.658 20.2133 142.658 20.36C142.645 20.4667 142.592 20.6667 142.498 20.96C142.418 21.2533 142.332 21.54 142.238 21.82C142.118 22.1933 141.985 22.5933 141.838 23.02C141.692 23.4467 141.545 23.8467 141.398 24.22C141.238 24.66 141.072 25.0933 140.898 25.52L140.978 25.58C141.112 25.3533 141.278 25.1 141.478 24.82C141.692 24.5267 141.912 24.2333 142.138 23.94C142.378 23.6333 142.618 23.34 142.858 23.06C143.112 22.78 143.352 22.5333 143.578 22.32C144.258 21.68 144.838 21.1667 145.318 20.78C145.812 20.38 146.232 20.18 146.578 20.18C146.672 20.18 146.745 20.2 146.798 20.24C146.865 20.28 146.898 20.3867 146.898 20.56C146.898 20.7067 146.838 20.9733 146.718 21.36C146.612 21.7467 146.478 22.16 146.318 22.6C146.172 23.04 146.025 23.4733 145.878 23.9C145.732 24.3133 145.618 24.6333 145.538 24.86H145.618C146.338 24.0067 146.985 23.2933 147.558 22.72C148.145 22.1333 148.658 21.6733 149.098 21.34C149.538 20.9933 149.905 20.7467 150.198 20.6C150.505 20.4533 150.738 20.38 150.898 20.38C150.992 20.38 151.052 20.42 151.078 20.5C151.118 20.5667 151.138 20.6533 151.138 20.76C151.138 20.88 151.105 21.0733 151.038 21.34C150.972 21.5933 150.885 21.8933 150.778 22.24C150.685 22.5867 150.572 22.9667 150.438 23.38C150.318 23.7933 150.198 24.2067 150.078 24.62C150.038 24.78 149.965 25.0133 149.858 25.32C149.752 25.6267 149.645 25.9467 149.538 26.28C149.445 26.6 149.358 26.9 149.278 27.18C149.198 27.46 149.158 27.64 149.158 27.72C149.158 27.92 149.238 28.02 149.398 28.02C149.585 28.02 149.805 27.9733 150.058 27.88C150.325 27.7733 150.605 27.6333 150.898 27.46C151.205 27.2867 151.518 27.0933 151.838 26.88C152.158 26.6667 152.472 26.44 152.778 26.2L152.958 26.52ZM160.425 26.92C160.398 26.96 160.205 27.1067 159.845 27.36C159.498 27.6133 159.052 27.8867 158.505 28.18C157.972 28.46 157.365 28.72 156.685 28.96C156.018 29.1867 155.352 29.3 154.685 29.3C153.845 29.3 153.212 29.1 152.785 28.7C152.372 28.3 152.165 27.6667 152.165 26.8C152.165 26.24 152.318 25.5533 152.625 24.74C152.945 23.9267 153.452 23.1067 154.145 22.28C154.545 21.8 154.952 21.3867 155.365 21.04C155.792 20.6933 156.198 20.4133 156.585 20.2C156.972 19.9867 157.332 19.8333 157.665 19.74C158.012 19.6333 158.305 19.58 158.545 19.58C158.932 19.58 159.198 19.6333 159.345 19.74C159.492 19.8333 159.565 20.0067 159.565 20.26C159.565 20.58 159.338 21 158.885 21.52C158.445 22.0267 157.872 22.6133 157.165 23.28C156.885 23.5467 156.558 23.8467 156.185 24.18C155.825 24.5133 155.485 24.8333 155.165 25.14C154.778 25.4867 154.392 25.84 154.005 26.2V26.5C154.005 27.22 154.165 27.72 154.485 28C154.818 28.2667 155.272 28.4 155.845 28.4C156.365 28.4 156.892 28.3067 157.425 28.12C157.958 27.92 158.438 27.7067 158.865 27.48C159.372 27.2133 159.858 26.9 160.325 26.54L160.425 26.92ZM157.865 21.16C157.865 20.9467 157.805 20.8133 157.685 20.76C157.565 20.7067 157.432 20.68 157.285 20.68C157.032 20.68 156.712 20.78 156.325 20.98C155.952 21.18 155.598 21.4933 155.265 21.92C155.118 22.1067 154.972 22.3333 154.825 22.6C154.678 22.8667 154.538 23.16 154.405 23.48C154.285 23.8 154.178 24.14 154.085 24.5C154.005 24.8467 153.958 25.1933 153.945 25.54C154.212 25.3133 154.485 25.08 154.765 24.84C155.005 24.6267 155.265 24.3933 155.545 24.14C155.825 23.8867 156.092 23.6267 156.345 23.36C156.785 22.9067 157.145 22.5 157.425 22.14C157.718 21.78 157.865 21.4533 157.865 21.16ZM168.443 21.72C168.443 22.3467 168.309 22.9933 168.043 23.66C167.776 24.3133 167.443 24.94 167.043 25.54C166.656 26.14 166.236 26.6867 165.783 27.18C165.329 27.66 164.909 28.0333 164.523 28.3C164.176 28.54 163.789 28.7667 163.363 28.98C162.949 29.18 162.536 29.28 162.123 29.28C161.856 29.28 161.669 29.2267 161.563 29.12C161.469 29.0133 161.423 28.8933 161.423 28.76C161.423 28.48 161.496 28.18 161.643 27.86C161.803 27.54 162.003 27.2267 162.243 26.92C162.483 26.6133 162.749 26.3133 163.043 26.02C163.349 25.7133 163.656 25.44 163.963 25.2C164.509 24.7733 165.009 24.42 165.463 24.14C165.929 23.8467 166.349 23.6 166.723 23.4C166.749 23.2133 166.769 23.0333 166.783 22.86C166.809 22.6867 166.823 22.5067 166.823 22.32C166.823 22.0133 166.789 21.7667 166.723 21.58C166.656 21.38 166.563 21.2267 166.443 21.12C166.336 21 166.209 20.92 166.063 20.88C165.929 20.84 165.783 20.82 165.623 20.82C165.316 20.82 164.929 20.9667 164.463 21.26C164.009 21.5533 163.483 22.02 162.883 22.66C162.749 22.9667 162.596 23.3467 162.423 23.8C162.263 24.24 162.083 24.7333 161.883 25.28C161.696 25.8133 161.489 26.3933 161.263 27.02C161.049 27.6467 160.829 28.2867 160.603 28.94C160.389 29.54 160.176 30.1333 159.963 30.72C159.763 31.32 159.576 31.8867 159.402 32.42C159.216 32.9667 159.049 33.4667 158.903 33.92C158.756 34.3867 158.636 34.7867 158.542 35.12C158.529 35.1867 158.522 35.2867 158.522 35.42C158.509 35.5533 158.489 35.6867 158.462 35.82C158.436 35.94 158.382 36.08 158.302 36.24C158.209 36.4 158.049 36.5733 157.822 36.76C157.529 36.9867 157.229 37.1 156.923 37.1C156.816 37.1 156.722 37.06 156.642 36.98C156.562 36.9 156.522 36.7667 156.522 36.58C156.522 36.46 156.549 36.2667 156.602 36C156.656 35.7467 156.776 35.3867 156.962 34.92C157.309 33.96 157.662 33.0067 158.022 32.06C158.329 31.2467 158.662 30.3667 159.022 29.42C159.369 28.4867 159.696 27.6133 160.003 26.8C160.176 26.3333 160.329 25.9067 160.463 25.52C160.609 25.1333 160.743 24.76 160.863 24.4C160.996 24.0267 161.129 23.6533 161.263 23.28C161.409 22.8933 161.563 22.4667 161.723 22C161.869 21.6133 162.009 21.22 162.143 20.82C162.276 20.4067 162.396 20.1467 162.502 20.04C162.703 19.84 162.923 19.6867 163.163 19.58C163.416 19.46 163.576 19.4 163.643 19.4C163.696 19.4 163.736 19.4067 163.763 19.42C163.803 19.42 163.823 19.4533 163.823 19.52C163.823 19.56 163.803 19.6533 163.763 19.8C163.723 19.9333 163.669 20.1067 163.603 20.32C163.549 20.52 163.476 20.74 163.383 20.98C163.303 21.22 163.223 21.4467 163.143 21.66L163.243 21.68C163.483 21.44 163.756 21.2067 164.063 20.98C164.383 20.74 164.703 20.5267 165.023 20.34C165.356 20.1533 165.676 20.0067 165.983 19.9C166.289 19.78 166.563 19.72 166.803 19.72C167.363 19.72 167.776 19.8667 168.043 20.16C168.309 20.4533 168.443 20.9733 168.443 21.72ZM166.583 24.08C166.476 24.12 166.323 24.1933 166.123 24.3C165.936 24.3933 165.729 24.5133 165.503 24.66C165.276 24.7933 165.036 24.9533 164.783 25.14C164.543 25.3133 164.323 25.5 164.123 25.7C163.949 25.8733 163.776 26.0533 163.603 26.24C163.429 26.4267 163.276 26.62 163.143 26.82C163.009 27.02 162.896 27.22 162.803 27.42C162.723 27.62 162.683 27.8267 162.683 28.04C162.683 28.28 162.869 28.4 163.243 28.4C163.429 28.4 163.636 28.3533 163.863 28.26C164.089 28.1533 164.323 27.98 164.562 27.74C164.709 27.5933 164.876 27.4 165.063 27.16C165.263 26.92 165.456 26.6467 165.643 26.34C165.843 26.02 166.023 25.6733 166.183 25.3C166.356 24.9133 166.489 24.5067 166.583 24.08Z" fill="white"/>
<path d="M73.96 23.76C73.96 24.1867 73.86 24.6267 73.66 25.08C73.46 25.5333 73.1933 25.9733 72.86 26.4C72.5267 26.8133 72.1533 27.1933 71.74 27.54C71.3267 27.8733 70.9 28.1467 70.46 28.36C69.9133 28.6267 69.38 28.8333 68.86 28.98C68.3533 29.1133 67.8467 29.2133 67.34 29.28C66.8333 29.3467 66.32 29.3867 65.8 29.4C65.28 29.4133 64.74 29.42 64.18 29.42C63.8733 29.42 63.6267 29.42 63.44 29.42C63.2667 29.42 63.12 29.42 63 29.42C62.8933 29.4333 62.8067 29.44 62.74 29.44C62.6733 29.44 62.6133 29.44 62.56 29.44C62.4133 29.44 62.2733 29.4333 62.14 29.42C62.0067 29.4067 61.94 29.3467 61.94 29.24C61.94 29.1733 62.06 28.9467 62.3 28.56C62.5533 28.1733 62.8267 27.6533 63.12 27C63.6933 25.7067 64.2333 24.5067 64.74 23.4C65.26 22.2933 65.7267 21.3067 66.14 20.44C66.5533 19.5733 66.9067 18.8467 67.2 18.26C67.4933 17.66 67.7067 17.24 67.84 17C67.6267 16.8667 67.3667 16.7267 67.06 16.58C66.7533 16.4333 66.4133 16.3 66.04 16.18C65.68 16.06 65.28 15.96 64.84 15.88C64.4133 15.8 63.96 15.76 63.48 15.76C62.9733 15.76 62.5133 15.8267 62.1 15.96C61.6867 16.0933 61.36 16.28 61.12 16.52C60.9467 16.7067 60.8133 16.8933 60.72 17.08C60.6267 17.2533 60.5533 17.42 60.5 17.58C60.46 17.7267 60.4333 17.86 60.42 17.98C60.42 18.1 60.42 18.18 60.42 18.22C60.42 18.4067 60.4667 18.5867 60.56 18.76C60.6667 18.9333 60.72 19.0933 60.72 19.24C60.72 19.4133 60.64 19.6 60.48 19.8C60.32 19.9867 60.1667 20.08 60.02 20.08C59.86 20.08 59.7267 20.0267 59.62 19.92C59.5267 19.8133 59.48 19.62 59.48 19.34C59.48 18.78 59.58 18.2267 59.78 17.68C59.98 17.12 60.36 16.6 60.92 16.12C61.1333 15.9333 61.38 15.7667 61.66 15.62C61.9533 15.4733 62.2467 15.3467 62.54 15.24C62.8467 15.1333 63.14 15.0533 63.42 15C63.7 14.9333 63.94 14.9 64.14 14.9C65.1933 14.9 66.0533 14.9867 66.72 15.16C67.3867 15.3333 67.98 15.56 68.5 15.84C68.5933 15.6933 68.7267 15.4867 68.9 15.22C69.0733 14.94 69.2533 14.6667 69.44 14.4C69.6267 14.1333 69.8133 13.9 70 13.7C70.1867 13.5 70.34 13.4 70.46 13.4C70.5533 13.4 70.6267 13.4133 70.68 13.44C70.7467 13.4533 70.78 13.5 70.78 13.58C70.78 13.7133 70.7133 13.8867 70.58 14.1C70.4467 14.3 70.2867 14.54 70.1 14.82C70.02 14.9533 69.9267 15.0933 69.82 15.24C69.7267 15.3867 69.6333 15.5267 69.54 15.66C69.4467 15.78 69.3667 15.8933 69.3 16C69.2333 16.0933 69.1933 16.16 69.18 16.2C69.7933 16.6 70.3867 17.0533 70.96 17.56C71.5467 18.0667 72.06 18.6333 72.5 19.26C72.94 19.8867 73.2933 20.5733 73.56 21.32C73.8267 22.0667 73.96 22.88 73.96 23.76ZM72.48 24.28C72.48 23.5733 72.38 22.8933 72.18 22.24C71.98 21.5733 71.7 20.9533 71.34 20.38C70.9933 19.7933 70.5733 19.2533 70.08 18.76C69.5867 18.2667 69.0467 17.8267 68.46 17.44C68.2467 17.7867 67.9933 18.24 67.7 18.8C67.42 19.36 67.12 19.9733 66.8 20.64C66.4933 21.2933 66.18 21.98 65.86 22.7C65.54 23.42 65.24 24.1133 64.96 24.78C64.68 25.4333 64.4267 26.04 64.2 26.6C63.9733 27.16 63.8067 27.6133 63.7 27.96C64.46 27.9867 65.1533 28.0133 65.78 28.04C66.42 28.0533 66.98 28.06 67.46 28.06C67.7667 28.06 68.0867 28.0533 68.42 28.04C68.7533 28.0267 69.0733 27.9933 69.38 27.94C69.7 27.8867 70 27.82 70.28 27.74C70.56 27.66 70.8067 27.5467 71.02 27.4C71.3 27.2267 71.5333 27.0067 71.72 26.74C71.9067 26.4733 72.0533 26.2 72.16 25.92C72.28 25.6267 72.36 25.34 72.4 25.06C72.4533 24.7667 72.48 24.5067 72.48 24.28ZM82.8858 26.92C82.8591 26.96 82.6658 27.1067 82.3058 27.36C81.9591 27.6133 81.5124 27.8867 80.9658 28.18C80.4324 28.46 79.8258 28.72 79.1458 28.96C78.4791 29.1867 77.8124 29.3 77.1458 29.3C76.3058 29.3 75.6724 29.1 75.2458 28.7C74.8324 28.3 74.6258 27.6667 74.6258 26.8C74.6258 26.24 74.7791 25.5533 75.0858 24.74C75.4058 23.9267 75.9124 23.1067 76.6058 22.28C77.0058 21.8 77.4124 21.3867 77.8258 21.04C78.2524 20.6933 78.6591 20.4133 79.0458 20.2C79.4324 19.9867 79.7924 19.8333 80.1258 19.74C80.4724 19.6333 80.7658 19.58 81.0058 19.58C81.3924 19.58 81.6591 19.6333 81.8058 19.74C81.9524 19.8333 82.0258 20.0067 82.0258 20.26C82.0258 20.58 81.7991 21 81.3458 21.52C80.9058 22.0267 80.3324 22.6133 79.6258 23.28C79.3458 23.5467 79.0191 23.8467 78.6458 24.18C78.2858 24.5133 77.9458 24.8333 77.6258 25.14C77.2391 25.4867 76.8524 25.84 76.4658 26.2V26.5C76.4658 27.22 76.6258 27.72 76.9458 28C77.2791 28.2667 77.7324 28.4 78.3058 28.4C78.8258 28.4 79.3524 28.3067 79.8858 28.12C80.4191 27.92 80.8991 27.7067 81.3258 27.48C81.8324 27.2133 82.3191 26.9 82.7858 26.54L82.8858 26.92ZM80.3258 21.16C80.3258 20.9467 80.2658 20.8133 80.1458 20.76C80.0258 20.7067 79.8924 20.68 79.7458 20.68C79.4924 20.68 79.1724 20.78 78.7858 20.98C78.4124 21.18 78.0591 21.4933 77.7258 21.92C77.5791 22.1067 77.4324 22.3333 77.2858 22.6C77.1391 22.8667 76.9991 23.16 76.8658 23.48C76.7458 23.8 76.6391 24.14 76.5458 24.5C76.4658 24.8467 76.4191 25.1933 76.4058 25.54C76.6724 25.3133 76.9458 25.08 77.2258 24.84C77.4658 24.6267 77.7258 24.3933 78.0058 24.14C78.2858 23.8867 78.5524 23.6267 78.8058 23.36C79.2458 22.9067 79.6058 22.5 79.8858 22.14C80.1791 21.78 80.3258 21.4533 80.3258 21.16ZM92.6834 26.72C92.4568 26.9067 92.1234 27.1467 91.6834 27.44C91.2568 27.7333 90.7634 28.0267 90.2034 28.32C89.4834 28.6933 88.8834 28.98 88.4034 29.18C87.9234 29.38 87.5834 29.48 87.3834 29.48C87.2101 29.48 87.1034 29.4333 87.0634 29.34C87.0234 29.2467 87.0034 29.1467 87.0034 29.04C87.0034 28.9333 87.0301 28.76 87.0834 28.52C87.1368 28.28 87.2034 28.0067 87.2834 27.7C87.3768 27.3933 87.4701 27.0667 87.5634 26.72C87.6701 26.3733 87.7701 26.04 87.8634 25.72C87.8901 25.6267 87.9234 25.5067 87.9634 25.36C88.0168 25.2 88.0701 25.0467 88.1234 24.9L88.3034 24.36C88.1301 24.4933 87.9234 24.6267 87.6834 24.76C87.4701 24.8667 87.2034 24.9933 86.8834 25.14C86.5768 25.2733 86.2034 25.4 85.7634 25.52C85.6034 25.5733 85.4501 25.6133 85.3034 25.64C85.1568 25.6533 85.0301 25.6733 84.9234 25.7C84.7901 25.7267 84.6701 25.74 84.5634 25.74C84.5234 25.9267 84.4701 26.1533 84.4034 26.42C84.3368 26.6867 84.2568 26.96 84.1634 27.24C84.0701 27.5067 83.9701 27.7667 83.8634 28.02C83.7568 28.26 83.6368 28.4467 83.5034 28.58C83.2768 28.8067 83.0768 28.9533 82.9034 29.02C82.7434 29.0867 82.5834 29.12 82.4234 29.12C82.1968 29.12 82.0634 29.08 82.0234 29C81.9701 28.92 81.9434 28.7933 81.9434 28.62C81.9434 28.5533 81.9701 28.4467 82.0234 28.3C82.0634 28.14 82.1101 27.9733 82.1634 27.8C82.2301 27.6133 82.2968 27.4267 82.3634 27.24C82.4301 27.04 82.4834 26.8667 82.5234 26.72L82.8634 25.66C82.7834 25.5933 82.7301 25.52 82.7034 25.44C82.6901 25.3467 82.6834 25.2667 82.6834 25.2C82.6834 25.0267 82.7501 24.8867 82.8834 24.78C83.0301 24.66 83.2168 24.5867 83.4434 24.56L83.6234 24.12C83.7434 23.84 83.8568 23.5533 83.9634 23.26C84.0701 22.9533 84.1701 22.6667 84.2634 22.4C84.3701 22.12 84.4634 21.8733 84.5434 21.66C84.6368 21.4333 84.7234 21.2533 84.8034 21.12C85.0301 20.7333 85.2901 20.4733 85.5834 20.34C85.8901 20.2067 86.1368 20.14 86.3234 20.14C86.4168 20.14 86.4634 20.2133 86.4634 20.36C86.4634 20.4 86.4434 20.48 86.4034 20.6C86.3634 20.7067 86.3101 20.84 86.2434 21C86.1768 21.1467 86.1034 21.3133 86.0234 21.5C85.9568 21.6733 85.8968 21.84 85.8434 22C85.7368 22.2933 85.6301 22.6 85.5234 22.92C85.4168 23.24 85.3168 23.5333 85.2234 23.8C85.1168 24.12 85.0101 24.4333 84.9034 24.74C85.4768 24.74 85.9768 24.7 86.4034 24.62C86.8434 24.54 87.2101 24.4467 87.5034 24.34C87.7968 24.22 88.0234 24.1067 88.1834 24C88.3434 23.8933 88.4434 23.8067 88.4834 23.74C88.5634 23.54 88.6168 23.3933 88.6434 23.3C88.6834 23.2067 88.7434 23.04 88.8234 22.8C88.9701 22.3467 89.1101 21.94 89.2434 21.58C89.3768 21.2067 89.5768 20.88 89.8434 20.6C89.9901 20.4533 90.1034 20.36 90.1834 20.32C90.2634 20.2667 90.3834 20.2 90.5434 20.12C90.6501 20.0667 90.7501 20.0333 90.8434 20.02C90.9368 20.0067 91.0168 20 91.0834 20C91.1768 20 91.2501 20.0267 91.3034 20.08C91.3701 20.12 91.4034 20.2133 91.4034 20.36C91.4034 20.72 91.2701 21.18 91.0034 21.74C90.7368 22.2867 90.3768 22.88 89.9234 23.52C89.7634 23.96 89.6101 24.4 89.4634 24.84C89.3301 25.28 89.2034 25.6933 89.0834 26.08C88.9768 26.4667 88.8901 26.8133 88.8234 27.12C88.7701 27.4267 88.7434 27.6667 88.7434 27.84C88.7434 27.92 88.7634 27.9933 88.8034 28.06C88.8434 28.1267 88.9168 28.16 89.0234 28.16C89.2501 28.16 89.4968 28.1133 89.7634 28.02C90.0434 27.9133 90.3301 27.78 90.6234 27.62C90.9301 27.46 91.2434 27.28 91.5634 27.08C91.8834 26.88 92.1968 26.68 92.5034 26.48L92.6834 26.72ZM106.066 17.16C105.772 17.3467 105.379 17.5467 104.886 17.76C104.392 17.9733 103.806 18.1733 103.126 18.36C102.459 18.5467 101.719 18.7 100.906 18.82C100.092 18.94 99.2191 19 98.2858 19C97.8591 19 97.4658 18.9467 97.1058 18.84C96.7458 18.7333 96.4991 18.6467 96.3658 18.58C96.6058 18.22 96.8591 17.9333 97.1258 17.72C97.3524 17.8267 97.7391 17.92 98.2858 18C98.8458 18.08 99.5258 18.12 100.326 18.12C101.179 18.12 101.919 18.08 102.546 18C103.172 17.9067 103.712 17.8 104.166 17.68C104.619 17.56 104.986 17.4467 105.266 17.34C105.559 17.22 105.786 17.1333 105.946 17.08L106.066 17.16ZM105.986 26.52C105.719 26.7467 105.346 27.0333 104.866 27.38C104.399 27.7133 103.906 28.0333 103.386 28.34C102.866 28.6467 102.359 28.9067 101.866 29.12C101.386 29.3467 100.999 29.46 100.706 29.46C100.546 29.46 100.446 29.4 100.406 29.28C100.379 29.16 100.366 29.0333 100.366 28.9C100.366 28.8333 100.392 28.7 100.446 28.5C100.499 28.2867 100.572 28.0333 100.666 27.74C100.759 27.4467 100.859 27.1267 100.966 26.78C101.086 26.4333 101.199 26.08 101.306 25.72C101.426 25.3467 101.539 24.9733 101.646 24.6C101.766 24.2267 101.872 23.8867 101.966 23.58C102.059 23.26 102.132 22.9867 102.186 22.76C102.252 22.52 102.286 22.3467 102.286 22.24C102.286 22.16 102.279 22.0933 102.266 22.04C102.252 21.9867 102.212 21.96 102.146 21.96C102.092 21.96 101.966 22.0333 101.766 22.18C101.566 22.3267 101.392 22.4733 101.246 22.62C101.006 22.86 100.699 23.1867 100.326 23.6C99.9658 24 99.5524 24.52 99.0858 25.16C98.9524 25.3467 98.7991 25.5733 98.6258 25.84C98.4658 26.1067 98.3124 26.3667 98.1658 26.62C98.0191 26.8733 97.8924 27.1 97.7858 27.3C97.6791 27.4867 97.6124 27.5933 97.5858 27.62C97.5191 27.6867 97.4191 27.7733 97.2858 27.88C97.1658 27.9867 97.0324 28.0933 96.8858 28.2C96.7391 28.3067 96.5924 28.4 96.4458 28.48C96.2991 28.56 96.1658 28.6 96.0458 28.6C95.9924 28.6 95.9658 28.5733 95.9658 28.52C95.9658 28.4667 95.9724 28.4133 95.9858 28.36C95.9991 28.2933 96.0191 28.2067 96.0458 28.1C96.0724 27.9933 96.1124 27.8533 96.1658 27.68C96.2324 27.5067 96.3124 27.2867 96.4058 27.02L97.6658 23.42C97.9058 22.7267 98.0391 22.2533 98.0658 22C98.0658 21.8933 98.0324 21.8333 97.9658 21.82C97.7391 21.82 97.1924 22.2667 96.3258 23.16C95.9391 23.5467 95.5791 23.9733 95.2458 24.44C94.9124 24.8933 94.6058 25.3467 94.3258 25.8C94.0458 26.2533 93.7924 26.6867 93.5658 27.1C93.3524 27.5133 93.1791 27.8667 93.0458 28.16C92.9924 28.2267 92.9124 28.3067 92.8058 28.4C92.7124 28.48 92.6058 28.56 92.4858 28.64C92.3658 28.72 92.2391 28.7867 92.1058 28.84C91.9858 28.8933 91.8658 28.92 91.7458 28.92C91.6524 28.92 91.5924 28.8933 91.5658 28.84C91.5391 28.7733 91.5258 28.7 91.5258 28.62C91.5258 28.5667 91.5391 28.4867 91.5658 28.38C91.5924 28.2733 91.6324 28.1533 91.6858 28.02C91.7258 27.8733 91.7724 27.7267 91.8258 27.58C91.8791 27.42 91.9324 27.2733 91.9858 27.14C92.1191 26.78 92.2391 26.4533 92.3458 26.16C92.4524 25.8667 92.5458 25.5933 92.6258 25.34C92.7058 25.0733 92.7791 24.82 92.8458 24.58C92.9258 24.3267 93.0058 24.0667 93.0858 23.8C93.1258 23.6533 93.1724 23.4667 93.2258 23.24C93.2924 23.0133 93.3591 22.7867 93.4258 22.56C93.5058 22.32 93.5791 22.1 93.6458 21.9C93.7124 21.6867 93.7724 21.52 93.8258 21.4C93.9058 21.2 94.0191 21.0267 94.1658 20.88C94.3258 20.72 94.4924 20.5867 94.6658 20.48C94.8391 20.36 95.0058 20.2733 95.1658 20.22C95.3258 20.1667 95.4524 20.14 95.5458 20.14C95.6391 20.14 95.6858 20.2133 95.6858 20.36C95.6724 20.4667 95.6191 20.6667 95.5258 20.96C95.4458 21.2533 95.3591 21.54 95.2658 21.82C95.1458 22.1933 95.0124 22.5933 94.8658 23.02C94.7191 23.4467 94.5724 23.8467 94.4258 24.22C94.2658 24.66 94.0991 25.0933 93.9258 25.52L94.0058 25.58C94.1391 25.3533 94.3058 25.1 94.5058 24.82C94.7191 24.5267 94.9391 24.2333 95.1658 23.94C95.4058 23.6333 95.6458 23.34 95.8858 23.06C96.1391 22.78 96.3791 22.5333 96.6058 22.32C97.2858 21.68 97.8658 21.1667 98.3458 20.78C98.8391 20.38 99.2591 20.18 99.6058 20.18C99.6991 20.18 99.7724 20.2 99.8258 20.24C99.8924 20.28 99.9258 20.3867 99.9258 20.56C99.9258 20.7067 99.8658 20.9733 99.7458 21.36C99.6391 21.7467 99.5058 22.16 99.3458 22.6C99.1991 23.04 99.0524 23.4733 98.9058 23.9C98.7591 24.3133 98.6458 24.6333 98.5658 24.86H98.6458C99.3658 24.0067 100.012 23.2933 100.586 22.72C101.172 22.1333 101.686 21.6733 102.126 21.34C102.566 20.9933 102.932 20.7467 103.226 20.6C103.532 20.4533 103.766 20.38 103.926 20.38C104.019 20.38 104.079 20.42 104.106 20.5C104.146 20.5667 104.166 20.6533 104.166 20.76C104.166 20.88 104.132 21.0733 104.066 21.34C103.999 21.5933 103.912 21.8933 103.806 22.24C103.712 22.5867 103.599 22.9667 103.466 23.38C103.346 23.7933 103.226 24.2067 103.106 24.62C103.066 24.78 102.992 25.0133 102.886 25.32C102.779 25.6267 102.672 25.9467 102.566 26.28C102.472 26.6 102.386 26.9 102.306 27.18C102.226 27.46 102.186 27.64 102.186 27.72C102.186 27.92 102.266 28.02 102.426 28.02C102.612 28.02 102.832 27.9733 103.086 27.88C103.352 27.7733 103.632 27.6333 103.926 27.46C104.232 27.2867 104.546 27.0933 104.866 26.88C105.186 26.6667 105.499 26.44 105.806 26.2L105.986 26.52ZM122.532 26.28C122.372 26.4267 122.206 26.56 122.032 26.68C121.859 26.8 121.672 26.9267 121.472 27.06C121.272 27.18 121.052 27.32 120.812 27.48C120.572 27.6267 120.299 27.8 119.992 28C119.566 28.28 119.192 28.5067 118.872 28.68C118.552 28.84 118.279 28.9667 118.052 29.06C117.826 29.1667 117.632 29.2333 117.472 29.26C117.312 29.3 117.179 29.32 117.072 29.32C116.752 29.32 116.559 29.2267 116.492 29.04C116.426 28.8533 116.392 28.68 116.392 28.52C116.392 28.4 116.426 28.2 116.492 27.92C116.559 27.64 116.639 27.3133 116.732 26.94C116.839 26.5533 116.959 26.14 117.092 25.7C117.226 25.2467 117.366 24.8 117.512 24.36C117.846 23.32 118.219 22.18 118.632 20.94L118.552 20.92C118.046 21.5733 117.366 22.4333 116.512 23.5C115.672 24.5667 114.566 25.8933 113.192 27.48C113.086 27.6 112.952 27.7467 112.792 27.92C112.632 28.0933 112.472 28.26 112.312 28.42C112.152 28.58 111.992 28.7133 111.832 28.82C111.686 28.9267 111.566 28.98 111.472 28.98C111.299 28.98 111.192 28.94 111.152 28.86C111.112 28.7667 111.092 28.6333 111.092 28.46C111.092 28.3 111.159 27.9533 111.292 27.42C111.426 26.8733 111.592 26.2467 111.792 25.54C111.992 24.82 112.199 24.0733 112.412 23.3C112.639 22.5133 112.832 21.8 112.992 21.16L113.312 19.9L113.212 19.86C113.159 19.9533 113.046 20.1333 112.872 20.4C112.712 20.6667 112.512 20.9867 112.272 21.36C112.046 21.7333 111.792 22.1333 111.512 22.56C111.232 22.9867 110.952 23.4067 110.672 23.82C110.406 24.22 110.146 24.6 109.892 24.96C109.652 25.3067 109.452 25.5867 109.292 25.8C108.772 26.48 108.312 27.04 107.912 27.48C107.526 27.9067 107.172 28.2467 106.852 28.5C106.546 28.7533 106.266 28.9267 106.012 29.02C105.772 29.1133 105.539 29.16 105.312 29.16C105.112 29.16 104.959 29.1133 104.852 29.02C104.746 28.94 104.666 28.84 104.612 28.72C104.559 28.6 104.526 28.4733 104.512 28.34C104.499 28.2067 104.492 28.1 104.492 28.02C104.492 27.54 104.626 27.1133 104.892 26.74C105.159 26.3667 105.446 26.1 105.752 25.94L105.872 25.96C105.859 26.0267 105.852 26.0933 105.852 26.16C105.852 26.2133 105.852 26.2933 105.852 26.4C105.852 26.6 105.892 26.8133 105.972 27.04C106.052 27.2533 106.206 27.36 106.432 27.36C106.539 27.36 106.672 27.3267 106.832 27.26C106.992 27.18 107.179 27.0533 107.392 26.88C107.619 26.6933 107.879 26.4467 108.172 26.14C108.466 25.82 108.806 25.4133 109.192 24.92C109.526 24.4933 109.906 23.9667 110.332 23.34C110.759 22.7133 111.179 22.0667 111.592 21.4C112.006 20.7333 112.392 20.0933 112.752 19.48C113.112 18.8533 113.392 18.3333 113.592 17.92C113.699 17.64 113.779 17.42 113.832 17.26C113.886 17.0867 113.932 16.9467 113.972 16.84C114.012 16.7333 114.052 16.64 114.092 16.56C114.132 16.4667 114.192 16.3467 114.272 16.2C114.379 16.0133 114.526 15.86 114.712 15.74C114.899 15.62 115.126 15.56 115.392 15.56C115.579 15.56 115.712 15.58 115.792 15.62C115.872 15.6467 115.912 15.7333 115.912 15.88C115.912 16.32 115.819 16.7733 115.632 17.24C115.446 17.7067 115.259 18.24 115.072 18.84C114.832 19.5867 114.586 20.3733 114.332 21.2C114.092 22.0133 113.872 22.78 113.672 23.5C113.472 24.22 113.306 24.8533 113.172 25.4C113.052 25.9333 112.992 26.2867 112.992 26.46C112.992 26.5533 113.019 26.6 113.072 26.6C113.152 26.6 113.352 26.4467 113.672 26.14C114.006 25.8333 114.439 25.3533 114.972 24.7C115.506 24.0467 116.139 23.2133 116.872 22.2C117.606 21.1733 118.432 19.9467 119.352 18.52C119.472 18.16 119.579 17.8467 119.672 17.58C119.766 17.3133 119.852 17.0733 119.932 16.86C120.012 16.6467 120.092 16.4533 120.172 16.28C120.266 16.1067 120.379 15.9333 120.512 15.76C120.712 15.4933 120.912 15.3267 121.112 15.26C121.312 15.18 121.512 15.14 121.712 15.14C121.859 15.14 121.946 15.2067 121.972 15.34C121.999 15.46 122.012 15.6133 122.012 15.8C122.012 15.9467 121.959 16.1733 121.852 16.48C121.759 16.7733 121.639 17.0933 121.492 17.44C121.359 17.7733 121.212 18.1 121.052 18.42C120.906 18.74 120.772 19 120.652 19.2C120.572 19.4133 120.452 19.74 120.292 20.18C120.146 20.6067 119.979 21.0933 119.792 21.64C119.606 22.1733 119.412 22.7333 119.212 23.32C119.026 23.9067 118.846 24.4667 118.672 25C118.512 25.5333 118.379 26.0133 118.272 26.44C118.179 26.8667 118.132 27.18 118.132 27.38C118.132 27.5267 118.166 27.6533 118.232 27.76C118.299 27.8667 118.432 27.92 118.632 27.92C118.832 27.92 119.072 27.86 119.352 27.74C119.646 27.62 119.952 27.4667 120.272 27.28C120.606 27.0933 120.946 26.8867 121.292 26.66C121.652 26.42 121.999 26.1867 122.332 25.96L122.532 26.28ZM132.699 26.56C132.272 26.9867 131.792 27.3867 131.259 27.76C130.739 28.1333 130.219 28.46 129.699 28.74C129.192 29.02 128.719 29.24 128.279 29.4C127.852 29.56 127.519 29.64 127.279 29.64C127.092 29.64 126.932 29.5733 126.799 29.44C126.679 29.3067 126.619 29.0467 126.619 28.66C126.619 28.34 126.646 28.02 126.699 27.7C126.766 27.38 126.832 27.08 126.899 26.8H126.819C126.219 27.5467 125.579 28.14 124.899 28.58C124.232 29.0067 123.626 29.22 123.079 29.22C122.572 29.22 122.239 29.06 122.079 28.74C121.919 28.42 121.839 27.9867 121.839 27.44C121.839 27.08 121.892 26.68 121.999 26.24C122.106 25.7867 122.259 25.3333 122.459 24.88C122.659 24.4267 122.899 23.9867 123.179 23.56C123.459 23.1333 123.779 22.7467 124.139 22.4C125.006 21.5733 125.826 21.0067 126.599 20.7C127.372 20.38 128.126 20.22 128.859 20.22C128.992 20.22 129.159 20.24 129.359 20.28C129.559 20.3067 129.752 20.3667 129.939 20.46C130.139 20.54 130.306 20.6533 130.439 20.8C130.586 20.9467 130.659 21.1333 130.659 21.36C130.659 21.5067 130.646 21.6333 130.619 21.74C130.606 21.8333 130.572 21.92 130.519 22C130.466 22.08 130.392 22.1667 130.299 22.26C130.206 22.3533 130.092 22.46 129.959 22.58C129.852 22.8733 129.732 23.1467 129.599 23.4C129.466 23.64 129.312 23.9733 129.139 24.4C128.806 25.2533 128.552 25.96 128.379 26.52C128.206 27.08 128.119 27.5333 128.119 27.88C128.119 28.0667 128.146 28.22 128.199 28.34C128.266 28.46 128.392 28.52 128.579 28.52C128.779 28.52 129.026 28.4667 129.319 28.36C129.626 28.24 129.952 28.08 130.299 27.88C130.659 27.6667 131.026 27.42 131.399 27.14C131.786 26.86 132.152 26.5467 132.499 26.2L132.699 26.56ZM129.319 21.56C129.279 21.44 129.212 21.34 129.119 21.26C129.039 21.18 128.946 21.1133 128.839 21.06C128.732 21.0067 128.619 20.9733 128.499 20.96C128.392 20.9333 128.292 20.92 128.199 20.92C127.852 20.92 127.532 20.9533 127.239 21.02C126.946 21.0867 126.659 21.2067 126.379 21.38C126.099 21.54 125.812 21.7733 125.519 22.08C125.239 22.3733 124.939 22.76 124.619 23.24C124.459 23.48 124.306 23.7667 124.159 24.1C124.012 24.4333 123.886 24.7733 123.779 25.12C123.672 25.4533 123.586 25.78 123.519 26.1C123.466 26.4067 123.439 26.66 123.439 26.86C123.439 27.2867 123.519 27.58 123.679 27.74C123.852 27.8867 124.032 27.96 124.219 27.96C124.672 27.96 125.186 27.74 125.759 27.3C126.332 26.8467 126.852 26.12 127.319 25.12C127.519 24.6933 127.672 24.3 127.779 23.94C127.899 23.5667 128.026 23.2267 128.159 22.92C128.199 22.8133 128.259 22.68 128.339 22.52C128.432 22.36 128.532 22.2133 128.639 22.08C128.759 21.9333 128.872 21.8133 128.979 21.72C129.099 21.6133 129.212 21.56 129.319 21.56ZM139.778 26.66C139.778 26.7133 139.584 26.88 139.198 27.16C138.824 27.44 138.344 27.74 137.758 28.06C137.184 28.38 136.551 28.6667 135.858 28.92C135.164 29.1733 134.504 29.3 133.878 29.3C133.144 29.3 132.578 29.1267 132.178 28.78C131.791 28.4333 131.598 27.8867 131.598 27.14C131.598 26.74 131.651 26.3133 131.758 25.86C131.864 25.3933 132.024 24.9333 132.238 24.48C132.451 24.0133 132.711 23.5533 133.018 23.1C133.324 22.6467 133.671 22.22 134.058 21.82C134.404 21.46 134.771 21.1467 135.158 20.88C135.544 20.6133 135.924 20.3933 136.298 20.22C136.671 20.0467 137.011 19.92 137.317 19.84C137.638 19.7467 137.898 19.7 138.098 19.7C138.324 19.7 138.531 19.74 138.718 19.82C138.904 19.8867 138.998 20.1 138.998 20.46C138.998 20.6467 138.951 20.9 138.858 21.22C138.764 21.54 138.584 21.8133 138.318 22.04C138.091 22.2267 137.878 22.3533 137.678 22.42C137.491 22.4733 137.351 22.5 137.258 22.5C137.191 22.5 137.138 22.46 137.098 22.38L137.298 21.94C137.391 21.7533 137.444 21.5933 137.458 21.46C137.484 21.3133 137.498 21.2067 137.498 21.14C137.498 20.9933 137.464 20.8867 137.398 20.82C137.344 20.7533 137.238 20.72 137.078 20.72C136.651 20.72 136.218 20.8667 135.778 21.16C135.351 21.44 134.958 21.8267 134.598 22.32C134.251 22.8133 133.964 23.3933 133.738 24.06C133.511 24.7133 133.398 25.4133 133.398 26.16C133.398 26.3867 133.411 26.6333 133.438 26.9C133.464 27.1533 133.524 27.3867 133.618 27.6C133.724 27.8133 133.871 27.9933 134.058 28.14C134.258 28.2733 134.524 28.34 134.858 28.34C135.364 28.34 135.784 28.2867 136.118 28.18C136.464 28.0733 136.758 27.9667 136.998 27.86C137.371 27.7 137.711 27.5333 138.018 27.36C138.324 27.1867 138.584 27.0333 138.798 26.9C139.024 26.7533 139.198 26.6333 139.318 26.54C139.438 26.4467 139.511 26.4 139.538 26.4C139.591 26.4 139.644 26.42 139.698 26.46C139.751 26.4867 139.778 26.5533 139.778 26.66ZM153.038 17.16C152.745 17.3467 152.352 17.5467 151.858 17.76C151.365 17.9733 150.778 18.1733 150.098 18.36C149.432 18.5467 148.692 18.7 147.878 18.82C147.065 18.94 146.192 19 145.258 19C144.832 19 144.438 18.9467 144.078 18.84C143.718 18.7333 143.472 18.6467 143.338 18.58C143.578 18.22 143.832 17.9333 144.098 17.72C144.325 17.8267 144.712 17.92 145.258 18C145.818 18.08 146.498 18.12 147.298 18.12C148.152 18.12 148.892 18.08 149.518 18C150.145 17.9067 150.685 17.8 151.138 17.68C151.592 17.56 151.958 17.4467 152.238 17.34C152.532 17.22 152.758 17.1333 152.918 17.08L153.038 17.16ZM152.958 26.52C152.692 26.7467 152.318 27.0333 151.838 27.38C151.372 27.7133 150.878 28.0333 150.358 28.34C149.838 28.6467 149.332 28.9067 148.838 29.12C148.358 29.3467 147.972 29.46 147.678 29.46C147.518 29.46 147.418 29.4 147.378 29.28C147.352 29.16 147.338 29.0333 147.338 28.9C147.338 28.8333 147.365 28.7 147.418 28.5C147.472 28.2867 147.545 28.0333 147.638 27.74C147.732 27.4467 147.832 27.1267 147.938 26.78C148.058 26.4333 148.172 26.08 148.278 25.72C148.398 25.3467 148.512 24.9733 148.618 24.6C148.738 24.2267 148.845 23.8867 148.938 23.58C149.032 23.26 149.105 22.9867 149.158 22.76C149.225 22.52 149.258 22.3467 149.258 22.24C149.258 22.16 149.252 22.0933 149.238 22.04C149.225 21.9867 149.185 21.96 149.118 21.96C149.065 21.96 148.938 22.0333 148.738 22.18C148.538 22.3267 148.365 22.4733 148.218 22.62C147.978 22.86 147.672 23.1867 147.298 23.6C146.938 24 146.525 24.52 146.058 25.16C145.925 25.3467 145.772 25.5733 145.598 25.84C145.438 26.1067 145.285 26.3667 145.138 26.62C144.992 26.8733 144.865 27.1 144.758 27.3C144.652 27.4867 144.585 27.5933 144.558 27.62C144.492 27.6867 144.392 27.7733 144.258 27.88C144.138 27.9867 144.005 28.0933 143.858 28.2C143.712 28.3067 143.565 28.4 143.418 28.48C143.272 28.56 143.138 28.6 143.018 28.6C142.965 28.6 142.938 28.5733 142.938 28.52C142.938 28.4667 142.945 28.4133 142.958 28.36C142.972 28.2933 142.992 28.2067 143.018 28.1C143.045 27.9933 143.085 27.8533 143.138 27.68C143.205 27.5067 143.285 27.2867 143.378 27.02L144.638 23.42C144.878 22.7267 145.012 22.2533 145.038 22C145.038 21.8933 145.005 21.8333 144.938 21.82C144.712 21.82 144.165 22.2667 143.298 23.16C142.912 23.5467 142.552 23.9733 142.218 24.44C141.885 24.8933 141.578 25.3467 141.298 25.8C141.018 26.2533 140.765 26.6867 140.538 27.1C140.325 27.5133 140.152 27.8667 140.018 28.16C139.965 28.2267 139.885 28.3067 139.778 28.4C139.685 28.48 139.578 28.56 139.458 28.64C139.338 28.72 139.212 28.7867 139.078 28.84C138.958 28.8933 138.838 28.92 138.718 28.92C138.625 28.92 138.565 28.8933 138.538 28.84C138.512 28.7733 138.498 28.7 138.498 28.62C138.498 28.5667 138.512 28.4867 138.538 28.38C138.565 28.2733 138.605 28.1533 138.658 28.02C138.698 27.8733 138.745 27.7267 138.798 27.58C138.852 27.42 138.905 27.2733 138.958 27.14C139.092 26.78 139.212 26.4533 139.318 26.16C139.425 25.8667 139.518 25.5933 139.598 25.34C139.678 25.0733 139.752 24.82 139.818 24.58C139.898 24.3267 139.978 24.0667 140.058 23.8C140.098 23.6533 140.145 23.4667 140.198 23.24C140.265 23.0133 140.332 22.7867 140.398 22.56C140.478 22.32 140.552 22.1 140.618 21.9C140.685 21.6867 140.745 21.52 140.798 21.4C140.878 21.2 140.992 21.0267 141.138 20.88C141.298 20.72 141.465 20.5867 141.638 20.48C141.812 20.36 141.978 20.2733 142.138 20.22C142.298 20.1667 142.425 20.14 142.518 20.14C142.612 20.14 142.658 20.2133 142.658 20.36C142.645 20.4667 142.592 20.6667 142.498 20.96C142.418 21.2533 142.332 21.54 142.238 21.82C142.118 22.1933 141.985 22.5933 141.838 23.02C141.692 23.4467 141.545 23.8467 141.398 24.22C141.238 24.66 141.072 25.0933 140.898 25.52L140.978 25.58C141.112 25.3533 141.278 25.1 141.478 24.82C141.692 24.5267 141.912 24.2333 142.138 23.94C142.378 23.6333 142.618 23.34 142.858 23.06C143.112 22.78 143.352 22.5333 143.578 22.32C144.258 21.68 144.838 21.1667 145.318 20.78C145.812 20.38 146.232 20.18 146.578 20.18C146.672 20.18 146.745 20.2 146.798 20.24C146.865 20.28 146.898 20.3867 146.898 20.56C146.898 20.7067 146.838 20.9733 146.718 21.36C146.612 21.7467 146.478 22.16 146.318 22.6C146.172 23.04 146.025 23.4733 145.878 23.9C145.732 24.3133 145.618 24.6333 145.538 24.86H145.618C146.338 24.0067 146.985 23.2933 147.558 22.72C148.145 22.1333 148.658 21.6733 149.098 21.34C149.538 20.9933 149.905 20.7467 150.198 20.6C150.505 20.4533 150.738 20.38 150.898 20.38C150.992 20.38 151.052 20.42 151.078 20.5C151.118 20.5667 151.138 20.6533 151.138 20.76C151.138 20.88 151.105 21.0733 151.038 21.34C150.972 21.5933 150.885 21.8933 150.778 22.24C150.685 22.5867 150.572 22.9667 150.438 23.38C150.318 23.7933 150.198 24.2067 150.078 24.62C150.038 24.78 149.965 25.0133 149.858 25.32C149.752 25.6267 149.645 25.9467 149.538 26.28C149.445 26.6 149.358 26.9 149.278 27.18C149.198 27.46 149.158 27.64 149.158 27.72C149.158 27.92 149.238 28.02 149.398 28.02C149.585 28.02 149.805 27.9733 150.058 27.88C150.325 27.7733 150.605 27.6333 150.898 27.46C151.205 27.2867 151.518 27.0933 151.838 26.88C152.158 26.6667 152.472 26.44 152.778 26.2L152.958 26.52ZM160.425 26.92C160.398 26.96 160.205 27.1067 159.845 27.36C159.498 27.6133 159.052 27.8867 158.505 28.18C157.972 28.46 157.365 28.72 156.685 28.96C156.018 29.1867 155.352 29.3 154.685 29.3C153.845 29.3 153.212 29.1 152.785 28.7C152.372 28.3 152.165 27.6667 152.165 26.8C152.165 26.24 152.318 25.5533 152.625 24.74C152.945 23.9267 153.452 23.1067 154.145 22.28C154.545 21.8 154.952 21.3867 155.365 21.04C155.792 20.6933 156.198 20.4133 156.585 20.2C156.972 19.9867 157.332 19.8333 157.665 19.74C158.012 19.6333 158.305 19.58 158.545 19.58C158.932 19.58 159.198 19.6333 159.345 19.74C159.492 19.8333 159.565 20.0067 159.565 20.26C159.565 20.58 159.338 21 158.885 21.52C158.445 22.0267 157.872 22.6133 157.165 23.28C156.885 23.5467 156.558 23.8467 156.185 24.18C155.825 24.5133 155.485 24.8333 155.165 25.14C154.778 25.4867 154.392 25.84 154.005 26.2V26.5C154.005 27.22 154.165 27.72 154.485 28C154.818 28.2667 155.272 28.4 155.845 28.4C156.365 28.4 156.892 28.3067 157.425 28.12C157.958 27.92 158.438 27.7067 158.865 27.48C159.372 27.2133 159.858 26.9 160.325 26.54L160.425 26.92ZM157.865 21.16C157.865 20.9467 157.805 20.8133 157.685 20.76C157.565 20.7067 157.432 20.68 157.285 20.68C157.032 20.68 156.712 20.78 156.325 20.98C155.952 21.18 155.598 21.4933 155.265 21.92C155.118 22.1067 154.972 22.3333 154.825 22.6C154.678 22.8667 154.538 23.16 154.405 23.48C154.285 23.8 154.178 24.14 154.085 24.5C154.005 24.8467 153.958 25.1933 153.945 25.54C154.212 25.3133 154.485 25.08 154.765 24.84C155.005 24.6267 155.265 24.3933 155.545 24.14C155.825 23.8867 156.092 23.6267 156.345 23.36C156.785 22.9067 157.145 22.5 157.425 22.14C157.718 21.78 157.865 21.4533 157.865 21.16ZM168.443 21.72C168.443 22.3467 168.309 22.9933 168.043 23.66C167.776 24.3133 167.443 24.94 167.043 25.54C166.656 26.14 166.236 26.6867 165.783 27.18C165.329 27.66 164.909 28.0333 164.523 28.3C164.176 28.54 163.789 28.7667 163.363 28.98C162.949 29.18 162.536 29.28 162.123 29.28C161.856 29.28 161.669 29.2267 161.563 29.12C161.469 29.0133 161.423 28.8933 161.423 28.76C161.423 28.48 161.496 28.18 161.643 27.86C161.803 27.54 162.003 27.2267 162.243 26.92C162.483 26.6133 162.749 26.3133 163.043 26.02C163.349 25.7133 163.656 25.44 163.963 25.2C164.509 24.7733 165.009 24.42 165.463 24.14C165.929 23.8467 166.349 23.6 166.723 23.4C166.749 23.2133 166.769 23.0333 166.783 22.86C166.809 22.6867 166.823 22.5067 166.823 22.32C166.823 22.0133 166.789 21.7667 166.723 21.58C166.656 21.38 166.563 21.2267 166.443 21.12C166.336 21 166.209 20.92 166.063 20.88C165.929 20.84 165.783 20.82 165.623 20.82C165.316 20.82 164.929 20.9667 164.463 21.26C164.009 21.5533 163.483 22.02 162.883 22.66C162.749 22.9667 162.596 23.3467 162.423 23.8C162.263 24.24 162.083 24.7333 161.883 25.28C161.696 25.8133 161.489 26.3933 161.263 27.02C161.049 27.6467 160.829 28.2867 160.603 28.94C160.389 29.54 160.176 30.1333 159.963 30.72C159.763 31.32 159.576 31.8867 159.402 32.42C159.216 32.9667 159.049 33.4667 158.903 33.92C158.756 34.3867 158.636 34.7867 158.542 35.12C158.529 35.1867 158.522 35.2867 158.522 35.42C158.509 35.5533 158.489 35.6867 158.462 35.82C158.436 35.94 158.382 36.08 158.302 36.24C158.209 36.4 158.049 36.5733 157.822 36.76C157.529 36.9867 157.229 37.1 156.923 37.1C156.816 37.1 156.722 37.06 156.642 36.98C156.562 36.9 156.522 36.7667 156.522 36.58C156.522 36.46 156.549 36.2667 156.602 36C156.656 35.7467 156.776 35.3867 156.962 34.92C157.309 33.96 157.662 33.0067 158.022 32.06C158.329 31.2467 158.662 30.3667 159.022 29.42C159.369 28.4867 159.696 27.6133 160.003 26.8C160.176 26.3333 160.329 25.9067 160.463 25.52C160.609 25.1333 160.743 24.76 160.863 24.4C160.996 24.0267 161.129 23.6533 161.263 23.28C161.409 22.8933 161.563 22.4667 161.723 22C161.869 21.6133 162.009 21.22 162.143 20.82C162.276 20.4067 162.396 20.1467 162.502 20.04C162.703 19.84 162.923 19.6867 163.163 19.58C163.416 19.46 163.576 19.4 163.643 19.4C163.696 19.4 163.736 19.4067 163.763 19.42C163.803 19.42 163.823 19.4533 163.823 19.52C163.823 19.56 163.803 19.6533 163.763 19.8C163.723 19.9333 163.669 20.1067 163.603 20.32C163.549 20.52 163.476 20.74 163.383 20.98C163.303 21.22 163.223 21.4467 163.143 21.66L163.243 21.68C163.483 21.44 163.756 21.2067 164.063 20.98C164.383 20.74 164.703 20.5267 165.023 20.34C165.356 20.1533 165.676 20.0067 165.983 19.9C166.289 19.78 166.563 19.72 166.803 19.72C167.363 19.72 167.776 19.8667 168.043 20.16C168.309 20.4533 168.443 20.9733 168.443 21.72ZM166.583 24.08C166.476 24.12 166.323 24.1933 166.123 24.3C165.936 24.3933 165.729 24.5133 165.503 24.66C165.276 24.7933 165.036 24.9533 164.783 25.14C164.543 25.3133 164.323 25.5 164.123 25.7C163.949 25.8733 163.776 26.0533 163.603 26.24C163.429 26.4267 163.276 26.62 163.143 26.82C163.009 27.02 162.896 27.22 162.803 27.42C162.723 27.62 162.683 27.8267 162.683 28.04C162.683 28.28 162.869 28.4 163.243 28.4C163.429 28.4 163.636 28.3533 163.863 28.26C164.089 28.1533 164.323 27.98 164.562 27.74C164.709 27.5933 164.876 27.4 165.063 27.16C165.263 26.92 165.456 26.6467 165.643 26.34C165.843 26.02 166.023 25.6733 166.183 25.3C166.356 24.9133 166.489 24.5067 166.583 24.08Z" fill="url(#paint3_linear)"/>
<defs>
<linearGradient id="paint0_linear" x1="24.8489" y1="0" x2="24.8489" y2="40.0021" gradientUnits="userSpaceOnUse">
<stop stop-color="white"/>
<stop offset="1" stop-color="white" stop-opacity="0"/>
</linearGradient>
<linearGradient id="paint1_linear" x1="18.1502" y1="8.59259" x2="18.1502" y2="29.5418" gradientUnits="userSpaceOnUse">
<stop stop-color="white"/>
<stop offset="1" stop-color="white" stop-opacity="0"/>
</linearGradient>
<linearGradient id="paint2_linear" x1="32.4787" y1="16.8099" x2="32.4787" y2="35.346" gradientUnits="userSpaceOnUse">
<stop stop-color="white"/>
<stop offset="1" stop-color="white" stop-opacity="0"/>
</linearGradient>
<linearGradient id="paint3_linear" x1="113.5" y1="10" x2="113.5" y2="38" gradientUnits="userSpaceOnUse">
<stop stop-color="white"/>
<stop offset="1" stop-color="white" stop-opacity="0"/>
</linearGradient>
<clipPath id="clip0">
<rect width="49.697" height="40" fill="white"/>
</clipPath>
</defs>
</svg>
